<svg xmlns="http://www.w3.org/2000/svg" xmlns:rdkit="http://www.rdkit.org/xml" xmlns:xlink="http://www.w3.org/1999/xlink" version="1.1" baseProfile="full" xml:space="preserve" width="1400px" height="200px" viewBox="0 0 1400 200">
<!-- END OF HEADER -->
<rect style="opacity:1.0;fill:#FFFFFF;stroke:none" width="1400.0" height="200.0" x="0.0" y="0.0"> </rect>
<path class="bond-0 atom-0 atom-1" d="M 29.1,73.5 L 41.5,71.4" style="fill:none;fill-rule:evenodd;stroke:#000000;stroke-width:2.0px;stroke-linecap:butt;stroke-linejoin:miter;stroke-opacity:1"/>
<path class="bond-0 atom-0 atom-1" d="M 41.5,71.4 L 54.0,69.3" style="fill:none;fill-rule:evenodd;stroke:#FF0000;stroke-width:2.0px;stroke-linecap:butt;stroke-linejoin:miter;stroke-opacity:1"/>
<path class="bond-1 atom-1 atom-2" d="M 63.4,73.9 L 70.8,82.8" style="fill:none;fill-rule:evenodd;stroke:#FF0000;stroke-width:2.0px;stroke-linecap:butt;stroke-linejoin:miter;stroke-opacity:1"/>
<path class="bond-1 atom-1 atom-2" d="M 70.8,82.8 L 78.2,91.7" style="fill:none;fill-rule:evenodd;stroke:#000000;stroke-width:2.0px;stroke-linecap:butt;stroke-linejoin:miter;stroke-opacity:1"/>
<path class="bond-2 atom-2 atom-3" d="M 76.5,89.7 L 72.0,101.8" style="fill:none;fill-rule:evenodd;stroke:#000000;stroke-width:2.0px;stroke-linecap:butt;stroke-linejoin:miter;stroke-opacity:1"/>
<path class="bond-2 atom-2 atom-3" d="M 72.0,101.8 L 67.6,114.0" style="fill:none;fill-rule:evenodd;stroke:#FF0000;stroke-width:2.0px;stroke-linecap:butt;stroke-linejoin:miter;stroke-opacity:1"/>
<path class="bond-2 atom-2 atom-3" d="M 80.8,91.3 L 76.3,103.4" style="fill:none;fill-rule:evenodd;stroke:#000000;stroke-width:2.0px;stroke-linecap:butt;stroke-linejoin:miter;stroke-opacity:1"/>
<path class="bond-2 atom-2 atom-3" d="M 76.3,103.4 L 71.8,115.5" style="fill:none;fill-rule:evenodd;stroke:#FF0000;stroke-width:2.0px;stroke-linecap:butt;stroke-linejoin:miter;stroke-opacity:1"/>
<path class="bond-3 atom-2 atom-4" d="M 78.2,91.7 L 108.0,86.6" style="fill:none;fill-rule:evenodd;stroke:#000000;stroke-width:2.0px;stroke-linecap:butt;stroke-linejoin:miter;stroke-opacity:1"/>
<path class="bond-4 atom-4 atom-5" d="M 108.0,86.6 L 118.5,58.2" style="fill:none;fill-rule:evenodd;stroke:#000000;stroke-width:2.0px;stroke-linecap:butt;stroke-linejoin:miter;stroke-opacity:1"/>
<path class="bond-4 atom-4 atom-5" d="M 113.2,85.7 L 121.9,62.3" style="fill:none;fill-rule:evenodd;stroke:#000000;stroke-width:2.0px;stroke-linecap:butt;stroke-linejoin:miter;stroke-opacity:1"/>
<path class="bond-5 atom-5 atom-6" d="M 118.5,58.2 L 148.4,53.2" style="fill:none;fill-rule:evenodd;stroke:#000000;stroke-width:2.0px;stroke-linecap:butt;stroke-linejoin:miter;stroke-opacity:1"/>
<path class="bond-6 atom-6 atom-7" d="M 148.4,53.2 L 155.9,62.2" style="fill:none;fill-rule:evenodd;stroke:#000000;stroke-width:2.0px;stroke-linecap:butt;stroke-linejoin:miter;stroke-opacity:1"/>
<path class="bond-6 atom-6 atom-7" d="M 155.9,62.2 L 163.4,71.3" style="fill:none;fill-rule:evenodd;stroke:#0000FF;stroke-width:2.0px;stroke-linecap:butt;stroke-linejoin:miter;stroke-opacity:1"/>
<path class="bond-6 atom-6 atom-7" d="M 146.5,58.1 L 153.2,66.1" style="fill:none;fill-rule:evenodd;stroke:#000000;stroke-width:2.0px;stroke-linecap:butt;stroke-linejoin:miter;stroke-opacity:1"/>
<path class="bond-6 atom-6 atom-7" d="M 153.2,66.1 L 159.9,74.2" style="fill:none;fill-rule:evenodd;stroke:#0000FF;stroke-width:2.0px;stroke-linecap:butt;stroke-linejoin:miter;stroke-opacity:1"/>
<path class="bond-7 atom-7 atom-8" d="M 165.7,81.7 L 161.4,93.3" style="fill:none;fill-rule:evenodd;stroke:#0000FF;stroke-width:2.0px;stroke-linecap:butt;stroke-linejoin:miter;stroke-opacity:1"/>
<path class="bond-7 atom-7 atom-8" d="M 161.4,93.3 L 157.2,104.8" style="fill:none;fill-rule:evenodd;stroke:#000000;stroke-width:2.0px;stroke-linecap:butt;stroke-linejoin:miter;stroke-opacity:1"/>
<path class="bond-8 atom-8 atom-9" d="M 157.2,104.8 L 127.4,109.9" style="fill:none;fill-rule:evenodd;stroke:#000000;stroke-width:2.0px;stroke-linecap:butt;stroke-linejoin:miter;stroke-opacity:1"/>
<path class="bond-8 atom-8 atom-9" d="M 153.8,100.8 L 129.2,105.0" style="fill:none;fill-rule:evenodd;stroke:#000000;stroke-width:2.0px;stroke-linecap:butt;stroke-linejoin:miter;stroke-opacity:1"/>
<path class="bond-9 atom-9 atom-10" d="M 127.4,109.9 L 123.1,121.4" style="fill:none;fill-rule:evenodd;stroke:#000000;stroke-width:2.0px;stroke-linecap:butt;stroke-linejoin:miter;stroke-opacity:1"/>
<path class="bond-9 atom-9 atom-10" d="M 123.1,121.4 L 118.8,133.0" style="fill:none;fill-rule:evenodd;stroke:#0000FF;stroke-width:2.0px;stroke-linecap:butt;stroke-linejoin:miter;stroke-opacity:1"/>
<path class="bond-10 atom-9 atom-4" d="M 127.4,109.9 L 108.0,86.6" style="fill:none;fill-rule:evenodd;stroke:#000000;stroke-width:2.0px;stroke-linecap:butt;stroke-linejoin:miter;stroke-opacity:1"/>
<path d="M 77.8,91.3 L 78.2,91.7 L 79.7,91.5" style="fill:none;stroke:#000000;stroke-width:2.0px;stroke-linecap:butt;stroke-linejoin:miter;stroke-opacity:1;"/>
<path d="M 118.0,59.7 L 118.5,58.2 L 120.0,58.0" style="fill:none;stroke:#000000;stroke-width:2.0px;stroke-linecap:butt;stroke-linejoin:miter;stroke-opacity:1;"/>
<path d="M 146.9,53.4 L 148.4,53.2 L 148.7,53.6" style="fill:none;stroke:#000000;stroke-width:2.0px;stroke-linecap:butt;stroke-linejoin:miter;stroke-opacity:1;"/>
<path d="M 157.4,104.2 L 157.2,104.8 L 155.7,105.1" style="fill:none;stroke:#000000;stroke-width:2.0px;stroke-linecap:butt;stroke-linejoin:miter;stroke-opacity:1;"/>
<path class="atom-1" d="M 55.0 68.4 Q 55.0 66.4, 56.0 65.2 Q 57.0 64.1, 58.9 64.1 Q 60.8 64.1, 61.8 65.2 Q 62.8 66.4, 62.8 68.4 Q 62.8 70.5, 61.8 71.7 Q 60.8 72.9, 58.9 72.9 Q 57.0 72.9, 56.0 71.7 Q 55.0 70.5, 55.0 68.4 M 58.9 71.9 Q 60.2 71.9, 60.9 71.0 Q 61.6 70.2, 61.6 68.4 Q 61.6 66.8, 60.9 65.9 Q 60.2 65.1, 58.9 65.1 Q 57.6 65.1, 56.9 65.9 Q 56.2 66.8, 56.2 68.4 Q 56.2 70.2, 56.9 71.0 Q 57.6 71.9, 58.9 71.9 " fill="#FF0000"/>
<path class="atom-3" d="M 63.8 120.1 Q 63.8 118.0, 64.8 116.9 Q 65.8 115.7, 67.7 115.7 Q 69.6 115.7, 70.6 116.9 Q 71.6 118.0, 71.6 120.1 Q 71.6 122.2, 70.6 123.4 Q 69.6 124.5, 67.7 124.5 Q 65.8 124.5, 64.8 123.4 Q 63.8 122.2, 63.8 120.1 M 67.7 123.6 Q 69.0 123.6, 69.7 122.7 Q 70.4 121.8, 70.4 120.1 Q 70.4 118.4, 69.7 117.6 Q 69.0 116.7, 67.7 116.7 Q 66.4 116.7, 65.7 117.6 Q 65.0 118.4, 65.0 120.1 Q 65.0 121.8, 65.7 122.7 Q 66.4 123.6, 67.7 123.6 " fill="#FF0000"/>
<path class="atom-7" d="M 165.8 72.2 L 168.6 76.7 Q 168.9 77.1, 169.3 78.0 Q 169.8 78.8, 169.8 78.8 L 169.8 72.2 L 170.9 72.2 L 170.9 80.7 L 169.8 80.7 L 166.7 75.8 Q 166.4 75.2, 166.0 74.5 Q 165.7 73.9, 165.5 73.6 L 165.5 80.7 L 164.4 80.7 L 164.4 72.2 L 165.8 72.2 " fill="#0000FF"/>
<path class="atom-10" d="M 100.3 134.0 L 101.5 134.0 L 101.5 137.6 L 105.9 137.6 L 105.9 134.0 L 107.0 134.0 L 107.0 142.6 L 105.9 142.6 L 105.9 138.6 L 101.5 138.6 L 101.5 142.6 L 100.3 142.6 L 100.3 134.0 " fill="#0000FF"/>
<path class="atom-10" d="M 108.7 142.3 Q 108.9 141.7, 109.4 141.4 Q 109.9 141.1, 110.6 141.1 Q 111.4 141.1, 111.9 141.6 Q 112.4 142.0, 112.4 142.9 Q 112.4 143.7, 111.8 144.5 Q 111.2 145.3, 109.9 146.2 L 112.5 146.2 L 112.5 146.8 L 108.7 146.8 L 108.7 146.3 Q 109.7 145.6, 110.4 145.0 Q 111.0 144.4, 111.3 143.9 Q 111.6 143.4, 111.6 142.9 Q 111.6 142.4, 111.3 142.1 Q 111.0 141.8, 110.6 141.8 Q 110.1 141.8, 109.8 141.9 Q 109.5 142.1, 109.3 142.5 L 108.7 142.3 " fill="#0000FF"/>
<path class="atom-10" d="M 115.0 134.0 L 117.8 138.5 Q 118.0 139.0, 118.5 139.8 Q 118.9 140.6, 119.0 140.6 L 119.0 134.0 L 120.1 134.0 L 120.1 142.6 L 118.9 142.6 L 115.9 137.6 Q 115.6 137.0, 115.2 136.3 Q 114.8 135.7, 114.7 135.5 L 114.7 142.6 L 113.6 142.6 L 113.6 134.0 L 115.0 134.0 " fill="#0000FF"/>
<path class="bond-0 atom-0 atom-1" d="M 229.1,73.5 L 241.5,71.4" style="fill:none;fill-rule:evenodd;stroke:#000000;stroke-width:2.0px;stroke-linecap:butt;stroke-linejoin:miter;stroke-opacity:1"/>
<path class="bond-0 atom-0 atom-1" d="M 241.5,71.4 L 254.0,69.3" style="fill:none;fill-rule:evenodd;stroke:#FF0000;stroke-width:2.0px;stroke-linecap:butt;stroke-linejoin:miter;stroke-opacity:1"/>
<path class="bond-1 atom-1 atom-2" d="M 263.4,73.9 L 270.8,82.8" style="fill:none;fill-rule:evenodd;stroke:#FF0000;stroke-width:2.0px;stroke-linecap:butt;stroke-linejoin:miter;stroke-opacity:1"/>
<path class="bond-1 atom-1 atom-2" d="M 270.8,82.8 L 278.2,91.7" style="fill:none;fill-rule:evenodd;stroke:#000000;stroke-width:2.0px;stroke-linecap:butt;stroke-linejoin:miter;stroke-opacity:1"/>
<path class="bond-2 atom-2 atom-3" d="M 276.5,89.7 L 272.0,101.8" style="fill:none;fill-rule:evenodd;stroke:#000000;stroke-width:2.0px;stroke-linecap:butt;stroke-linejoin:miter;stroke-opacity:1"/>
<path class="bond-2 atom-2 atom-3" d="M 272.0,101.8 L 267.6,114.0" style="fill:none;fill-rule:evenodd;stroke:#FF0000;stroke-width:2.0px;stroke-linecap:butt;stroke-linejoin:miter;stroke-opacity:1"/>
<path class="bond-2 atom-2 atom-3" d="M 280.8,91.3 L 276.3,103.4" style="fill:none;fill-rule:evenodd;stroke:#000000;stroke-width:2.0px;stroke-linecap:butt;stroke-linejoin:miter;stroke-opacity:1"/>
<path class="bond-2 atom-2 atom-3" d="M 276.3,103.4 L 271.8,115.5" style="fill:none;fill-rule:evenodd;stroke:#FF0000;stroke-width:2.0px;stroke-linecap:butt;stroke-linejoin:miter;stroke-opacity:1"/>
<path class="bond-3 atom-2 atom-4" d="M 278.2,91.7 L 308.0,86.6" style="fill:none;fill-rule:evenodd;stroke:#000000;stroke-width:2.0px;stroke-linecap:butt;stroke-linejoin:miter;stroke-opacity:1"/>
<path class="bond-4 atom-4 atom-5" d="M 308.0,86.6 L 318.5,58.2" style="fill:none;fill-rule:evenodd;stroke:#000000;stroke-width:2.0px;stroke-linecap:butt;stroke-linejoin:miter;stroke-opacity:1"/>
<path class="bond-4 atom-4 atom-5" d="M 313.2,85.7 L 321.9,62.3" style="fill:none;fill-rule:evenodd;stroke:#000000;stroke-width:2.0px;stroke-linecap:butt;stroke-linejoin:miter;stroke-opacity:1"/>
<path class="bond-5 atom-5 atom-6" d="M 318.5,58.2 L 348.4,53.2" style="fill:none;fill-rule:evenodd;stroke:#000000;stroke-width:2.0px;stroke-linecap:butt;stroke-linejoin:miter;stroke-opacity:1"/>
<path class="bond-6 atom-6 atom-7" d="M 348.4,53.2 L 355.9,62.2" style="fill:none;fill-rule:evenodd;stroke:#000000;stroke-width:2.0px;stroke-linecap:butt;stroke-linejoin:miter;stroke-opacity:1"/>
<path class="bond-6 atom-6 atom-7" d="M 355.9,62.2 L 363.4,71.3" style="fill:none;fill-rule:evenodd;stroke:#0000FF;stroke-width:2.0px;stroke-linecap:butt;stroke-linejoin:miter;stroke-opacity:1"/>
<path class="bond-6 atom-6 atom-7" d="M 346.5,58.1 L 353.2,66.1" style="fill:none;fill-rule:evenodd;stroke:#000000;stroke-width:2.0px;stroke-linecap:butt;stroke-linejoin:miter;stroke-opacity:1"/>
<path class="bond-6 atom-6 atom-7" d="M 353.2,66.1 L 359.9,74.2" style="fill:none;fill-rule:evenodd;stroke:#0000FF;stroke-width:2.0px;stroke-linecap:butt;stroke-linejoin:miter;stroke-opacity:1"/>
<path class="bond-7 atom-7 atom-8" d="M 365.7,81.7 L 361.4,93.3" style="fill:none;fill-rule:evenodd;stroke:#0000FF;stroke-width:2.0px;stroke-linecap:butt;stroke-linejoin:miter;stroke-opacity:1"/>
<path class="bond-7 atom-7 atom-8" d="M 361.4,93.3 L 357.2,104.8" style="fill:none;fill-rule:evenodd;stroke:#000000;stroke-width:2.0px;stroke-linecap:butt;stroke-linejoin:miter;stroke-opacity:1"/>
<path class="bond-8 atom-8 atom-9" d="M 357.2,104.8 L 327.4,109.9" style="fill:none;fill-rule:evenodd;stroke:#000000;stroke-width:2.0px;stroke-linecap:butt;stroke-linejoin:miter;stroke-opacity:1"/>
<path class="bond-8 atom-8 atom-9" d="M 353.8,100.8 L 329.2,105.0" style="fill:none;fill-rule:evenodd;stroke:#000000;stroke-width:2.0px;stroke-linecap:butt;stroke-linejoin:miter;stroke-opacity:1"/>
<path class="bond-9 atom-9 atom-10" d="M 327.4,109.9 L 323.1,121.4" style="fill:none;fill-rule:evenodd;stroke:#000000;stroke-width:2.0px;stroke-linecap:butt;stroke-linejoin:miter;stroke-opacity:1"/>
<path class="bond-9 atom-9 atom-10" d="M 323.1,121.4 L 318.8,133.0" style="fill:none;fill-rule:evenodd;stroke:#0000FF;stroke-width:2.0px;stroke-linecap:butt;stroke-linejoin:miter;stroke-opacity:1"/>
<path class="bond-10 atom-9 atom-4" d="M 327.4,109.9 L 308.0,86.6" style="fill:none;fill-rule:evenodd;stroke:#000000;stroke-width:2.0px;stroke-linecap:butt;stroke-linejoin:miter;stroke-opacity:1"/>
<path d="M 277.8,91.3 L 278.2,91.7 L 279.7,91.5" style="fill:none;stroke:#000000;stroke-width:2.0px;stroke-linecap:butt;stroke-linejoin:miter;stroke-opacity:1;"/>
<path d="M 318.0,59.7 L 318.5,58.2 L 320.0,58.0" style="fill:none;stroke:#000000;stroke-width:2.0px;stroke-linecap:butt;stroke-linejoin:miter;stroke-opacity:1;"/>
<path d="M 346.9,53.4 L 348.4,53.2 L 348.7,53.6" style="fill:none;stroke:#000000;stroke-width:2.0px;stroke-linecap:butt;stroke-linejoin:miter;stroke-opacity:1;"/>
<path d="M 357.4,104.2 L 357.2,104.8 L 355.7,105.1" style="fill:none;stroke:#000000;stroke-width:2.0px;stroke-linecap:butt;stroke-linejoin:miter;stroke-opacity:1;"/>
<path class="atom-1" d="M 255.0 68.4 Q 255.0 66.4, 256.0 65.2 Q 257.0 64.1, 258.9 64.1 Q 260.8 64.1, 261.8 65.2 Q 262.8 66.4, 262.8 68.4 Q 262.8 70.5, 261.8 71.7 Q 260.8 72.9, 258.9 72.9 Q 257.0 72.9, 256.0 71.7 Q 255.0 70.5, 255.0 68.4 M 258.9 71.9 Q 260.2 71.9, 260.9 71.0 Q 261.6 70.2, 261.6 68.4 Q 261.6 66.8, 260.9 65.9 Q 260.2 65.1, 258.9 65.1 Q 257.6 65.1, 256.9 65.9 Q 256.2 66.8, 256.2 68.4 Q 256.2 70.2, 256.9 71.0 Q 257.6 71.9, 258.9 71.9 " fill="#FF0000"/>
<path class="atom-3" d="M 263.8 120.1 Q 263.8 118.0, 264.8 116.9 Q 265.8 115.7, 267.7 115.7 Q 269.6 115.7, 270.6 116.9 Q 271.6 118.0, 271.6 120.1 Q 271.6 122.2, 270.6 123.4 Q 269.6 124.5, 267.7 124.5 Q 265.8 124.5, 264.8 123.4 Q 263.8 122.2, 263.8 120.1 M 267.7 123.6 Q 269.0 123.6, 269.7 122.7 Q 270.4 121.8, 270.4 120.1 Q 270.4 118.4, 269.7 117.6 Q 269.0 116.7, 267.7 116.7 Q 266.4 116.7, 265.7 117.6 Q 265.0 118.4, 265.0 120.1 Q 265.0 121.8, 265.7 122.7 Q 266.4 123.6, 267.7 123.6 " fill="#FF0000"/>
<path class="atom-7" d="M 365.8 72.2 L 368.6 76.7 Q 368.9 77.1, 369.3 78.0 Q 369.8 78.8, 369.8 78.8 L 369.8 72.2 L 370.9 72.2 L 370.9 80.7 L 369.8 80.7 L 366.7 75.8 Q 366.4 75.2, 366.0 74.5 Q 365.7 73.9, 365.5 73.6 L 365.5 80.7 L 364.4 80.7 L 364.4 72.2 L 365.8 72.2 " fill="#0000FF"/>
<path class="atom-10" d="M 300.3 134.0 L 301.5 134.0 L 301.5 137.6 L 305.9 137.6 L 305.9 134.0 L 307.0 134.0 L 307.0 142.6 L 305.9 142.6 L 305.9 138.6 L 301.5 138.6 L 301.5 142.6 L 300.3 142.6 L 300.3 134.0 " fill="#0000FF"/>
<path class="atom-10" d="M 308.7 142.3 Q 308.9 141.7, 309.4 141.4 Q 309.9 141.1, 310.6 141.1 Q 311.4 141.1, 311.9 141.6 Q 312.4 142.0, 312.4 142.9 Q 312.4 143.7, 311.8 144.5 Q 311.2 145.3, 309.9 146.2 L 312.5 146.2 L 312.5 146.8 L 308.7 146.8 L 308.7 146.3 Q 309.7 145.6, 310.4 145.0 Q 311.0 144.4, 311.3 143.9 Q 311.6 143.4, 311.6 142.9 Q 311.6 142.4, 311.3 142.1 Q 311.0 141.8, 310.6 141.8 Q 310.1 141.8, 309.8 141.9 Q 309.5 142.1, 309.3 142.5 L 308.7 142.3 " fill="#0000FF"/>
<path class="atom-10" d="M 315.0 134.0 L 317.8 138.5 Q 318.0 139.0, 318.5 139.8 Q 318.9 140.6, 319.0 140.6 L 319.0 134.0 L 320.1 134.0 L 320.1 142.6 L 318.9 142.6 L 315.9 137.6 Q 315.6 137.0, 315.2 136.3 Q 314.8 135.7, 314.7 135.5 L 314.7 142.6 L 313.6 142.6 L 313.6 134.0 L 315.0 134.0 " fill="#0000FF"/>
<path class="bond-0 atom-0 atom-1" d="M 410.0,89.2 L 422.9,88.1" style="fill:none;fill-rule:evenodd;stroke:#000000;stroke-width:2.0px;stroke-linecap:butt;stroke-linejoin:miter;stroke-opacity:1"/>
<path class="bond-0 atom-0 atom-1" d="M 422.9,88.1 L 435.9,87.0" style="fill:none;fill-rule:evenodd;stroke:#0000FF;stroke-width:2.0px;stroke-linecap:butt;stroke-linejoin:miter;stroke-opacity:1"/>
<path class="bond-1 atom-1 atom-2" d="M 442.6,81.4 L 447.8,70.3" style="fill:none;fill-rule:evenodd;stroke:#0000FF;stroke-width:2.0px;stroke-linecap:butt;stroke-linejoin:miter;stroke-opacity:1"/>
<path class="bond-1 atom-1 atom-2" d="M 447.8,70.3 L 453.0,59.3" style="fill:none;fill-rule:evenodd;stroke:#000000;stroke-width:2.0px;stroke-linecap:butt;stroke-linejoin:miter;stroke-opacity:1"/>
<path class="bond-2 atom-2 atom-3" d="M 453.0,59.3 L 483.1,56.7" style="fill:none;fill-rule:evenodd;stroke:#000000;stroke-width:2.0px;stroke-linecap:butt;stroke-linejoin:miter;stroke-opacity:1"/>
<path class="bond-3 atom-3 atom-4" d="M 483.1,56.7 L 489.9,66.4" style="fill:none;fill-rule:evenodd;stroke:#000000;stroke-width:2.0px;stroke-linecap:butt;stroke-linejoin:miter;stroke-opacity:1"/>
<path class="bond-3 atom-3 atom-4" d="M 489.9,66.4 L 496.7,76.2" style="fill:none;fill-rule:evenodd;stroke:#0000FF;stroke-width:2.0px;stroke-linecap:butt;stroke-linejoin:miter;stroke-opacity:1"/>
<path class="bond-4 atom-4 atom-5" d="M 504.7,81.1 L 517.6,80.0" style="fill:none;fill-rule:evenodd;stroke:#0000FF;stroke-width:2.0px;stroke-linecap:butt;stroke-linejoin:miter;stroke-opacity:1"/>
<path class="bond-4 atom-4 atom-5" d="M 517.6,80.0 L 530.6,78.9" style="fill:none;fill-rule:evenodd;stroke:#000000;stroke-width:2.0px;stroke-linecap:butt;stroke-linejoin:miter;stroke-opacity:1"/>
<path class="bond-5 atom-5 atom-6" d="M 530.6,78.9 L 547.9,103.7" style="fill:none;fill-rule:evenodd;stroke:#000000;stroke-width:2.0px;stroke-linecap:butt;stroke-linejoin:miter;stroke-opacity:1"/>
<path class="bond-6 atom-6 atom-7" d="M 547.9,103.7 L 560.5,102.6" style="fill:none;fill-rule:evenodd;stroke:#000000;stroke-width:2.0px;stroke-linecap:butt;stroke-linejoin:miter;stroke-opacity:1"/>
<path class="bond-6 atom-6 atom-7" d="M 560.5,102.6 L 573.1,101.5" style="fill:none;fill-rule:evenodd;stroke:#FF0000;stroke-width:2.0px;stroke-linecap:butt;stroke-linejoin:miter;stroke-opacity:1"/>
<path class="bond-7 atom-4 atom-8" d="M 498.0,86.8 L 492.8,97.8" style="fill:none;fill-rule:evenodd;stroke:#0000FF;stroke-width:2.0px;stroke-linecap:butt;stroke-linejoin:miter;stroke-opacity:1"/>
<path class="bond-7 atom-4 atom-8" d="M 492.8,97.8 L 487.6,108.9" style="fill:none;fill-rule:evenodd;stroke:#000000;stroke-width:2.0px;stroke-linecap:butt;stroke-linejoin:miter;stroke-opacity:1"/>
<path class="bond-8 atom-8 atom-9" d="M 487.6,108.9 L 457.5,111.5" style="fill:none;fill-rule:evenodd;stroke:#000000;stroke-width:2.0px;stroke-linecap:butt;stroke-linejoin:miter;stroke-opacity:1"/>
<path class="bond-9 atom-9 atom-10" d="M 456.0,109.3 L 450.5,120.9" style="fill:none;fill-rule:evenodd;stroke:#000000;stroke-width:2.0px;stroke-linecap:butt;stroke-linejoin:miter;stroke-opacity:1"/>
<path class="bond-9 atom-9 atom-10" d="M 450.5,120.9 L 445.1,132.6" style="fill:none;fill-rule:evenodd;stroke:#FF0000;stroke-width:2.0px;stroke-linecap:butt;stroke-linejoin:miter;stroke-opacity:1"/>
<path class="bond-9 atom-9 atom-10" d="M 460.1,111.2 L 454.6,122.9" style="fill:none;fill-rule:evenodd;stroke:#000000;stroke-width:2.0px;stroke-linecap:butt;stroke-linejoin:miter;stroke-opacity:1"/>
<path class="bond-9 atom-9 atom-10" d="M 454.6,122.9 L 449.2,134.5" style="fill:none;fill-rule:evenodd;stroke:#FF0000;stroke-width:2.0px;stroke-linecap:butt;stroke-linejoin:miter;stroke-opacity:1"/>
<path class="bond-10 atom-9 atom-1" d="M 457.5,111.5 L 450.6,101.7" style="fill:none;fill-rule:evenodd;stroke:#000000;stroke-width:2.0px;stroke-linecap:butt;stroke-linejoin:miter;stroke-opacity:1"/>
<path class="bond-10 atom-9 atom-1" d="M 450.6,101.7 L 443.8,91.9" style="fill:none;fill-rule:evenodd;stroke:#0000FF;stroke-width:2.0px;stroke-linecap:butt;stroke-linejoin:miter;stroke-opacity:1"/>
<path d="M 452.7,59.8 L 453.0,59.3 L 454.5,59.1" style="fill:none;stroke:#000000;stroke-width:2.0px;stroke-linecap:butt;stroke-linejoin:miter;stroke-opacity:1;"/>
<path d="M 481.6,56.8 L 483.1,56.7 L 483.5,57.2" style="fill:none;stroke:#000000;stroke-width:2.0px;stroke-linecap:butt;stroke-linejoin:miter;stroke-opacity:1;"/>
<path d="M 529.9,78.9 L 530.6,78.9 L 531.4,80.1" style="fill:none;stroke:#000000;stroke-width:2.0px;stroke-linecap:butt;stroke-linejoin:miter;stroke-opacity:1;"/>
<path d="M 547.0,102.5 L 547.9,103.7 L 548.5,103.6" style="fill:none;stroke:#000000;stroke-width:2.0px;stroke-linecap:butt;stroke-linejoin:miter;stroke-opacity:1;"/>
<path d="M 487.9,108.3 L 487.6,108.9 L 486.1,109.0" style="fill:none;stroke:#000000;stroke-width:2.0px;stroke-linecap:butt;stroke-linejoin:miter;stroke-opacity:1;"/>
<path d="M 459.0,111.3 L 457.5,111.5 L 457.1,111.0" style="fill:none;stroke:#000000;stroke-width:2.0px;stroke-linecap:butt;stroke-linejoin:miter;stroke-opacity:1;"/>
<path class="atom-1" d="M 438.2 82.4 L 441.1 86.9 Q 441.3 87.4, 441.8 88.2 Q 442.2 89.0, 442.3 89.0 L 442.3 82.4 L 443.4 82.4 L 443.4 90.9 L 442.2 90.9 L 439.2 86.0 Q 438.9 85.4, 438.5 84.7 Q 438.1 84.1, 438.0 83.9 L 438.0 90.9 L 436.9 90.9 L 436.9 82.4 L 438.2 82.4 " fill="#0000FF"/>
<path class="atom-4" d="M 498.5 77.2 L 501.3 81.7 Q 501.6 82.2, 502.1 83.0 Q 502.5 83.8, 502.5 83.8 L 502.5 77.2 L 503.7 77.2 L 503.7 85.8 L 502.5 85.8 L 499.5 80.8 Q 499.1 80.2, 498.8 79.6 Q 498.4 78.9, 498.3 78.7 L 498.3 85.8 L 497.2 85.8 L 497.2 77.2 L 498.5 77.2 " fill="#0000FF"/>
<path class="atom-7" d="M 574.1 101.1 Q 574.1 99.1, 575.1 97.9 Q 576.1 96.8, 578.0 96.8 Q 579.9 96.8, 580.9 97.9 Q 582.0 99.1, 582.0 101.1 Q 582.0 103.2, 580.9 104.4 Q 579.9 105.6, 578.0 105.6 Q 576.1 105.6, 575.1 104.4 Q 574.1 103.2, 574.1 101.1 M 578.0 104.6 Q 579.3 104.6, 580.0 103.7 Q 580.8 102.8, 580.8 101.1 Q 580.8 99.4, 580.0 98.6 Q 579.3 97.7, 578.0 97.7 Q 576.7 97.7, 576.0 98.6 Q 575.3 99.4, 575.3 101.1 Q 575.3 102.9, 576.0 103.7 Q 576.7 104.6, 578.0 104.6 " fill="#FF0000"/>
<path class="atom-7" d="M 583.3 96.9 L 584.5 96.9 L 584.5 100.5 L 588.8 100.5 L 588.8 96.9 L 590.0 96.9 L 590.0 105.4 L 588.8 105.4 L 588.8 101.5 L 584.5 101.5 L 584.5 105.4 L 583.3 105.4 L 583.3 96.9 " fill="#FF0000"/>
<path class="atom-10" d="M 440.7 138.9 Q 440.7 136.8, 441.7 135.7 Q 442.7 134.5, 444.6 134.5 Q 446.5 134.5, 447.5 135.7 Q 448.6 136.8, 448.6 138.9 Q 448.6 141.0, 447.5 142.2 Q 446.5 143.3, 444.6 143.3 Q 442.7 143.3, 441.7 142.2 Q 440.7 141.0, 440.7 138.9 M 444.6 142.4 Q 445.9 142.4, 446.6 141.5 Q 447.4 140.6, 447.4 138.9 Q 447.4 137.2, 446.6 136.4 Q 445.9 135.5, 444.6 135.5 Q 443.3 135.5, 442.6 136.4 Q 441.9 137.2, 441.9 138.9 Q 441.9 140.6, 442.6 141.5 Q 443.3 142.4, 444.6 142.4 " fill="#FF0000"/>
<path class="bond-0 atom-0 atom-1" d="M 733.8,135.1 L 733.7,122.7" style="fill:none;fill-rule:evenodd;stroke:#FF0000;stroke-width:2.0px;stroke-linecap:butt;stroke-linejoin:miter;stroke-opacity:1"/>
<path class="bond-0 atom-0 atom-1" d="M 733.7,122.7 L 733.6,110.2" style="fill:none;fill-rule:evenodd;stroke:#000000;stroke-width:2.0px;stroke-linecap:butt;stroke-linejoin:miter;stroke-opacity:1"/>
<path class="bond-1 atom-1 atom-2" d="M 733.6,110.2 L 744.1,104.0" style="fill:none;fill-rule:evenodd;stroke:#000000;stroke-width:2.0px;stroke-linecap:butt;stroke-linejoin:miter;stroke-opacity:1"/>
<path class="bond-1 atom-1 atom-2" d="M 744.1,104.0 L 754.7,97.7" style="fill:none;fill-rule:evenodd;stroke:#FF0000;stroke-width:2.0px;stroke-linecap:butt;stroke-linejoin:miter;stroke-opacity:1"/>
<path class="bond-2 atom-1 atom-3" d="M 733.6,110.2 L 707.2,95.4" style="fill:none;fill-rule:evenodd;stroke:#000000;stroke-width:2.0px;stroke-linecap:butt;stroke-linejoin:miter;stroke-opacity:1"/>
<path class="bond-3 atom-3 atom-4" d="M 707.2,95.4 L 679.7,108.0" style="fill:none;fill-rule:evenodd;stroke:#000000;stroke-width:2.0px;stroke-linecap:butt;stroke-linejoin:miter;stroke-opacity:1"/>
<path class="bond-3 atom-3 atom-4" d="M 702.3,92.6 L 680.8,102.5" style="fill:none;fill-rule:evenodd;stroke:#000000;stroke-width:2.0px;stroke-linecap:butt;stroke-linejoin:miter;stroke-opacity:1"/>
<path class="bond-4 atom-4 atom-5" d="M 679.7,108.0 L 664.9,134.4" style="fill:none;fill-rule:evenodd;stroke:#000000;stroke-width:2.0px;stroke-linecap:butt;stroke-linejoin:miter;stroke-opacity:1"/>
<path class="bond-5 atom-5 atom-6" d="M 664.9,134.4 L 635.2,128.4" style="fill:none;fill-rule:evenodd;stroke:#000000;stroke-width:2.0px;stroke-linecap:butt;stroke-linejoin:miter;stroke-opacity:1"/>
<path class="bond-5 atom-5 atom-6" d="M 662.5,129.3 L 639.3,124.6" style="fill:none;fill-rule:evenodd;stroke:#000000;stroke-width:2.0px;stroke-linecap:butt;stroke-linejoin:miter;stroke-opacity:1"/>
<path class="bond-6 atom-6 atom-7" d="M 635.2,128.4 L 633.8,116.0" style="fill:none;fill-rule:evenodd;stroke:#000000;stroke-width:2.0px;stroke-linecap:butt;stroke-linejoin:miter;stroke-opacity:1"/>
<path class="bond-6 atom-6 atom-7" d="M 633.8,116.0 L 632.3,103.6" style="fill:none;fill-rule:evenodd;stroke:#0000FF;stroke-width:2.0px;stroke-linecap:butt;stroke-linejoin:miter;stroke-opacity:1"/>
<path class="bond-7 atom-7 atom-8" d="M 635.9,96.4 L 647.6,91.1" style="fill:none;fill-rule:evenodd;stroke:#0000FF;stroke-width:2.0px;stroke-linecap:butt;stroke-linejoin:miter;stroke-opacity:1"/>
<path class="bond-7 atom-7 atom-8" d="M 647.6,91.1 L 659.2,85.7" style="fill:none;fill-rule:evenodd;stroke:#000000;stroke-width:2.0px;stroke-linecap:butt;stroke-linejoin:miter;stroke-opacity:1"/>
<path class="bond-7 atom-7 atom-8" d="M 637.8,100.5 L 648.0,95.9" style="fill:none;fill-rule:evenodd;stroke:#0000FF;stroke-width:2.0px;stroke-linecap:butt;stroke-linejoin:miter;stroke-opacity:1"/>
<path class="bond-7 atom-7 atom-8" d="M 648.0,95.9 L 658.1,91.2" style="fill:none;fill-rule:evenodd;stroke:#000000;stroke-width:2.0px;stroke-linecap:butt;stroke-linejoin:miter;stroke-opacity:1"/>
<path class="bond-8 atom-8 atom-9" d="M 659.2,85.7 L 665.1,75.2" style="fill:none;fill-rule:evenodd;stroke:#000000;stroke-width:2.0px;stroke-linecap:butt;stroke-linejoin:miter;stroke-opacity:1"/>
<path class="bond-8 atom-8 atom-9" d="M 665.1,75.2 L 671.1,64.6" style="fill:none;fill-rule:evenodd;stroke:#0000FF;stroke-width:2.0px;stroke-linecap:butt;stroke-linejoin:miter;stroke-opacity:1"/>
<path class="bond-9 atom-9 atom-10" d="M 678.3,60.2 L 691.0,62.8" style="fill:none;fill-rule:evenodd;stroke:#0000FF;stroke-width:2.0px;stroke-linecap:butt;stroke-linejoin:miter;stroke-opacity:1"/>
<path class="bond-9 atom-9 atom-10" d="M 691.0,62.8 L 703.7,65.3" style="fill:none;fill-rule:evenodd;stroke:#000000;stroke-width:2.0px;stroke-linecap:butt;stroke-linejoin:miter;stroke-opacity:1"/>
<path class="bond-9 atom-9 atom-10" d="M 677.4,64.7 L 688.5,66.9" style="fill:none;fill-rule:evenodd;stroke:#0000FF;stroke-width:2.0px;stroke-linecap:butt;stroke-linejoin:miter;stroke-opacity:1"/>
<path class="bond-9 atom-9 atom-10" d="M 688.5,66.9 L 699.6,69.1" style="fill:none;fill-rule:evenodd;stroke:#000000;stroke-width:2.0px;stroke-linecap:butt;stroke-linejoin:miter;stroke-opacity:1"/>
<path class="bond-10 atom-10 atom-3" d="M 703.7,65.3 L 707.2,95.4" style="fill:none;fill-rule:evenodd;stroke:#000000;stroke-width:2.0px;stroke-linecap:butt;stroke-linejoin:miter;stroke-opacity:1"/>
<path class="bond-11 atom-8 atom-4" d="M 659.2,85.7 L 679.7,108.0" style="fill:none;fill-rule:evenodd;stroke:#000000;stroke-width:2.0px;stroke-linecap:butt;stroke-linejoin:miter;stroke-opacity:1"/>
<path d="M 665.6,133.0 L 664.9,134.4 L 663.4,134.1" style="fill:none;stroke:#000000;stroke-width:2.0px;stroke-linecap:butt;stroke-linejoin:miter;stroke-opacity:1;"/>
<path d="M 636.7,128.7 L 635.2,128.4 L 635.1,127.8" style="fill:none;stroke:#000000;stroke-width:2.0px;stroke-linecap:butt;stroke-linejoin:miter;stroke-opacity:1;"/>
<path d="M 703.1,65.2 L 703.7,65.3 L 703.9,66.8" style="fill:none;stroke:#000000;stroke-width:2.0px;stroke-linecap:butt;stroke-linejoin:miter;stroke-opacity:1;"/>
<path class="atom-0" d="M 730.0 140.5 Q 730.0 138.4, 731.0 137.3 Q 732.0 136.1, 733.9 136.1 Q 735.8 136.1, 736.8 137.3 Q 737.8 138.4, 737.8 140.5 Q 737.8 142.6, 736.8 143.7 Q 735.8 144.9, 733.9 144.9 Q 732.0 144.9, 731.0 143.7 Q 730.0 142.6, 730.0 140.5 M 733.9 144.0 Q 735.2 144.0, 735.9 143.1 Q 736.6 142.2, 736.6 140.5 Q 736.6 138.8, 735.9 138.0 Q 735.2 137.1, 733.9 137.1 Q 732.6 137.1, 731.9 137.9 Q 731.2 138.8, 731.2 140.5 Q 731.2 142.2, 731.9 143.1 Q 732.6 144.0, 733.9 144.0 " fill="#FF0000"/>
<path class="atom-0" d="M 739.2 136.2 L 740.3 136.2 L 740.3 139.9 L 744.7 139.9 L 744.7 136.2 L 745.9 136.2 L 745.9 144.8 L 744.7 144.8 L 744.7 140.8 L 740.3 140.8 L 740.3 144.8 L 739.2 144.8 L 739.2 136.2 " fill="#FF0000"/>
<path class="atom-2" d="M 755.7 94.8 Q 755.7 92.8, 756.7 91.6 Q 757.7 90.5, 759.6 90.5 Q 761.5 90.5, 762.5 91.6 Q 763.5 92.8, 763.5 94.8 Q 763.5 96.9, 762.5 98.1 Q 761.5 99.3, 759.6 99.3 Q 757.7 99.3, 756.7 98.1 Q 755.7 96.9, 755.7 94.8 M 759.6 98.3 Q 760.9 98.3, 761.6 97.4 Q 762.3 96.5, 762.3 94.8 Q 762.3 93.1, 761.6 92.3 Q 760.9 91.4, 759.6 91.4 Q 758.3 91.4, 757.6 92.3 Q 756.9 93.1, 756.9 94.8 Q 756.9 96.5, 757.6 97.4 Q 758.3 98.3, 759.6 98.3 " fill="#FF0000"/>
<path class="atom-2" d="M 764.9 90.6 L 766.0 90.6 L 766.0 94.2 L 770.4 94.2 L 770.4 90.6 L 771.6 90.6 L 771.6 99.1 L 770.4 99.1 L 770.4 95.2 L 766.0 95.2 L 766.0 99.1 L 764.9 99.1 L 764.9 90.6 " fill="#FF0000"/>
<path class="atom-7" d="M 629.8 94.1 L 632.6 98.6 Q 632.9 99.0, 633.3 99.9 Q 633.8 100.7, 633.8 100.7 L 633.8 94.1 L 634.9 94.1 L 634.9 102.6 L 633.8 102.6 L 630.8 97.7 Q 630.4 97.1, 630.0 96.4 Q 629.7 95.8, 629.6 95.5 L 629.6 102.6 L 628.4 102.6 L 628.4 94.1 L 629.8 94.1 " fill="#0000FF"/>
<path class="atom-9" d="M 672.1 55.1 L 674.9 59.6 Q 675.2 60.1, 675.7 60.9 Q 676.1 61.7, 676.1 61.7 L 676.1 55.1 L 677.3 55.1 L 677.3 63.6 L 676.1 63.6 L 673.1 58.7 Q 672.7 58.1, 672.4 57.4 Q 672.0 56.8, 671.9 56.6 L 671.9 63.6 L 670.8 63.6 L 670.8 55.1 L 672.1 55.1 " fill="#0000FF"/>
<path class="bond-0 atom-0 atom-1" d="M 827.1,103.7 L 856.9,98.7" style="fill:none;fill-rule:evenodd;stroke:#000000;stroke-width:2.0px;stroke-linecap:butt;stroke-linejoin:miter;stroke-opacity:1"/>
<path class="bond-1 atom-1 atom-2" d="M 856.9,98.7 L 867.5,70.3" style="fill:none;fill-rule:evenodd;stroke:#000000;stroke-width:2.0px;stroke-linecap:butt;stroke-linejoin:miter;stroke-opacity:1"/>
<path class="bond-2 atom-2 atom-3" d="M 867.5,70.3 L 897.3,65.3" style="fill:none;fill-rule:evenodd;stroke:#000000;stroke-width:2.0px;stroke-linecap:butt;stroke-linejoin:miter;stroke-opacity:1"/>
<path class="bond-3 atom-3 atom-4" d="M 897.3,65.3 L 916.6,88.6" style="fill:none;fill-rule:evenodd;stroke:#000000;stroke-width:2.0px;stroke-linecap:butt;stroke-linejoin:miter;stroke-opacity:1"/>
<path class="bond-4 atom-4 atom-5" d="M 916.6,88.6 L 924.3,79.6" style="fill:none;fill-rule:evenodd;stroke:#000000;stroke-width:2.0px;stroke-linecap:butt;stroke-linejoin:miter;stroke-opacity:1"/>
<path class="bond-4 atom-4 atom-5" d="M 924.3,79.6 L 932.0,70.6" style="fill:none;fill-rule:evenodd;stroke:#0000FF;stroke-width:2.0px;stroke-linecap:butt;stroke-linejoin:miter;stroke-opacity:1"/>
<path class="bond-5 atom-4 atom-6" d="M 916.6,88.6 L 927.5,95.0" style="fill:none;fill-rule:evenodd;stroke:#000000;stroke-width:2.0px;stroke-linecap:butt;stroke-linejoin:miter;stroke-opacity:1"/>
<path class="bond-5 atom-4 atom-6" d="M 927.5,95.0 L 938.4,101.5" style="fill:none;fill-rule:evenodd;stroke:#0000FF;stroke-width:2.0px;stroke-linecap:butt;stroke-linejoin:miter;stroke-opacity:1"/>
<path class="bond-6 atom-6 atom-7" d="M 953.2,100.6 L 959.2,97.2" style="fill:none;fill-rule:evenodd;stroke:#0000FF;stroke-width:2.0px;stroke-linecap:butt;stroke-linejoin:miter;stroke-opacity:1"/>
<path class="bond-6 atom-6 atom-7" d="M 959.2,97.2 L 965.2,93.8" style="fill:none;fill-rule:evenodd;stroke:#FF0000;stroke-width:2.0px;stroke-linecap:butt;stroke-linejoin:miter;stroke-opacity:1"/>
<path class="bond-6 atom-6 atom-7" d="M 950.9,96.7 L 956.9,93.3" style="fill:none;fill-rule:evenodd;stroke:#0000FF;stroke-width:2.0px;stroke-linecap:butt;stroke-linejoin:miter;stroke-opacity:1"/>
<path class="bond-6 atom-6 atom-7" d="M 956.9,93.3 L 962.9,89.9" style="fill:none;fill-rule:evenodd;stroke:#FF0000;stroke-width:2.0px;stroke-linecap:butt;stroke-linejoin:miter;stroke-opacity:1"/>
<path class="bond-7 atom-6 atom-8" d="M 942.6,109.2 L 942.5,119.1" style="fill:none;fill-rule:evenodd;stroke:#0000FF;stroke-width:2.0px;stroke-linecap:butt;stroke-linejoin:miter;stroke-opacity:1"/>
<path class="bond-7 atom-6 atom-8" d="M 942.5,119.1 L 942.5,128.9" style="fill:none;fill-rule:evenodd;stroke:#FF0000;stroke-width:2.0px;stroke-linecap:butt;stroke-linejoin:miter;stroke-opacity:1"/>
<path class="bond-8 atom-4 atom-9" d="M 916.6,88.6 L 906.0,117.0" style="fill:none;fill-rule:evenodd;stroke:#000000;stroke-width:2.0px;stroke-linecap:butt;stroke-linejoin:miter;stroke-opacity:1"/>
<path class="bond-9 atom-9 atom-10" d="M 906.0,117.0 L 876.2,122.0" style="fill:none;fill-rule:evenodd;stroke:#000000;stroke-width:2.0px;stroke-linecap:butt;stroke-linejoin:miter;stroke-opacity:1"/>
<path class="bond-10 atom-10 atom-1" d="M 876.2,122.0 L 856.9,98.7" style="fill:none;fill-rule:evenodd;stroke:#000000;stroke-width:2.0px;stroke-linecap:butt;stroke-linejoin:miter;stroke-opacity:1"/>
<path d="M 867.0,71.7 L 867.5,70.3 L 869.0,70.1" style="fill:none;stroke:#000000;stroke-width:2.0px;stroke-linecap:butt;stroke-linejoin:miter;stroke-opacity:1;"/>
<path d="M 895.8,65.5 L 897.3,65.3 L 898.3,66.5" style="fill:none;stroke:#000000;stroke-width:2.0px;stroke-linecap:butt;stroke-linejoin:miter;stroke-opacity:1;"/>
<path d="M 906.5,115.6 L 906.0,117.0 L 904.5,117.2" style="fill:none;stroke:#000000;stroke-width:2.0px;stroke-linecap:butt;stroke-linejoin:miter;stroke-opacity:1;"/>
<path d="M 877.7,121.7 L 876.2,122.0 L 875.2,120.8" style="fill:none;stroke:#000000;stroke-width:2.0px;stroke-linecap:butt;stroke-linejoin:miter;stroke-opacity:1;"/>
<path class="atom-5" d="M 934.3 61.3 L 937.1 65.9 Q 937.4 66.3, 937.9 67.1 Q 938.3 67.9, 938.3 68.0 L 938.3 61.3 L 939.5 61.3 L 939.5 69.9 L 938.3 69.9 L 935.3 64.9 Q 934.9 64.3, 934.6 63.7 Q 934.2 63.0, 934.1 62.8 L 934.1 69.9 L 933.0 69.9 L 933.0 61.3 L 934.3 61.3 " fill="#0000FF"/>
<path class="atom-5" d="M 941.1 61.3 L 942.3 61.3 L 942.3 65.0 L 946.6 65.0 L 946.6 61.3 L 947.8 61.3 L 947.8 69.9 L 946.6 69.9 L 946.6 65.9 L 942.3 65.9 L 942.3 69.9 L 941.1 69.9 L 941.1 61.3 " fill="#0000FF"/>
<path class="atom-5" d="M 949.5 69.6 Q 949.7 69.1, 950.2 68.8 Q 950.7 68.5, 951.4 68.5 Q 952.2 68.5, 952.7 68.9 Q 953.2 69.4, 953.2 70.2 Q 953.2 71.0, 952.6 71.8 Q 951.9 72.6, 950.7 73.5 L 953.3 73.5 L 953.3 74.2 L 949.5 74.2 L 949.5 73.6 Q 950.5 72.9, 951.1 72.3 Q 951.8 71.8, 952.1 71.3 Q 952.4 70.8, 952.4 70.2 Q 952.4 69.7, 952.1 69.4 Q 951.8 69.1, 951.4 69.1 Q 950.9 69.1, 950.6 69.3 Q 950.3 69.5, 950.1 69.9 L 949.5 69.6 " fill="#0000FF"/>
<path class="atom-6" d="M 940.8 99.7 L 943.6 104.2 Q 943.9 104.7, 944.3 105.5 Q 944.8 106.3, 944.8 106.3 L 944.8 99.7 L 945.9 99.7 L 945.9 108.2 L 944.7 108.2 L 941.7 103.3 Q 941.4 102.7, 941.0 102.0 Q 940.6 101.4, 940.5 101.2 L 940.5 108.2 L 939.4 108.2 L 939.4 99.7 L 940.8 99.7 " fill="#0000FF"/>
<path class="atom-6" d="M 947.5 101.2 L 949.0 101.2 L 949.0 99.6 L 949.7 99.6 L 949.7 101.2 L 951.3 101.2 L 951.3 101.8 L 949.7 101.8 L 949.7 103.4 L 949.0 103.4 L 949.0 101.8 L 947.5 101.8 L 947.5 101.2 " fill="#0000FF"/>
<path class="atom-7" d="M 965.1 89.1 Q 965.1 87.0, 966.1 85.9 Q 967.1 84.7, 969.0 84.7 Q 970.9 84.7, 971.9 85.9 Q 972.9 87.0, 972.9 89.1 Q 972.9 91.1, 971.9 92.3 Q 970.9 93.5, 969.0 93.5 Q 967.1 93.5, 966.1 92.3 Q 965.1 91.2, 965.1 89.1 M 969.0 92.5 Q 970.3 92.5, 971.0 91.7 Q 971.7 90.8, 971.7 89.1 Q 971.7 87.4, 971.0 86.5 Q 970.3 85.7, 969.0 85.7 Q 967.7 85.7, 967.0 86.5 Q 966.3 87.4, 966.3 89.1 Q 966.3 90.8, 967.0 91.7 Q 967.7 92.5, 969.0 92.5 " fill="#FF0000"/>
<path class="atom-8" d="M 938.5 134.2 Q 938.5 132.2, 939.5 131.0 Q 940.5 129.9, 942.4 129.9 Q 944.3 129.9, 945.3 131.0 Q 946.4 132.2, 946.4 134.2 Q 946.4 136.3, 945.3 137.5 Q 944.3 138.7, 942.4 138.7 Q 940.5 138.7, 939.5 137.5 Q 938.5 136.3, 938.5 134.2 M 942.4 137.7 Q 943.7 137.7, 944.4 136.8 Q 945.1 136.0, 945.1 134.2 Q 945.1 132.6, 944.4 131.7 Q 943.7 130.8, 942.4 130.8 Q 941.1 130.8, 940.4 131.7 Q 939.7 132.5, 939.7 134.2 Q 939.7 136.0, 940.4 136.8 Q 941.1 137.7, 942.4 137.7 " fill="#FF0000"/>
<path class="atom-8" d="M 947.7 130.0 L 948.9 130.0 L 948.9 133.6 L 953.2 133.6 L 953.2 130.0 L 954.4 130.0 L 954.4 138.5 L 953.2 138.5 L 953.2 134.6 L 948.9 134.6 L 948.9 138.5 L 947.7 138.5 L 947.7 130.0 " fill="#FF0000"/>
<path class="bond-0 atom-0 atom-1" d="M 1106.8,135.5 L 1097.8,106.5" style="fill:none;fill-rule:evenodd;stroke:#000000;stroke-width:2.0px;stroke-linecap:butt;stroke-linejoin:miter;stroke-opacity:1"/>
<path class="bond-1 atom-1 atom-2" d="M 1097.8,106.5 L 1118.4,84.4" style="fill:none;fill-rule:evenodd;stroke:#000000;stroke-width:2.0px;stroke-linecap:butt;stroke-linejoin:miter;stroke-opacity:1"/>
<path class="bond-1 atom-1 atom-2" d="M 1102.9,107.7 L 1119.9,89.4" style="fill:none;fill-rule:evenodd;stroke:#000000;stroke-width:2.0px;stroke-linecap:butt;stroke-linejoin:miter;stroke-opacity:1"/>
<path class="bond-2 atom-2 atom-3" d="M 1118.4,84.4 L 1147.9,91.1" style="fill:none;fill-rule:evenodd;stroke:#000000;stroke-width:2.0px;stroke-linecap:butt;stroke-linejoin:miter;stroke-opacity:1"/>
<path class="bond-3 atom-3 atom-4" d="M 1145.3,90.5 L 1149.2,102.9" style="fill:none;fill-rule:evenodd;stroke:#000000;stroke-width:2.0px;stroke-linecap:butt;stroke-linejoin:miter;stroke-opacity:1"/>
<path class="bond-3 atom-3 atom-4" d="M 1149.2,102.9 L 1153.0,115.3" style="fill:none;fill-rule:evenodd;stroke:#FF0000;stroke-width:2.0px;stroke-linecap:butt;stroke-linejoin:miter;stroke-opacity:1"/>
<path class="bond-3 atom-3 atom-4" d="M 1149.7,89.1 L 1153.5,101.6" style="fill:none;fill-rule:evenodd;stroke:#000000;stroke-width:2.0px;stroke-linecap:butt;stroke-linejoin:miter;stroke-opacity:1"/>
<path class="bond-3 atom-3 atom-4" d="M 1153.5,101.6 L 1157.3,114.0" style="fill:none;fill-rule:evenodd;stroke:#FF0000;stroke-width:2.0px;stroke-linecap:butt;stroke-linejoin:miter;stroke-opacity:1"/>
<path class="bond-4 atom-3 atom-5" d="M 1147.9,91.1 L 1155.7,82.6" style="fill:none;fill-rule:evenodd;stroke:#000000;stroke-width:2.0px;stroke-linecap:butt;stroke-linejoin:miter;stroke-opacity:1"/>
<path class="bond-4 atom-3 atom-5" d="M 1155.7,82.6 L 1163.5,74.2" style="fill:none;fill-rule:evenodd;stroke:#FF0000;stroke-width:2.0px;stroke-linecap:butt;stroke-linejoin:miter;stroke-opacity:1"/>
<path class="bond-5 atom-1 atom-6" d="M 1097.8,106.5 L 1068.3,99.8" style="fill:none;fill-rule:evenodd;stroke:#000000;stroke-width:2.0px;stroke-linecap:butt;stroke-linejoin:miter;stroke-opacity:1"/>
<path class="bond-6 atom-6 atom-7" d="M 1068.3,99.8 L 1056.4,72.0" style="fill:none;fill-rule:evenodd;stroke:#000000;stroke-width:2.0px;stroke-linecap:butt;stroke-linejoin:miter;stroke-opacity:1"/>
<path class="bond-7 atom-7 atom-8" d="M 1056.4,72.0 L 1026.3,74.7" style="fill:none;fill-rule:evenodd;stroke:#000000;stroke-width:2.0px;stroke-linecap:butt;stroke-linejoin:miter;stroke-opacity:1"/>
<path class="bond-8 atom-8 atom-9" d="M 1026.3,74.7 L 1019.6,104.2" style="fill:none;fill-rule:evenodd;stroke:#000000;stroke-width:2.0px;stroke-linecap:butt;stroke-linejoin:miter;stroke-opacity:1"/>
<path class="bond-9 atom-9 atom-10" d="M 1019.6,104.2 L 1030.4,110.7" style="fill:none;fill-rule:evenodd;stroke:#000000;stroke-width:2.0px;stroke-linecap:butt;stroke-linejoin:miter;stroke-opacity:1"/>
<path class="bond-9 atom-9 atom-10" d="M 1030.4,110.7 L 1041.3,117.2" style="fill:none;fill-rule:evenodd;stroke:#0000FF;stroke-width:2.0px;stroke-linecap:butt;stroke-linejoin:miter;stroke-opacity:1"/>
<path class="bond-10 atom-10 atom-6" d="M 1049.8,116.0 L 1059.1,107.9" style="fill:none;fill-rule:evenodd;stroke:#0000FF;stroke-width:2.0px;stroke-linecap:butt;stroke-linejoin:miter;stroke-opacity:1"/>
<path class="bond-10 atom-10 atom-6" d="M 1059.1,107.9 L 1068.3,99.8" style="fill:none;fill-rule:evenodd;stroke:#000000;stroke-width:2.0px;stroke-linecap:butt;stroke-linejoin:miter;stroke-opacity:1"/>
<path d="M 1117.4,85.5 L 1118.4,84.4 L 1119.9,84.7" style="fill:none;stroke:#000000;stroke-width:2.0px;stroke-linecap:butt;stroke-linejoin:miter;stroke-opacity:1;"/>
<path d="M 1146.4,90.7 L 1147.9,91.1 L 1148.3,90.6" style="fill:none;stroke:#000000;stroke-width:2.0px;stroke-linecap:butt;stroke-linejoin:miter;stroke-opacity:1;"/>
<path d="M 1057.0,73.4 L 1056.4,72.0 L 1054.9,72.2" style="fill:none;stroke:#000000;stroke-width:2.0px;stroke-linecap:butt;stroke-linejoin:miter;stroke-opacity:1;"/>
<path d="M 1027.8,74.6 L 1026.3,74.7 L 1026.0,76.2" style="fill:none;stroke:#000000;stroke-width:2.0px;stroke-linecap:butt;stroke-linejoin:miter;stroke-opacity:1;"/>
<path d="M 1019.9,102.8 L 1019.6,104.2 L 1020.1,104.6" style="fill:none;stroke:#000000;stroke-width:2.0px;stroke-linecap:butt;stroke-linejoin:miter;stroke-opacity:1;"/>
<path class="atom-4" d="M 1152.9 120.0 Q 1152.9 117.9, 1153.9 116.8 Q 1154.9 115.6, 1156.8 115.6 Q 1158.7 115.6, 1159.7 116.8 Q 1160.8 117.9, 1160.8 120.0 Q 1160.8 122.1, 1159.7 123.3 Q 1158.7 124.4, 1156.8 124.4 Q 1154.9 124.4, 1153.9 123.3 Q 1152.9 122.1, 1152.9 120.0 M 1156.8 123.5 Q 1158.1 123.5, 1158.8 122.6 Q 1159.5 121.7, 1159.5 120.0 Q 1159.5 118.3, 1158.8 117.5 Q 1158.1 116.6, 1156.8 116.6 Q 1155.5 116.6, 1154.8 117.5 Q 1154.1 118.3, 1154.1 120.0 Q 1154.1 121.7, 1154.8 122.6 Q 1155.5 123.5, 1156.8 123.5 " fill="#FF0000"/>
<path class="atom-5" d="M 1164.5 68.9 Q 1164.5 66.8, 1165.5 65.7 Q 1166.6 64.5, 1168.5 64.5 Q 1170.4 64.5, 1171.4 65.7 Q 1172.4 66.8, 1172.4 68.9 Q 1172.4 71.0, 1171.4 72.2 Q 1170.3 73.3, 1168.5 73.3 Q 1166.6 73.3, 1165.5 72.2 Q 1164.5 71.0, 1164.5 68.9 M 1168.5 72.4 Q 1169.8 72.4, 1170.5 71.5 Q 1171.2 70.6, 1171.2 68.9 Q 1171.2 67.2, 1170.5 66.4 Q 1169.8 65.5, 1168.5 65.5 Q 1167.1 65.5, 1166.4 66.4 Q 1165.7 67.2, 1165.7 68.9 Q 1165.7 70.6, 1166.4 71.5 Q 1167.1 72.4, 1168.5 72.4 " fill="#FF0000"/>
<path class="atom-5" d="M 1173.7 64.6 L 1174.9 64.6 L 1174.9 68.3 L 1179.3 68.3 L 1179.3 64.6 L 1180.4 64.6 L 1180.4 73.2 L 1179.3 73.2 L 1179.3 69.3 L 1174.9 69.3 L 1174.9 73.2 L 1173.7 73.2 L 1173.7 64.6 " fill="#FF0000"/>
<path class="atom-10" d="M 1043.7 115.5 L 1046.5 120.0 Q 1046.7 120.5, 1047.2 121.3 Q 1047.6 122.1, 1047.7 122.1 L 1047.7 115.5 L 1048.8 115.5 L 1048.8 124.0 L 1047.6 124.0 L 1044.6 119.1 Q 1044.3 118.5, 1043.9 117.8 Q 1043.5 117.2, 1043.4 117.0 L 1043.4 124.0 L 1042.3 124.0 L 1042.3 115.5 L 1043.7 115.5 " fill="#0000FF"/>
<path class="atom-10" d="M 1042.2 124.9 L 1043.4 124.9 L 1043.4 128.5 L 1047.7 128.5 L 1047.7 124.9 L 1048.9 124.9 L 1048.9 133.5 L 1047.7 133.5 L 1047.7 129.5 L 1043.4 129.5 L 1043.4 133.5 L 1042.2 133.5 L 1042.2 124.9 " fill="#0000FF"/>
<path class="bond-0 atom-0 atom-1" d="M 1224.9,88.5 L 1255.0,85.2" style="fill:none;fill-rule:evenodd;stroke:#000000;stroke-width:2.0px;stroke-linecap:butt;stroke-linejoin:miter;stroke-opacity:1"/>
<path class="bond-1 atom-1 atom-2" d="M 1255.0,85.2 L 1267.2,57.5" style="fill:none;fill-rule:evenodd;stroke:#000000;stroke-width:2.0px;stroke-linecap:butt;stroke-linejoin:miter;stroke-opacity:1"/>
<path class="bond-1 atom-1 atom-2" d="M 1260.2,84.6 L 1270.3,61.7" style="fill:none;fill-rule:evenodd;stroke:#000000;stroke-width:2.0px;stroke-linecap:butt;stroke-linejoin:miter;stroke-opacity:1"/>
<path class="bond-2 atom-2 atom-3" d="M 1267.2,57.5 L 1297.2,54.2" style="fill:none;fill-rule:evenodd;stroke:#000000;stroke-width:2.0px;stroke-linecap:butt;stroke-linejoin:miter;stroke-opacity:1"/>
<path class="bond-3 atom-3 atom-4" d="M 1297.2,54.2 L 1315.1,78.6" style="fill:none;fill-rule:evenodd;stroke:#000000;stroke-width:2.0px;stroke-linecap:butt;stroke-linejoin:miter;stroke-opacity:1"/>
<path class="bond-3 atom-3 atom-4" d="M 1295.1,59.0 L 1309.9,79.1" style="fill:none;fill-rule:evenodd;stroke:#000000;stroke-width:2.0px;stroke-linecap:butt;stroke-linejoin:miter;stroke-opacity:1"/>
<path class="bond-4 atom-4 atom-5" d="M 1315.1,78.6 L 1328.1,77.2" style="fill:none;fill-rule:evenodd;stroke:#000000;stroke-width:2.0px;stroke-linecap:butt;stroke-linejoin:miter;stroke-opacity:1"/>
<path class="bond-4 atom-4 atom-5" d="M 1328.1,77.2 L 1341.0,75.7" style="fill:none;fill-rule:evenodd;stroke:#0000FF;stroke-width:2.0px;stroke-linecap:butt;stroke-linejoin:miter;stroke-opacity:1"/>
<path class="bond-5 atom-5 atom-6" d="M 1349.1,80.6 L 1354.1,87.4" style="fill:none;fill-rule:evenodd;stroke:#0000FF;stroke-width:2.0px;stroke-linecap:butt;stroke-linejoin:miter;stroke-opacity:1"/>
<path class="bond-5 atom-5 atom-6" d="M 1354.1,87.4 L 1359.2,94.3" style="fill:none;fill-rule:evenodd;stroke:#FF0000;stroke-width:2.0px;stroke-linecap:butt;stroke-linejoin:miter;stroke-opacity:1"/>
<path class="bond-6 atom-4 atom-7" d="M 1315.1,78.6 L 1303.0,106.3" style="fill:none;fill-rule:evenodd;stroke:#000000;stroke-width:2.0px;stroke-linecap:butt;stroke-linejoin:miter;stroke-opacity:1"/>
<path class="bond-7 atom-7 atom-8" d="M 1303.0,106.3 L 1310.0,115.8" style="fill:none;fill-rule:evenodd;stroke:#000000;stroke-width:2.0px;stroke-linecap:butt;stroke-linejoin:miter;stroke-opacity:1"/>
<path class="bond-7 atom-7 atom-8" d="M 1310.0,115.8 L 1316.9,125.3" style="fill:none;fill-rule:evenodd;stroke:#FF0000;stroke-width:2.0px;stroke-linecap:butt;stroke-linejoin:miter;stroke-opacity:1"/>
<path class="bond-8 atom-7 atom-9" d="M 1303.0,106.3 L 1272.9,109.6" style="fill:none;fill-rule:evenodd;stroke:#000000;stroke-width:2.0px;stroke-linecap:butt;stroke-linejoin:miter;stroke-opacity:1"/>
<path class="bond-8 atom-7 atom-9" d="M 1299.9,102.0 L 1275.0,104.8" style="fill:none;fill-rule:evenodd;stroke:#000000;stroke-width:2.0px;stroke-linecap:butt;stroke-linejoin:miter;stroke-opacity:1"/>
<path class="bond-9 atom-9 atom-10" d="M 1272.9,109.6 L 1268.0,120.8" style="fill:none;fill-rule:evenodd;stroke:#000000;stroke-width:2.0px;stroke-linecap:butt;stroke-linejoin:miter;stroke-opacity:1"/>
<path class="bond-9 atom-9 atom-10" d="M 1268.0,120.8 L 1263.0,132.0" style="fill:none;fill-rule:evenodd;stroke:#0000FF;stroke-width:2.0px;stroke-linecap:butt;stroke-linejoin:miter;stroke-opacity:1"/>
<path class="bond-10 atom-9 atom-1" d="M 1272.9,109.6 L 1255.0,85.2" style="fill:none;fill-rule:evenodd;stroke:#000000;stroke-width:2.0px;stroke-linecap:butt;stroke-linejoin:miter;stroke-opacity:1"/>
<path d="M 1266.6,58.9 L 1267.2,57.5 L 1268.7,57.3" style="fill:none;stroke:#000000;stroke-width:2.0px;stroke-linecap:butt;stroke-linejoin:miter;stroke-opacity:1;"/>
<path d="M 1295.7,54.3 L 1297.2,54.2 L 1298.1,55.4" style="fill:none;stroke:#000000;stroke-width:2.0px;stroke-linecap:butt;stroke-linejoin:miter;stroke-opacity:1;"/>
<path class="atom-5" d="M 1343.3 71.0 L 1346.1 75.5 Q 1346.4 76.0, 1346.9 76.8 Q 1347.3 77.6, 1347.3 77.6 L 1347.3 71.0 L 1348.5 71.0 L 1348.5 79.6 L 1347.3 79.6 L 1344.3 74.6 Q 1343.9 74.0, 1343.6 73.3 Q 1343.2 72.7, 1343.1 72.5 L 1343.1 79.6 L 1342.0 79.6 L 1342.0 71.0 L 1343.3 71.0 " fill="#0000FF"/>
<path class="atom-5" d="M 1350.1 71.0 L 1351.3 71.0 L 1351.3 74.6 L 1355.7 74.6 L 1355.7 71.0 L 1356.8 71.0 L 1356.8 79.6 L 1355.7 79.6 L 1355.7 75.6 L 1351.3 75.6 L 1351.3 79.6 L 1350.1 79.6 L 1350.1 71.0 " fill="#0000FF"/>
<path class="atom-6" d="M 1359.2 99.7 Q 1359.2 97.6, 1360.2 96.5 Q 1361.2 95.3, 1363.1 95.3 Q 1365.0 95.3, 1366.0 96.5 Q 1367.0 97.6, 1367.0 99.7 Q 1367.0 101.8, 1366.0 103.0 Q 1365.0 104.1, 1363.1 104.1 Q 1361.2 104.1, 1360.2 103.0 Q 1359.2 101.8, 1359.2 99.7 M 1363.1 103.2 Q 1364.4 103.2, 1365.1 102.3 Q 1365.8 101.4, 1365.8 99.7 Q 1365.8 98.0, 1365.1 97.2 Q 1364.4 96.3, 1363.1 96.3 Q 1361.8 96.3, 1361.1 97.1 Q 1360.4 98.0, 1360.4 99.7 Q 1360.4 101.4, 1361.1 102.3 Q 1361.8 103.2, 1363.1 103.2 " fill="#FF0000"/>
<path class="atom-6" d="M 1368.4 95.4 L 1369.5 95.4 L 1369.5 99.1 L 1373.9 99.1 L 1373.9 95.4 L 1375.1 95.4 L 1375.1 104.0 L 1373.9 104.0 L 1373.9 100.0 L 1369.5 100.0 L 1369.5 104.0 L 1368.4 104.0 L 1368.4 95.4 " fill="#FF0000"/>
<path class="atom-8" d="M 1316.9 130.7 Q 1316.9 128.6, 1317.9 127.5 Q 1319.0 126.3, 1320.9 126.3 Q 1322.8 126.3, 1323.8 127.5 Q 1324.8 128.6, 1324.8 130.7 Q 1324.8 132.8, 1323.8 134.0 Q 1322.7 135.1, 1320.9 135.1 Q 1319.0 135.1, 1317.9 134.0 Q 1316.9 132.8, 1316.9 130.7 M 1320.9 134.2 Q 1322.2 134.2, 1322.9 133.3 Q 1323.6 132.4, 1323.6 130.7 Q 1323.6 129.0, 1322.9 128.2 Q 1322.2 127.3, 1320.9 127.3 Q 1319.5 127.3, 1318.8 128.1 Q 1318.1 129.0, 1318.1 130.7 Q 1318.1 132.4, 1318.8 133.3 Q 1319.5 134.2, 1320.9 134.2 " fill="#FF0000"/>
<path class="atom-8" d="M 1326.1 126.4 L 1327.3 126.4 L 1327.3 130.1 L 1331.7 130.1 L 1331.7 126.4 L 1332.8 126.4 L 1332.8 135.0 L 1331.7 135.0 L 1331.7 131.0 L 1327.3 131.0 L 1327.3 135.0 L 1326.1 135.0 L 1326.1 126.4 " fill="#FF0000"/>
<path class="atom-10" d="M 1244.2 133.0 L 1245.3 133.0 L 1245.3 136.6 L 1249.7 136.6 L 1249.7 133.0 L 1250.9 133.0 L 1250.9 141.5 L 1249.7 141.5 L 1249.7 137.6 L 1245.3 137.6 L 1245.3 141.5 L 1244.2 141.5 L 1244.2 133.0 " fill="#0000FF"/>
<path class="atom-10" d="M 1252.6 141.2 Q 1252.8 140.7, 1253.3 140.4 Q 1253.8 140.1, 1254.4 140.1 Q 1255.3 140.1, 1255.8 140.6 Q 1256.3 141.0, 1256.3 141.9 Q 1256.3 142.7, 1255.6 143.5 Q 1255.0 144.3, 1253.7 145.2 L 1256.3 145.2 L 1256.3 145.8 L 1252.5 145.8 L 1252.5 145.3 Q 1253.6 144.5, 1254.2 144.0 Q 1254.8 143.4, 1255.1 142.9 Q 1255.5 142.4, 1255.5 141.9 Q 1255.5 141.4, 1255.2 141.0 Q 1254.9 140.7, 1254.4 140.7 Q 1254.0 140.7, 1253.7 140.9 Q 1253.4 141.1, 1253.2 141.5 L 1252.6 141.2 " fill="#0000FF"/>
<path class="atom-10" d="M 1258.8 133.0 L 1261.6 137.5 Q 1261.9 138.0, 1262.3 138.8 Q 1262.8 139.6, 1262.8 139.6 L 1262.8 133.0 L 1264.0 133.0 L 1264.0 141.5 L 1262.8 141.5 L 1259.8 136.6 Q 1259.4 136.0, 1259.0 135.3 Q 1258.7 134.7, 1258.6 134.5 L 1258.6 141.5 L 1257.5 141.5 L 1257.5 133.0 L 1258.8 133.0 " fill="#0000FF"/>
</svg>