<svg xmlns="http://www.w3.org/2000/svg" xmlns:rdkit="http://www.rdkit.org/xml" xmlns:xlink="http://www.w3.org/1999/xlink" version="1.1" baseProfile="full" xml:space="preserve" width="1400px" height="200px" viewBox="0 0 1400 200">
<!-- END OF HEADER -->
<rect style="opacity:1.0;fill:#FFFFFF;stroke:none" width="1400.0" height="200.0" x="0.0" y="0.0"> </rect>
<path class="bond-0 atom-0 atom-1" d="M 124.2,132.6 L 112.5,104.1" style="fill:none;fill-rule:evenodd;stroke:#000000;stroke-width:2.0px;stroke-linecap:butt;stroke-linejoin:miter;stroke-opacity:1"/>
<path class="bond-1 atom-1 atom-2" d="M 112.5,104.1 L 119.8,94.6" style="fill:none;fill-rule:evenodd;stroke:#000000;stroke-width:2.0px;stroke-linecap:butt;stroke-linejoin:miter;stroke-opacity:1"/>
<path class="bond-1 atom-1 atom-2" d="M 119.8,94.6 L 127.1,85.1" style="fill:none;fill-rule:evenodd;stroke:#0000FF;stroke-width:2.0px;stroke-linecap:butt;stroke-linejoin:miter;stroke-opacity:1"/>
<path class="bond-2 atom-2 atom-3" d="M 135.6,80.3 L 157.5,83.2" style="fill:none;fill-rule:evenodd;stroke:#0000FF;stroke-width:2.0px;stroke-linecap:butt;stroke-linejoin:miter;stroke-opacity:1"/>
<path class="bond-3 atom-1 atom-4" d="M 112.5,104.1 L 81.9,100.0" style="fill:none;fill-rule:evenodd;stroke:#000000;stroke-width:2.0px;stroke-linecap:butt;stroke-linejoin:miter;stroke-opacity:1"/>
<path class="bond-4 atom-4 atom-5" d="M 81.9,100.0 L 63.1,124.4" style="fill:none;fill-rule:evenodd;stroke:#000000;stroke-width:2.0px;stroke-linecap:butt;stroke-linejoin:miter;stroke-opacity:1"/>
<path class="bond-4 atom-4 atom-5" d="M 76.6,99.3 L 61.0,119.5" style="fill:none;fill-rule:evenodd;stroke:#000000;stroke-width:2.0px;stroke-linecap:butt;stroke-linejoin:miter;stroke-opacity:1"/>
<path class="bond-5 atom-5 atom-6" d="M 63.1,124.4 L 32.5,120.3" style="fill:none;fill-rule:evenodd;stroke:#000000;stroke-width:2.0px;stroke-linecap:butt;stroke-linejoin:miter;stroke-opacity:1"/>
<path class="bond-6 atom-6 atom-7" d="M 32.5,120.3 L 20.8,91.8" style="fill:none;fill-rule:evenodd;stroke:#000000;stroke-width:2.0px;stroke-linecap:butt;stroke-linejoin:miter;stroke-opacity:1"/>
<path class="bond-6 atom-6 atom-7" d="M 35.8,116.1 L 26.1,92.5" style="fill:none;fill-rule:evenodd;stroke:#000000;stroke-width:2.0px;stroke-linecap:butt;stroke-linejoin:miter;stroke-opacity:1"/>
<path class="bond-7 atom-7 atom-8" d="M 20.8,91.8 L 39.6,67.4" style="fill:none;fill-rule:evenodd;stroke:#000000;stroke-width:2.0px;stroke-linecap:butt;stroke-linejoin:miter;stroke-opacity:1"/>
<path class="bond-8 atom-8 atom-9" d="M 39.6,67.4 L 70.2,71.5" style="fill:none;fill-rule:evenodd;stroke:#000000;stroke-width:2.0px;stroke-linecap:butt;stroke-linejoin:miter;stroke-opacity:1"/>
<path class="bond-8 atom-8 atom-9" d="M 41.6,72.3 L 66.9,75.7" style="fill:none;fill-rule:evenodd;stroke:#000000;stroke-width:2.0px;stroke-linecap:butt;stroke-linejoin:miter;stroke-opacity:1"/>
<path class="bond-9 atom-9 atom-4" d="M 70.2,71.5 L 81.9,100.0" style="fill:none;fill-rule:evenodd;stroke:#000000;stroke-width:2.0px;stroke-linecap:butt;stroke-linejoin:miter;stroke-opacity:1"/>
<path d="M 64.0,123.2 L 63.1,124.4 L 61.5,124.2" style="fill:none;stroke:#000000;stroke-width:2.0px;stroke-linecap:butt;stroke-linejoin:miter;stroke-opacity:1;"/>
<path d="M 34.0,120.5 L 32.5,120.3 L 31.9,118.9" style="fill:none;stroke:#000000;stroke-width:2.0px;stroke-linecap:butt;stroke-linejoin:miter;stroke-opacity:1;"/>
<path d="M 21.4,93.2 L 20.8,91.8 L 21.7,90.6" style="fill:none;stroke:#000000;stroke-width:2.0px;stroke-linecap:butt;stroke-linejoin:miter;stroke-opacity:1;"/>
<path d="M 38.7,68.6 L 39.6,67.4 L 41.1,67.6" style="fill:none;stroke:#000000;stroke-width:2.0px;stroke-linecap:butt;stroke-linejoin:miter;stroke-opacity:1;"/>
<path d="M 68.6,71.3 L 70.2,71.5 L 70.7,72.9" style="fill:none;stroke:#000000;stroke-width:2.0px;stroke-linecap:butt;stroke-linejoin:miter;stroke-opacity:1;"/>
<path class="atom-2" d="M 119.4 75.3 L 120.6 75.3 L 120.6 79.0 L 125.1 79.0 L 125.1 75.3 L 126.2 75.3 L 126.2 84.0 L 125.1 84.0 L 125.1 80.0 L 120.6 80.0 L 120.6 84.0 L 119.4 84.0 L 119.4 75.3 " fill="#0000FF"/>
<path class="atom-2" d="M 129.3 75.3 L 132.2 79.9 Q 132.5 80.4, 132.9 81.2 Q 133.4 82.0, 133.4 82.1 L 133.4 75.3 L 134.6 75.3 L 134.6 84.0 L 133.4 84.0 L 130.3 79.0 Q 130.0 78.4, 129.6 77.7 Q 129.2 77.0, 129.1 76.8 L 129.1 84.0 L 128.0 84.0 L 128.0 75.3 L 129.3 75.3 " fill="#0000FF"/>
<path class="atom-3" d="M 159.9 79.4 L 162.8 84.0 Q 163.1 84.5, 163.5 85.3 Q 164.0 86.1, 164.0 86.2 L 164.0 79.4 L 165.1 79.4 L 165.1 88.1 L 164.0 88.1 L 160.9 83.1 Q 160.5 82.5, 160.1 81.8 Q 159.8 81.1, 159.7 80.9 L 159.7 88.1 L 158.5 88.1 L 158.5 79.4 L 159.9 79.4 " fill="#0000FF"/>
<path class="atom-3" d="M 166.8 79.4 L 168.0 79.4 L 168.0 83.1 L 172.5 83.1 L 172.5 79.4 L 173.7 79.4 L 173.7 88.1 L 172.5 88.1 L 172.5 84.1 L 168.0 84.1 L 168.0 88.1 L 166.8 88.1 L 166.8 79.4 " fill="#0000FF"/>
<path class="atom-3" d="M 175.4 87.8 Q 175.6 87.3, 176.1 87.0 Q 176.6 86.7, 177.3 86.7 Q 178.2 86.7, 178.6 87.1 Q 179.1 87.6, 179.1 88.5 Q 179.1 89.3, 178.5 90.1 Q 177.9 90.9, 176.6 91.9 L 179.2 91.9 L 179.2 92.5 L 175.3 92.5 L 175.3 92.0 Q 176.4 91.2, 177.1 90.6 Q 177.7 90.1, 178.0 89.5 Q 178.3 89.0, 178.3 88.5 Q 178.3 87.9, 178.0 87.6 Q 177.8 87.3, 177.3 87.3 Q 176.8 87.3, 176.5 87.5 Q 176.2 87.7, 176.0 88.1 L 175.4 87.8 " fill="#0000FF"/>
<path class="bond-0 atom-0 atom-1" d="M 324.2,132.6 L 312.5,104.1" style="fill:none;fill-rule:evenodd;stroke:#000000;stroke-width:2.0px;stroke-linecap:butt;stroke-linejoin:miter;stroke-opacity:1"/>
<path class="bond-1 atom-1 atom-2" d="M 312.5,104.1 L 319.8,94.6" style="fill:none;fill-rule:evenodd;stroke:#000000;stroke-width:2.0px;stroke-linecap:butt;stroke-linejoin:miter;stroke-opacity:1"/>
<path class="bond-1 atom-1 atom-2" d="M 319.8,94.6 L 327.1,85.1" style="fill:none;fill-rule:evenodd;stroke:#0000FF;stroke-width:2.0px;stroke-linecap:butt;stroke-linejoin:miter;stroke-opacity:1"/>
<path class="bond-2 atom-2 atom-3" d="M 335.6,80.3 L 357.5,83.2" style="fill:none;fill-rule:evenodd;stroke:#0000FF;stroke-width:2.0px;stroke-linecap:butt;stroke-linejoin:miter;stroke-opacity:1"/>
<path class="bond-3 atom-1 atom-4" d="M 312.5,104.1 L 281.9,100.0" style="fill:none;fill-rule:evenodd;stroke:#000000;stroke-width:2.0px;stroke-linecap:butt;stroke-linejoin:miter;stroke-opacity:1"/>
<path class="bond-4 atom-4 atom-5" d="M 281.9,100.0 L 263.1,124.4" style="fill:none;fill-rule:evenodd;stroke:#000000;stroke-width:2.0px;stroke-linecap:butt;stroke-linejoin:miter;stroke-opacity:1"/>
<path class="bond-4 atom-4 atom-5" d="M 276.6,99.3 L 261.0,119.5" style="fill:none;fill-rule:evenodd;stroke:#000000;stroke-width:2.0px;stroke-linecap:butt;stroke-linejoin:miter;stroke-opacity:1"/>
<path class="bond-5 atom-5 atom-6" d="M 263.1,124.4 L 232.5,120.3" style="fill:none;fill-rule:evenodd;stroke:#000000;stroke-width:2.0px;stroke-linecap:butt;stroke-linejoin:miter;stroke-opacity:1"/>
<path class="bond-6 atom-6 atom-7" d="M 232.5,120.3 L 220.8,91.8" style="fill:none;fill-rule:evenodd;stroke:#000000;stroke-width:2.0px;stroke-linecap:butt;stroke-linejoin:miter;stroke-opacity:1"/>
<path class="bond-6 atom-6 atom-7" d="M 235.8,116.1 L 226.1,92.5" style="fill:none;fill-rule:evenodd;stroke:#000000;stroke-width:2.0px;stroke-linecap:butt;stroke-linejoin:miter;stroke-opacity:1"/>
<path class="bond-7 atom-7 atom-8" d="M 220.8,91.8 L 239.6,67.4" style="fill:none;fill-rule:evenodd;stroke:#000000;stroke-width:2.0px;stroke-linecap:butt;stroke-linejoin:miter;stroke-opacity:1"/>
<path class="bond-8 atom-8 atom-9" d="M 239.6,67.4 L 270.2,71.5" style="fill:none;fill-rule:evenodd;stroke:#000000;stroke-width:2.0px;stroke-linecap:butt;stroke-linejoin:miter;stroke-opacity:1"/>
<path class="bond-8 atom-8 atom-9" d="M 241.6,72.3 L 266.9,75.7" style="fill:none;fill-rule:evenodd;stroke:#000000;stroke-width:2.0px;stroke-linecap:butt;stroke-linejoin:miter;stroke-opacity:1"/>
<path class="bond-9 atom-9 atom-4" d="M 270.2,71.5 L 281.9,100.0" style="fill:none;fill-rule:evenodd;stroke:#000000;stroke-width:2.0px;stroke-linecap:butt;stroke-linejoin:miter;stroke-opacity:1"/>
<path d="M 264.0,123.2 L 263.1,124.4 L 261.5,124.2" style="fill:none;stroke:#000000;stroke-width:2.0px;stroke-linecap:butt;stroke-linejoin:miter;stroke-opacity:1;"/>
<path d="M 234.0,120.5 L 232.5,120.3 L 231.9,118.9" style="fill:none;stroke:#000000;stroke-width:2.0px;stroke-linecap:butt;stroke-linejoin:miter;stroke-opacity:1;"/>
<path d="M 221.4,93.2 L 220.8,91.8 L 221.7,90.6" style="fill:none;stroke:#000000;stroke-width:2.0px;stroke-linecap:butt;stroke-linejoin:miter;stroke-opacity:1;"/>
<path d="M 238.7,68.6 L 239.6,67.4 L 241.1,67.6" style="fill:none;stroke:#000000;stroke-width:2.0px;stroke-linecap:butt;stroke-linejoin:miter;stroke-opacity:1;"/>
<path d="M 268.6,71.3 L 270.2,71.5 L 270.7,72.9" style="fill:none;stroke:#000000;stroke-width:2.0px;stroke-linecap:butt;stroke-linejoin:miter;stroke-opacity:1;"/>
<path class="atom-2" d="M 319.4 75.3 L 320.6 75.3 L 320.6 79.0 L 325.1 79.0 L 325.1 75.3 L 326.2 75.3 L 326.2 84.0 L 325.1 84.0 L 325.1 80.0 L 320.6 80.0 L 320.6 84.0 L 319.4 84.0 L 319.4 75.3 " fill="#0000FF"/>
<path class="atom-2" d="M 329.3 75.3 L 332.2 79.9 Q 332.5 80.4, 332.9 81.2 Q 333.4 82.0, 333.4 82.1 L 333.4 75.3 L 334.6 75.3 L 334.6 84.0 L 333.4 84.0 L 330.3 79.0 Q 330.0 78.4, 329.6 77.7 Q 329.2 77.0, 329.1 76.8 L 329.1 84.0 L 328.0 84.0 L 328.0 75.3 L 329.3 75.3 " fill="#0000FF"/>
<path class="atom-3" d="M 359.9 79.4 L 362.8 84.0 Q 363.1 84.5, 363.5 85.3 Q 364.0 86.1, 364.0 86.2 L 364.0 79.4 L 365.1 79.4 L 365.1 88.1 L 364.0 88.1 L 360.9 83.1 Q 360.5 82.5, 360.1 81.8 Q 359.8 81.1, 359.7 80.9 L 359.7 88.1 L 358.5 88.1 L 358.5 79.4 L 359.9 79.4 " fill="#0000FF"/>
<path class="atom-3" d="M 366.8 79.4 L 368.0 79.4 L 368.0 83.1 L 372.5 83.1 L 372.5 79.4 L 373.7 79.4 L 373.7 88.1 L 372.5 88.1 L 372.5 84.1 L 368.0 84.1 L 368.0 88.1 L 366.8 88.1 L 366.8 79.4 " fill="#0000FF"/>
<path class="atom-3" d="M 375.4 87.8 Q 375.6 87.3, 376.1 87.0 Q 376.6 86.7, 377.3 86.7 Q 378.2 86.7, 378.6 87.1 Q 379.1 87.6, 379.1 88.5 Q 379.1 89.3, 378.5 90.1 Q 377.9 90.9, 376.6 91.9 L 379.2 91.9 L 379.2 92.5 L 375.3 92.5 L 375.3 92.0 Q 376.4 91.2, 377.1 90.6 Q 377.7 90.1, 378.0 89.5 Q 378.3 89.0, 378.3 88.5 Q 378.3 87.9, 378.0 87.6 Q 377.8 87.3, 377.3 87.3 Q 376.8 87.3, 376.5 87.5 Q 376.2 87.7, 376.0 88.1 L 375.4 87.8 " fill="#0000FF"/>
<path class="bond-0 atom-0 atom-1" d="M 440.9,119.8 L 454.1,118.2" style="fill:none;fill-rule:evenodd;stroke:#0000FF;stroke-width:2.0px;stroke-linecap:butt;stroke-linejoin:miter;stroke-opacity:1"/>
<path class="bond-0 atom-0 atom-1" d="M 454.1,118.2 L 467.2,116.6" style="fill:none;fill-rule:evenodd;stroke:#000000;stroke-width:2.0px;stroke-linecap:butt;stroke-linejoin:miter;stroke-opacity:1"/>
<path class="bond-0 atom-0 atom-1" d="M 440.4,115.2 L 453.5,113.6" style="fill:none;fill-rule:evenodd;stroke:#0000FF;stroke-width:2.0px;stroke-linecap:butt;stroke-linejoin:miter;stroke-opacity:1"/>
<path class="bond-0 atom-0 atom-1" d="M 453.5,113.6 L 466.7,112.0" style="fill:none;fill-rule:evenodd;stroke:#000000;stroke-width:2.0px;stroke-linecap:butt;stroke-linejoin:miter;stroke-opacity:1"/>
<path class="bond-0 atom-0 atom-1" d="M 441.5,124.4 L 454.6,122.8" style="fill:none;fill-rule:evenodd;stroke:#0000FF;stroke-width:2.0px;stroke-linecap:butt;stroke-linejoin:miter;stroke-opacity:1"/>
<path class="bond-0 atom-0 atom-1" d="M 454.6,122.8 L 467.8,121.2" style="fill:none;fill-rule:evenodd;stroke:#000000;stroke-width:2.0px;stroke-linecap:butt;stroke-linejoin:miter;stroke-opacity:1"/>
<path class="bond-1 atom-1 atom-2" d="M 467.2,116.6 L 497.8,113.0" style="fill:none;fill-rule:evenodd;stroke:#000000;stroke-width:2.0px;stroke-linecap:butt;stroke-linejoin:miter;stroke-opacity:1"/>
<path class="bond-2 atom-2 atom-3" d="M 497.8,113.0 L 514.4,139.0" style="fill:none;fill-rule:evenodd;stroke:#000000;stroke-width:2.0px;stroke-linecap:butt;stroke-linejoin:miter;stroke-opacity:1"/>
<path class="bond-3 atom-3 atom-4" d="M 514.4,139.0 L 545.1,142.2" style="fill:none;fill-rule:evenodd;stroke:#000000;stroke-width:2.0px;stroke-linecap:butt;stroke-linejoin:miter;stroke-opacity:1"/>
<path class="bond-4 atom-4 atom-5" d="M 545.1,142.2 L 566.7,120.3" style="fill:none;fill-rule:evenodd;stroke:#000000;stroke-width:2.0px;stroke-linecap:butt;stroke-linejoin:miter;stroke-opacity:1"/>
<path class="bond-5 atom-5 atom-6" d="M 566.7,120.3 L 563.1,89.7" style="fill:none;fill-rule:evenodd;stroke:#000000;stroke-width:2.0px;stroke-linecap:butt;stroke-linejoin:miter;stroke-opacity:1"/>
<path class="bond-6 atom-6 atom-7" d="M 563.1,89.7 L 536.8,73.4" style="fill:none;fill-rule:evenodd;stroke:#000000;stroke-width:2.0px;stroke-linecap:butt;stroke-linejoin:miter;stroke-opacity:1"/>
<path class="bond-7 atom-7 atom-8" d="M 536.8,73.4 L 507.8,83.8" style="fill:none;fill-rule:evenodd;stroke:#000000;stroke-width:2.0px;stroke-linecap:butt;stroke-linejoin:miter;stroke-opacity:1"/>
<path class="bond-8 atom-8 atom-9" d="M 507.8,83.8 L 499.0,75.1" style="fill:none;fill-rule:evenodd;stroke:#000000;stroke-width:2.0px;stroke-linecap:butt;stroke-linejoin:miter;stroke-opacity:1"/>
<path class="bond-8 atom-8 atom-9" d="M 499.0,75.1 L 490.2,66.4" style="fill:none;fill-rule:evenodd;stroke:#0000FF;stroke-width:2.0px;stroke-linecap:butt;stroke-linejoin:miter;stroke-opacity:1"/>
<path class="bond-9 atom-8 atom-2" d="M 507.8,83.8 L 497.8,113.0" style="fill:none;fill-rule:evenodd;stroke:#000000;stroke-width:2.0px;stroke-linecap:butt;stroke-linejoin:miter;stroke-opacity:1"/>
<path d="M 466.6,116.7 L 467.2,116.6 L 468.7,116.4" style="fill:none;stroke:#000000;stroke-width:2.0px;stroke-linecap:butt;stroke-linejoin:miter;stroke-opacity:1;"/>
<path d="M 513.6,137.7 L 514.4,139.0 L 515.9,139.1" style="fill:none;stroke:#000000;stroke-width:2.0px;stroke-linecap:butt;stroke-linejoin:miter;stroke-opacity:1;"/>
<path d="M 543.5,142.1 L 545.1,142.2 L 546.1,141.1" style="fill:none;stroke:#000000;stroke-width:2.0px;stroke-linecap:butt;stroke-linejoin:miter;stroke-opacity:1;"/>
<path d="M 565.6,121.4 L 566.7,120.3 L 566.5,118.7" style="fill:none;stroke:#000000;stroke-width:2.0px;stroke-linecap:butt;stroke-linejoin:miter;stroke-opacity:1;"/>
<path d="M 563.2,91.2 L 563.1,89.7 L 561.8,88.8" style="fill:none;stroke:#000000;stroke-width:2.0px;stroke-linecap:butt;stroke-linejoin:miter;stroke-opacity:1;"/>
<path d="M 538.2,74.2 L 536.8,73.4 L 535.4,73.9" style="fill:none;stroke:#000000;stroke-width:2.0px;stroke-linecap:butt;stroke-linejoin:miter;stroke-opacity:1;"/>
<path class="atom-0" d="M 434.7 115.9 L 437.5 120.5 Q 437.8 121.0, 438.3 121.8 Q 438.7 122.7, 438.7 122.7 L 438.7 115.9 L 439.9 115.9 L 439.9 124.7 L 438.7 124.7 L 435.6 119.6 Q 435.3 119.0, 434.9 118.3 Q 434.5 117.6, 434.4 117.4 L 434.4 124.7 L 433.3 124.7 L 433.3 115.9 L 434.7 115.9 " fill="#0000FF"/>
<path class="atom-9" d="M 469.0 57.8 L 470.2 57.8 L 470.2 61.5 L 474.7 61.5 L 474.7 57.8 L 475.8 57.8 L 475.8 66.5 L 474.7 66.5 L 474.7 62.5 L 470.2 62.5 L 470.2 66.5 L 469.0 66.5 L 469.0 57.8 " fill="#0000FF"/>
<path class="atom-9" d="M 477.6 66.2 Q 477.8 65.7, 478.3 65.4 Q 478.8 65.1, 479.5 65.1 Q 480.3 65.1, 480.8 65.5 Q 481.3 66.0, 481.3 66.8 Q 481.3 67.7, 480.7 68.5 Q 480.1 69.3, 478.8 70.2 L 481.4 70.2 L 481.4 70.9 L 477.5 70.9 L 477.5 70.3 Q 478.6 69.6, 479.2 69.0 Q 479.9 68.4, 480.2 67.9 Q 480.5 67.4, 480.5 66.9 Q 480.5 66.3, 480.2 66.0 Q 480.0 65.7, 479.5 65.7 Q 479.0 65.7, 478.7 65.9 Q 478.4 66.1, 478.2 66.5 L 477.6 66.2 " fill="#0000FF"/>
<path class="atom-9" d="M 483.9 57.8 L 486.8 62.4 Q 487.1 62.9, 487.5 63.7 Q 488.0 64.5, 488.0 64.6 L 488.0 57.8 L 489.2 57.8 L 489.2 66.5 L 488.0 66.5 L 484.9 61.5 Q 484.6 60.9, 484.2 60.2 Q 483.8 59.5, 483.7 59.3 L 483.7 66.5 L 482.6 66.5 L 482.6 57.8 L 483.9 57.8 " fill="#0000FF"/>
<path class="bond-0 atom-0 atom-1" d="M 628.4,110.1 L 640.8,105.8" style="fill:none;fill-rule:evenodd;stroke:#000000;stroke-width:2.0px;stroke-linecap:butt;stroke-linejoin:miter;stroke-opacity:1"/>
<path class="bond-0 atom-0 atom-1" d="M 640.8,105.8 L 653.2,101.5" style="fill:none;fill-rule:evenodd;stroke:#0000FF;stroke-width:2.0px;stroke-linecap:butt;stroke-linejoin:miter;stroke-opacity:1"/>
<path class="bond-1 atom-1 atom-2" d="M 658.6,94.6 L 661.0,82.2" style="fill:none;fill-rule:evenodd;stroke:#0000FF;stroke-width:2.0px;stroke-linecap:butt;stroke-linejoin:miter;stroke-opacity:1"/>
<path class="bond-1 atom-1 atom-2" d="M 661.0,82.2 L 663.4,69.7" style="fill:none;fill-rule:evenodd;stroke:#000000;stroke-width:2.0px;stroke-linecap:butt;stroke-linejoin:miter;stroke-opacity:1"/>
<path class="bond-2 atom-1 atom-3" d="M 661.9,103.7 L 671.4,112.0" style="fill:none;fill-rule:evenodd;stroke:#0000FF;stroke-width:2.0px;stroke-linecap:butt;stroke-linejoin:miter;stroke-opacity:1"/>
<path class="bond-2 atom-1 atom-3" d="M 671.4,112.0 L 680.9,120.2" style="fill:none;fill-rule:evenodd;stroke:#000000;stroke-width:2.0px;stroke-linecap:butt;stroke-linejoin:miter;stroke-opacity:1"/>
<path class="bond-3 atom-3 atom-4" d="M 680.9,120.2 L 710.0,110.1" style="fill:none;fill-rule:evenodd;stroke:#000000;stroke-width:2.0px;stroke-linecap:butt;stroke-linejoin:miter;stroke-opacity:1"/>
<path class="bond-4 atom-4 atom-5" d="M 710.0,110.1 L 715.8,79.8" style="fill:none;fill-rule:evenodd;stroke:#000000;stroke-width:2.0px;stroke-linecap:butt;stroke-linejoin:miter;stroke-opacity:1"/>
<path class="bond-4 atom-4 atom-5" d="M 715.0,108.3 L 719.9,83.3" style="fill:none;fill-rule:evenodd;stroke:#000000;stroke-width:2.0px;stroke-linecap:butt;stroke-linejoin:miter;stroke-opacity:1"/>
<path class="bond-5 atom-5 atom-6" d="M 715.8,79.8 L 745.0,69.7" style="fill:none;fill-rule:evenodd;stroke:#000000;stroke-width:2.0px;stroke-linecap:butt;stroke-linejoin:miter;stroke-opacity:1"/>
<path class="bond-6 atom-6 atom-7" d="M 745.0,69.7 L 754.4,77.9" style="fill:none;fill-rule:evenodd;stroke:#000000;stroke-width:2.0px;stroke-linecap:butt;stroke-linejoin:miter;stroke-opacity:1"/>
<path class="bond-6 atom-6 atom-7" d="M 754.4,77.9 L 763.9,86.2" style="fill:none;fill-rule:evenodd;stroke:#0000FF;stroke-width:2.0px;stroke-linecap:butt;stroke-linejoin:miter;stroke-opacity:1"/>
<path class="bond-6 atom-6 atom-7" d="M 743.9,75.0 L 752.4,82.3" style="fill:none;fill-rule:evenodd;stroke:#000000;stroke-width:2.0px;stroke-linecap:butt;stroke-linejoin:miter;stroke-opacity:1"/>
<path class="bond-6 atom-6 atom-7" d="M 752.4,82.3 L 760.9,89.7" style="fill:none;fill-rule:evenodd;stroke:#0000FF;stroke-width:2.0px;stroke-linecap:butt;stroke-linejoin:miter;stroke-opacity:1"/>
<path class="bond-7 atom-7 atom-8" d="M 767.2,95.3 L 764.8,107.7" style="fill:none;fill-rule:evenodd;stroke:#0000FF;stroke-width:2.0px;stroke-linecap:butt;stroke-linejoin:miter;stroke-opacity:1"/>
<path class="bond-7 atom-7 atom-8" d="M 764.8,107.7 L 762.4,120.2" style="fill:none;fill-rule:evenodd;stroke:#000000;stroke-width:2.0px;stroke-linecap:butt;stroke-linejoin:miter;stroke-opacity:1"/>
<path class="bond-8 atom-8 atom-9" d="M 762.4,120.2 L 733.3,130.3" style="fill:none;fill-rule:evenodd;stroke:#000000;stroke-width:2.0px;stroke-linecap:butt;stroke-linejoin:miter;stroke-opacity:1"/>
<path class="bond-8 atom-8 atom-9" d="M 758.4,116.7 L 734.3,125.0" style="fill:none;fill-rule:evenodd;stroke:#000000;stroke-width:2.0px;stroke-linecap:butt;stroke-linejoin:miter;stroke-opacity:1"/>
<path class="bond-9 atom-9 atom-4" d="M 733.3,130.3 L 710.0,110.1" style="fill:none;fill-rule:evenodd;stroke:#000000;stroke-width:2.0px;stroke-linecap:butt;stroke-linejoin:miter;stroke-opacity:1"/>
<path d="M 680.4,119.8 L 680.9,120.2 L 682.3,119.7" style="fill:none;stroke:#000000;stroke-width:2.0px;stroke-linecap:butt;stroke-linejoin:miter;stroke-opacity:1;"/>
<path d="M 715.5,81.3 L 715.8,79.8 L 717.3,79.3" style="fill:none;stroke:#000000;stroke-width:2.0px;stroke-linecap:butt;stroke-linejoin:miter;stroke-opacity:1;"/>
<path d="M 743.5,70.2 L 745.0,69.7 L 745.4,70.1" style="fill:none;stroke:#000000;stroke-width:2.0px;stroke-linecap:butt;stroke-linejoin:miter;stroke-opacity:1;"/>
<path d="M 762.6,119.6 L 762.4,120.2 L 761.0,120.7" style="fill:none;stroke:#000000;stroke-width:2.0px;stroke-linecap:butt;stroke-linejoin:miter;stroke-opacity:1;"/>
<path d="M 734.8,129.8 L 733.3,130.3 L 732.1,129.3" style="fill:none;stroke:#000000;stroke-width:2.0px;stroke-linecap:butt;stroke-linejoin:miter;stroke-opacity:1;"/>
<path class="atom-1" d="M 655.6 95.6 L 658.5 100.3 Q 658.8 100.7, 659.2 101.5 Q 659.7 102.4, 659.7 102.4 L 659.7 95.6 L 660.9 95.6 L 660.9 104.4 L 659.7 104.4 L 656.6 99.3 Q 656.2 98.7, 655.9 98.0 Q 655.5 97.4, 655.4 97.2 L 655.4 104.4 L 654.2 104.4 L 654.2 95.6 L 655.6 95.6 " fill="#0000FF"/>
<path class="atom-7" d="M 766.3 85.5 L 769.2 90.2 Q 769.5 90.6, 769.9 91.4 Q 770.4 92.3, 770.4 92.3 L 770.4 85.5 L 771.6 85.5 L 771.6 94.3 L 770.4 94.3 L 767.3 89.2 Q 767.0 88.6, 766.6 87.9 Q 766.2 87.3, 766.1 87.1 L 766.1 94.3 L 765.0 94.3 L 765.0 85.5 L 766.3 85.5 " fill="#0000FF"/>
<path class="bond-0 atom-0 atom-1" d="M 831.2,92.8 L 845.7,105.6" style="fill:none;fill-rule:evenodd;stroke:#0000FF;stroke-width:2.0px;stroke-linecap:butt;stroke-linejoin:miter;stroke-opacity:1"/>
<path class="bond-1 atom-1 atom-2" d="M 854.4,107.9 L 866.8,103.7" style="fill:none;fill-rule:evenodd;stroke:#0000FF;stroke-width:2.0px;stroke-linecap:butt;stroke-linejoin:miter;stroke-opacity:1"/>
<path class="bond-1 atom-1 atom-2" d="M 866.8,103.7 L 879.2,99.5" style="fill:none;fill-rule:evenodd;stroke:#000000;stroke-width:2.0px;stroke-linecap:butt;stroke-linejoin:miter;stroke-opacity:1"/>
<path class="bond-2 atom-2 atom-3" d="M 879.2,99.5 L 902.4,119.8" style="fill:none;fill-rule:evenodd;stroke:#000000;stroke-width:2.0px;stroke-linecap:butt;stroke-linejoin:miter;stroke-opacity:1"/>
<path class="bond-3 atom-3 atom-4" d="M 902.4,119.8 L 931.6,109.9" style="fill:none;fill-rule:evenodd;stroke:#000000;stroke-width:2.0px;stroke-linecap:butt;stroke-linejoin:miter;stroke-opacity:1"/>
<path class="bond-4 atom-4 atom-5" d="M 931.6,109.9 L 937.6,79.7" style="fill:none;fill-rule:evenodd;stroke:#000000;stroke-width:2.0px;stroke-linecap:butt;stroke-linejoin:miter;stroke-opacity:1"/>
<path class="bond-4 atom-4 atom-5" d="M 936.7,108.2 L 941.6,83.2" style="fill:none;fill-rule:evenodd;stroke:#000000;stroke-width:2.0px;stroke-linecap:butt;stroke-linejoin:miter;stroke-opacity:1"/>
<path class="bond-5 atom-5 atom-6" d="M 937.6,79.7 L 966.8,69.8" style="fill:none;fill-rule:evenodd;stroke:#000000;stroke-width:2.0px;stroke-linecap:butt;stroke-linejoin:miter;stroke-opacity:1"/>
<path class="bond-6 atom-6 atom-7" d="M 966.8,69.8 L 990.0,90.1" style="fill:none;fill-rule:evenodd;stroke:#000000;stroke-width:2.0px;stroke-linecap:butt;stroke-linejoin:miter;stroke-opacity:1"/>
<path class="bond-6 atom-6 atom-7" d="M 965.8,75.0 L 984.9,91.8" style="fill:none;fill-rule:evenodd;stroke:#000000;stroke-width:2.0px;stroke-linecap:butt;stroke-linejoin:miter;stroke-opacity:1"/>
<path class="bond-7 atom-7 atom-8" d="M 990.0,90.1 L 984.0,120.3" style="fill:none;fill-rule:evenodd;stroke:#000000;stroke-width:2.0px;stroke-linecap:butt;stroke-linejoin:miter;stroke-opacity:1"/>
<path class="bond-8 atom-8 atom-9" d="M 984.0,120.3 L 954.8,130.2" style="fill:none;fill-rule:evenodd;stroke:#000000;stroke-width:2.0px;stroke-linecap:butt;stroke-linejoin:miter;stroke-opacity:1"/>
<path class="bond-8 atom-8 atom-9" d="M 980.0,116.8 L 955.8,125.0" style="fill:none;fill-rule:evenodd;stroke:#000000;stroke-width:2.0px;stroke-linecap:butt;stroke-linejoin:miter;stroke-opacity:1"/>
<path class="bond-9 atom-9 atom-4" d="M 954.8,130.2 L 931.6,109.9" style="fill:none;fill-rule:evenodd;stroke:#000000;stroke-width:2.0px;stroke-linecap:butt;stroke-linejoin:miter;stroke-opacity:1"/>
<path d="M 878.6,99.7 L 879.2,99.5 L 880.4,100.5" style="fill:none;stroke:#000000;stroke-width:2.0px;stroke-linecap:butt;stroke-linejoin:miter;stroke-opacity:1;"/>
<path d="M 901.2,118.8 L 902.4,119.8 L 903.9,119.3" style="fill:none;stroke:#000000;stroke-width:2.0px;stroke-linecap:butt;stroke-linejoin:miter;stroke-opacity:1;"/>
<path d="M 937.3,81.2 L 937.6,79.7 L 939.1,79.2" style="fill:none;stroke:#000000;stroke-width:2.0px;stroke-linecap:butt;stroke-linejoin:miter;stroke-opacity:1;"/>
<path d="M 965.4,70.3 L 966.8,69.8 L 968.0,70.8" style="fill:none;stroke:#000000;stroke-width:2.0px;stroke-linecap:butt;stroke-linejoin:miter;stroke-opacity:1;"/>
<path d="M 988.8,89.1 L 990.0,90.1 L 989.7,91.6" style="fill:none;stroke:#000000;stroke-width:2.0px;stroke-linecap:butt;stroke-linejoin:miter;stroke-opacity:1;"/>
<path d="M 984.3,118.8 L 984.0,120.3 L 982.5,120.8" style="fill:none;stroke:#000000;stroke-width:2.0px;stroke-linecap:butt;stroke-linejoin:miter;stroke-opacity:1;"/>
<path d="M 956.2,129.7 L 954.8,130.2 L 953.6,129.2" style="fill:none;stroke:#000000;stroke-width:2.0px;stroke-linecap:butt;stroke-linejoin:miter;stroke-opacity:1;"/>
<path class="atom-0" d="M 810.0 84.7 L 811.2 84.7 L 811.2 88.4 L 815.6 88.4 L 815.6 84.7 L 816.8 84.7 L 816.8 93.4 L 815.6 93.4 L 815.6 89.4 L 811.2 89.4 L 811.2 93.4 L 810.0 93.4 L 810.0 84.7 " fill="#0000FF"/>
<path class="atom-0" d="M 818.5 93.1 Q 818.8 92.5, 819.3 92.2 Q 819.8 91.9, 820.5 91.9 Q 821.3 91.9, 821.8 92.4 Q 822.3 92.9, 822.3 93.7 Q 822.3 94.6, 821.7 95.4 Q 821.0 96.2, 819.7 97.1 L 822.4 97.1 L 822.4 97.8 L 818.5 97.8 L 818.5 97.2 Q 819.6 96.4, 820.2 95.9 Q 820.9 95.3, 821.2 94.8 Q 821.5 94.3, 821.5 93.7 Q 821.5 93.2, 821.2 92.9 Q 820.9 92.6, 820.5 92.6 Q 820.0 92.6, 819.7 92.8 Q 819.4 93.0, 819.2 93.4 L 818.5 93.1 " fill="#0000FF"/>
<path class="atom-0" d="M 824.9 84.7 L 827.8 89.3 Q 828.1 89.7, 828.5 90.6 Q 829.0 91.4, 829.0 91.4 L 829.0 84.7 L 830.2 84.7 L 830.2 93.4 L 829.0 93.4 L 825.9 88.3 Q 825.5 87.7, 825.2 87.1 Q 824.8 86.4, 824.7 86.2 L 824.7 93.4 L 823.5 93.4 L 823.5 84.7 L 824.9 84.7 " fill="#0000FF"/>
<path class="atom-1" d="M 848.1 105.0 L 851.0 109.6 Q 851.2 110.1, 851.7 110.9 Q 852.2 111.7, 852.2 111.8 L 852.2 105.0 L 853.3 105.0 L 853.3 113.7 L 852.1 113.7 L 849.1 108.7 Q 848.7 108.1, 848.3 107.4 Q 848.0 106.7, 847.8 106.5 L 847.8 113.7 L 846.7 113.7 L 846.7 105.0 L 848.1 105.0 " fill="#0000FF"/>
<path class="atom-1" d="M 846.6 114.6 L 847.8 114.6 L 847.8 118.3 L 852.3 118.3 L 852.3 114.6 L 853.4 114.6 L 853.4 123.3 L 852.3 123.3 L 852.3 119.3 L 847.8 119.3 L 847.8 123.3 L 846.6 123.3 L 846.6 114.6 " fill="#0000FF"/>
<path class="bond-0 atom-0 atom-1" d="M 1018.4,89.0 L 1041.6,109.4" style="fill:none;fill-rule:evenodd;stroke:#000000;stroke-width:2.0px;stroke-linecap:butt;stroke-linejoin:miter;stroke-opacity:1"/>
<path class="bond-1 atom-1 atom-2" d="M 1041.6,109.4 L 1054.0,105.1" style="fill:none;fill-rule:evenodd;stroke:#000000;stroke-width:2.0px;stroke-linecap:butt;stroke-linejoin:miter;stroke-opacity:1"/>
<path class="bond-1 atom-1 atom-2" d="M 1054.0,105.1 L 1066.5,100.9" style="fill:none;fill-rule:evenodd;stroke:#0000FF;stroke-width:2.0px;stroke-linecap:butt;stroke-linejoin:miter;stroke-opacity:1"/>
<path class="bond-2 atom-2 atom-3" d="M 1075.1,103.3 L 1084.6,111.5" style="fill:none;fill-rule:evenodd;stroke:#0000FF;stroke-width:2.0px;stroke-linecap:butt;stroke-linejoin:miter;stroke-opacity:1"/>
<path class="bond-2 atom-2 atom-3" d="M 1084.6,111.5 L 1094.0,119.8" style="fill:none;fill-rule:evenodd;stroke:#000000;stroke-width:2.0px;stroke-linecap:butt;stroke-linejoin:miter;stroke-opacity:1"/>
<path class="bond-3 atom-3 atom-4" d="M 1094.0,119.8 L 1123.2,109.9" style="fill:none;fill-rule:evenodd;stroke:#000000;stroke-width:2.0px;stroke-linecap:butt;stroke-linejoin:miter;stroke-opacity:1"/>
<path class="bond-4 atom-4 atom-5" d="M 1123.2,109.9 L 1129.2,79.7" style="fill:none;fill-rule:evenodd;stroke:#000000;stroke-width:2.0px;stroke-linecap:butt;stroke-linejoin:miter;stroke-opacity:1"/>
<path class="bond-4 atom-4 atom-5" d="M 1128.2,108.2 L 1133.2,83.2" style="fill:none;fill-rule:evenodd;stroke:#000000;stroke-width:2.0px;stroke-linecap:butt;stroke-linejoin:miter;stroke-opacity:1"/>
<path class="bond-5 atom-5 atom-6" d="M 1129.2,79.7 L 1158.4,69.8" style="fill:none;fill-rule:evenodd;stroke:#000000;stroke-width:2.0px;stroke-linecap:butt;stroke-linejoin:miter;stroke-opacity:1"/>
<path class="bond-6 atom-6 atom-7" d="M 1158.4,69.8 L 1181.6,90.1" style="fill:none;fill-rule:evenodd;stroke:#000000;stroke-width:2.0px;stroke-linecap:butt;stroke-linejoin:miter;stroke-opacity:1"/>
<path class="bond-6 atom-6 atom-7" d="M 1157.4,75.0 L 1176.5,91.8" style="fill:none;fill-rule:evenodd;stroke:#000000;stroke-width:2.0px;stroke-linecap:butt;stroke-linejoin:miter;stroke-opacity:1"/>
<path class="bond-7 atom-7 atom-8" d="M 1181.6,90.1 L 1179.1,102.5" style="fill:none;fill-rule:evenodd;stroke:#000000;stroke-width:2.0px;stroke-linecap:butt;stroke-linejoin:miter;stroke-opacity:1"/>
<path class="bond-7 atom-7 atom-8" d="M 1179.1,102.5 L 1176.6,115.0" style="fill:none;fill-rule:evenodd;stroke:#0000FF;stroke-width:2.0px;stroke-linecap:butt;stroke-linejoin:miter;stroke-opacity:1"/>
<path class="bond-8 atom-8 atom-9" d="M 1171.2,121.8 L 1158.8,126.0" style="fill:none;fill-rule:evenodd;stroke:#0000FF;stroke-width:2.0px;stroke-linecap:butt;stroke-linejoin:miter;stroke-opacity:1"/>
<path class="bond-8 atom-8 atom-9" d="M 1158.8,126.0 L 1146.3,130.2" style="fill:none;fill-rule:evenodd;stroke:#000000;stroke-width:2.0px;stroke-linecap:butt;stroke-linejoin:miter;stroke-opacity:1"/>
<path class="bond-8 atom-8 atom-9" d="M 1169.7,117.4 L 1158.6,121.2" style="fill:none;fill-rule:evenodd;stroke:#0000FF;stroke-width:2.0px;stroke-linecap:butt;stroke-linejoin:miter;stroke-opacity:1"/>
<path class="bond-8 atom-8 atom-9" d="M 1158.6,121.2 L 1147.4,125.0" style="fill:none;fill-rule:evenodd;stroke:#000000;stroke-width:2.0px;stroke-linecap:butt;stroke-linejoin:miter;stroke-opacity:1"/>
<path class="bond-9 atom-9 atom-4" d="M 1146.3,130.2 L 1123.2,109.9" style="fill:none;fill-rule:evenodd;stroke:#000000;stroke-width:2.0px;stroke-linecap:butt;stroke-linejoin:miter;stroke-opacity:1"/>
<path d="M 1040.4,108.3 L 1041.6,109.4 L 1042.2,109.1" style="fill:none;stroke:#000000;stroke-width:2.0px;stroke-linecap:butt;stroke-linejoin:miter;stroke-opacity:1;"/>
<path d="M 1093.5,119.4 L 1094.0,119.8 L 1095.4,119.3" style="fill:none;stroke:#000000;stroke-width:2.0px;stroke-linecap:butt;stroke-linejoin:miter;stroke-opacity:1;"/>
<path d="M 1128.9,81.2 L 1129.2,79.7 L 1130.7,79.2" style="fill:none;stroke:#000000;stroke-width:2.0px;stroke-linecap:butt;stroke-linejoin:miter;stroke-opacity:1;"/>
<path d="M 1156.9,70.3 L 1158.4,69.8 L 1159.6,70.8" style="fill:none;stroke:#000000;stroke-width:2.0px;stroke-linecap:butt;stroke-linejoin:miter;stroke-opacity:1;"/>
<path d="M 1180.4,89.1 L 1181.6,90.1 L 1181.4,90.7" style="fill:none;stroke:#000000;stroke-width:2.0px;stroke-linecap:butt;stroke-linejoin:miter;stroke-opacity:1;"/>
<path d="M 1147.0,130.0 L 1146.3,130.2 L 1145.2,129.2" style="fill:none;stroke:#000000;stroke-width:2.0px;stroke-linecap:butt;stroke-linejoin:miter;stroke-opacity:1;"/>
<path class="atom-2" d="M 1068.9 95.1 L 1071.7 99.7 Q 1072.0 100.2, 1072.5 101.0 Q 1072.9 101.8, 1073.0 101.9 L 1073.0 95.1 L 1074.1 95.1 L 1074.1 103.8 L 1072.9 103.8 L 1069.8 98.8 Q 1069.5 98.2, 1069.1 97.5 Q 1068.7 96.8, 1068.6 96.6 L 1068.6 103.8 L 1067.5 103.8 L 1067.5 95.1 L 1068.9 95.1 " fill="#0000FF"/>
<path class="atom-2" d="M 1067.4 85.5 L 1068.6 85.5 L 1068.6 89.2 L 1073.0 89.2 L 1073.0 85.5 L 1074.2 85.5 L 1074.2 94.2 L 1073.0 94.2 L 1073.0 90.2 L 1068.6 90.2 L 1068.6 94.2 L 1067.4 94.2 L 1067.4 85.5 " fill="#0000FF"/>
<path class="atom-8" d="M 1173.6 116.0 L 1176.5 120.6 Q 1176.8 121.1, 1177.2 121.9 Q 1177.7 122.7, 1177.7 122.8 L 1177.7 116.0 L 1178.9 116.0 L 1178.9 124.7 L 1177.7 124.7 L 1174.6 119.6 Q 1174.2 119.1, 1173.9 118.4 Q 1173.5 117.7, 1173.4 117.5 L 1173.4 124.7 L 1172.2 124.7 L 1172.2 116.0 L 1173.6 116.0 " fill="#0000FF"/>
<path class="bond-0 atom-0 atom-1" d="M 1323.8,69.2 L 1323.8,100.0" style="fill:none;fill-rule:evenodd;stroke:#000000;stroke-width:2.0px;stroke-linecap:butt;stroke-linejoin:miter;stroke-opacity:1"/>
<path class="bond-1 atom-1 atom-2" d="M 1323.8,100.0 L 1323.8,130.8" style="fill:none;fill-rule:evenodd;stroke:#000000;stroke-width:2.0px;stroke-linecap:butt;stroke-linejoin:miter;stroke-opacity:1"/>
<path class="bond-2 atom-1 atom-3" d="M 1323.8,100.0 L 1337.0,100.0" style="fill:none;fill-rule:evenodd;stroke:#000000;stroke-width:2.0px;stroke-linecap:butt;stroke-linejoin:miter;stroke-opacity:1"/>
<path class="bond-2 atom-1 atom-3" d="M 1337.0,100.0 L 1350.3,100.0" style="fill:none;fill-rule:evenodd;stroke:#0000FF;stroke-width:2.0px;stroke-linecap:butt;stroke-linejoin:miter;stroke-opacity:1"/>
<path class="bond-3 atom-1 atom-4" d="M 1323.8,100.0 L 1293.0,100.0" style="fill:none;fill-rule:evenodd;stroke:#000000;stroke-width:2.0px;stroke-linecap:butt;stroke-linejoin:miter;stroke-opacity:1"/>
<path class="bond-4 atom-4 atom-5" d="M 1293.0,100.0 L 1277.5,126.7" style="fill:none;fill-rule:evenodd;stroke:#000000;stroke-width:2.0px;stroke-linecap:butt;stroke-linejoin:miter;stroke-opacity:1"/>
<path class="bond-4 atom-4 atom-5" d="M 1287.6,100.0 L 1274.9,122.1" style="fill:none;fill-rule:evenodd;stroke:#000000;stroke-width:2.0px;stroke-linecap:butt;stroke-linejoin:miter;stroke-opacity:1"/>
<path class="bond-5 atom-5 atom-6" d="M 1277.5,126.7 L 1246.7,126.7" style="fill:none;fill-rule:evenodd;stroke:#000000;stroke-width:2.0px;stroke-linecap:butt;stroke-linejoin:miter;stroke-opacity:1"/>
<path class="bond-6 atom-6 atom-7" d="M 1246.7,126.7 L 1240.6,116.0" style="fill:none;fill-rule:evenodd;stroke:#000000;stroke-width:2.0px;stroke-linecap:butt;stroke-linejoin:miter;stroke-opacity:1"/>
<path class="bond-6 atom-6 atom-7" d="M 1240.6,116.0 L 1234.4,105.4" style="fill:none;fill-rule:evenodd;stroke:#0000FF;stroke-width:2.0px;stroke-linecap:butt;stroke-linejoin:miter;stroke-opacity:1"/>
<path class="bond-6 atom-6 atom-7" d="M 1249.4,122.1 L 1243.9,112.6" style="fill:none;fill-rule:evenodd;stroke:#000000;stroke-width:2.0px;stroke-linecap:butt;stroke-linejoin:miter;stroke-opacity:1"/>
<path class="bond-6 atom-6 atom-7" d="M 1243.9,112.6 L 1238.4,103.1" style="fill:none;fill-rule:evenodd;stroke:#0000FF;stroke-width:2.0px;stroke-linecap:butt;stroke-linejoin:miter;stroke-opacity:1"/>
<path class="bond-7 atom-7 atom-8" d="M 1234.4,94.6 L 1240.6,84.0" style="fill:none;fill-rule:evenodd;stroke:#0000FF;stroke-width:2.0px;stroke-linecap:butt;stroke-linejoin:miter;stroke-opacity:1"/>
<path class="bond-7 atom-7 atom-8" d="M 1240.6,84.0 L 1246.7,73.3" style="fill:none;fill-rule:evenodd;stroke:#000000;stroke-width:2.0px;stroke-linecap:butt;stroke-linejoin:miter;stroke-opacity:1"/>
<path class="bond-8 atom-8 atom-9" d="M 1246.7,73.3 L 1277.5,73.3" style="fill:none;fill-rule:evenodd;stroke:#000000;stroke-width:2.0px;stroke-linecap:butt;stroke-linejoin:miter;stroke-opacity:1"/>
<path class="bond-8 atom-8 atom-9" d="M 1249.4,77.9 L 1274.9,77.9" style="fill:none;fill-rule:evenodd;stroke:#000000;stroke-width:2.0px;stroke-linecap:butt;stroke-linejoin:miter;stroke-opacity:1"/>
<path class="bond-9 atom-9 atom-4" d="M 1277.5,73.3 L 1293.0,100.0" style="fill:none;fill-rule:evenodd;stroke:#000000;stroke-width:2.0px;stroke-linecap:butt;stroke-linejoin:miter;stroke-opacity:1"/>
<path d="M 1278.3,125.4 L 1277.5,126.7 L 1276.0,126.7" style="fill:none;stroke:#000000;stroke-width:2.0px;stroke-linecap:butt;stroke-linejoin:miter;stroke-opacity:1;"/>
<path d="M 1248.3,126.7 L 1246.7,126.7 L 1246.4,126.2" style="fill:none;stroke:#000000;stroke-width:2.0px;stroke-linecap:butt;stroke-linejoin:miter;stroke-opacity:1;"/>
<path d="M 1246.4,73.8 L 1246.7,73.3 L 1248.3,73.3" style="fill:none;stroke:#000000;stroke-width:2.0px;stroke-linecap:butt;stroke-linejoin:miter;stroke-opacity:1;"/>
<path d="M 1276.0,73.3 L 1277.5,73.3 L 1278.3,74.6" style="fill:none;stroke:#000000;stroke-width:2.0px;stroke-linecap:butt;stroke-linejoin:miter;stroke-opacity:1;"/>
<path class="atom-3" d="M 1352.7 95.6 L 1355.6 100.3 Q 1355.8 100.7, 1356.3 101.5 Q 1356.8 102.4, 1356.8 102.4 L 1356.8 95.6 L 1357.9 95.6 L 1357.9 104.4 L 1356.7 104.4 L 1353.7 99.3 Q 1353.3 98.7, 1352.9 98.0 Q 1352.6 97.4, 1352.5 97.2 L 1352.5 104.4 L 1351.3 104.4 L 1351.3 95.6 L 1352.7 95.6 " fill="#0000FF"/>
<path class="atom-3" d="M 1359.6 95.6 L 1360.8 95.6 L 1360.8 99.3 L 1365.3 99.3 L 1365.3 95.6 L 1366.4 95.6 L 1366.4 104.4 L 1365.3 104.4 L 1365.3 100.3 L 1360.8 100.3 L 1360.8 104.4 L 1359.6 104.4 L 1359.6 95.6 " fill="#0000FF"/>
<path class="atom-3" d="M 1368.1 104.1 Q 1368.4 103.5, 1368.9 103.2 Q 1369.4 102.9, 1370.1 102.9 Q 1370.9 102.9, 1371.4 103.4 Q 1371.9 103.8, 1371.9 104.7 Q 1371.9 105.5, 1371.3 106.3 Q 1370.7 107.1, 1369.4 108.1 L 1372.0 108.1 L 1372.0 108.7 L 1368.1 108.7 L 1368.1 108.2 Q 1369.2 107.4, 1369.8 106.9 Q 1370.5 106.3, 1370.8 105.8 Q 1371.1 105.3, 1371.1 104.7 Q 1371.1 104.2, 1370.8 103.9 Q 1370.5 103.6, 1370.1 103.6 Q 1369.6 103.6, 1369.3 103.7 Q 1369.0 103.9, 1368.8 104.3 L 1368.1 104.1 " fill="#0000FF"/>
<path class="atom-7" d="M 1229.4 95.6 L 1232.2 100.3 Q 1232.5 100.7, 1233.0 101.5 Q 1233.4 102.4, 1233.4 102.4 L 1233.4 95.6 L 1234.6 95.6 L 1234.6 104.4 L 1233.4 104.4 L 1230.3 99.3 Q 1230.0 98.7, 1229.6 98.0 Q 1229.2 97.4, 1229.1 97.2 L 1229.1 104.4 L 1228.0 104.4 L 1228.0 95.6 L 1229.4 95.6 " fill="#0000FF"/>
</svg>