<svg xmlns="http://www.w3.org/2000/svg" xmlns:rdkit="http://www.rdkit.org/xml" xmlns:xlink="http://www.w3.org/1999/xlink" version="1.1" baseProfile="full" xml:space="preserve" width="1400px" height="200px" viewBox="0 0 1400 200">
<!-- END OF HEADER -->
<rect style="opacity:1.0;fill:#FFFFFF;stroke:none" width="1400.0" height="200.0" x="0.0" y="0.0"> </rect>
<path class="bond-0 atom-0 atom-1" d="M 190.0,120.3 L 172.6,113.6" style="fill:none;fill-rule:evenodd;stroke:#000000;stroke-width:2.0px;stroke-linecap:butt;stroke-linejoin:miter;stroke-opacity:1"/>
<path class="bond-1 atom-1 atom-2" d="M 172.6,113.6 L 158.1,125.4" style="fill:none;fill-rule:evenodd;stroke:#000000;stroke-width:2.0px;stroke-linecap:butt;stroke-linejoin:miter;stroke-opacity:1"/>
<path class="bond-1 atom-1 atom-2" d="M 169.5,112.5 L 157.6,122.2" style="fill:none;fill-rule:evenodd;stroke:#000000;stroke-width:2.0px;stroke-linecap:butt;stroke-linejoin:miter;stroke-opacity:1"/>
<path class="bond-2 atom-2 atom-3" d="M 158.1,125.4 L 140.6,118.8" style="fill:none;fill-rule:evenodd;stroke:#000000;stroke-width:2.0px;stroke-linecap:butt;stroke-linejoin:miter;stroke-opacity:1"/>
<path class="bond-3 atom-3 atom-4" d="M 140.6,118.8 L 137.7,100.4" style="fill:none;fill-rule:evenodd;stroke:#000000;stroke-width:2.0px;stroke-linecap:butt;stroke-linejoin:miter;stroke-opacity:1"/>
<path class="bond-3 atom-3 atom-4" d="M 143.1,116.7 L 140.7,101.5" style="fill:none;fill-rule:evenodd;stroke:#000000;stroke-width:2.0px;stroke-linecap:butt;stroke-linejoin:miter;stroke-opacity:1"/>
<path class="bond-4 atom-4 atom-5" d="M 137.7,100.4 L 130.1,97.5" style="fill:none;fill-rule:evenodd;stroke:#000000;stroke-width:2.0px;stroke-linecap:butt;stroke-linejoin:miter;stroke-opacity:1"/>
<path class="bond-4 atom-4 atom-5" d="M 130.1,97.5 L 122.5,94.6" style="fill:none;fill-rule:evenodd;stroke:#CCCC00;stroke-width:2.0px;stroke-linecap:butt;stroke-linejoin:miter;stroke-opacity:1"/>
<path class="bond-5 atom-5 atom-6" d="M 122.8,91.0 L 124.8,85.5" style="fill:none;fill-rule:evenodd;stroke:#CCCC00;stroke-width:2.0px;stroke-linecap:butt;stroke-linejoin:miter;stroke-opacity:1"/>
<path class="bond-5 atom-5 atom-6" d="M 124.8,85.5 L 126.9,80.1" style="fill:none;fill-rule:evenodd;stroke:#FF0000;stroke-width:2.0px;stroke-linecap:butt;stroke-linejoin:miter;stroke-opacity:1"/>
<path class="bond-5 atom-5 atom-6" d="M 120.1,90.0 L 122.2,84.6" style="fill:none;fill-rule:evenodd;stroke:#CCCC00;stroke-width:2.0px;stroke-linecap:butt;stroke-linejoin:miter;stroke-opacity:1"/>
<path class="bond-5 atom-5 atom-6" d="M 122.2,84.6 L 124.3,79.1" style="fill:none;fill-rule:evenodd;stroke:#FF0000;stroke-width:2.0px;stroke-linecap:butt;stroke-linejoin:miter;stroke-opacity:1"/>
<path class="bond-6 atom-5 atom-7" d="M 117.6,96.6 L 115.6,102.0" style="fill:none;fill-rule:evenodd;stroke:#CCCC00;stroke-width:2.0px;stroke-linecap:butt;stroke-linejoin:miter;stroke-opacity:1"/>
<path class="bond-6 atom-5 atom-7" d="M 115.6,102.0 L 113.5,107.4" style="fill:none;fill-rule:evenodd;stroke:#FF0000;stroke-width:2.0px;stroke-linecap:butt;stroke-linejoin:miter;stroke-opacity:1"/>
<path class="bond-6 atom-5 atom-7" d="M 120.2,97.6 L 118.2,103.0" style="fill:none;fill-rule:evenodd;stroke:#CCCC00;stroke-width:2.0px;stroke-linecap:butt;stroke-linejoin:miter;stroke-opacity:1"/>
<path class="bond-6 atom-5 atom-7" d="M 118.2,103.0 L 116.1,108.4" style="fill:none;fill-rule:evenodd;stroke:#FF0000;stroke-width:2.0px;stroke-linecap:butt;stroke-linejoin:miter;stroke-opacity:1"/>
<path class="bond-7 atom-5 atom-8" d="M 117.9,92.8 L 111.6,90.5" style="fill:none;fill-rule:evenodd;stroke:#CCCC00;stroke-width:2.0px;stroke-linecap:butt;stroke-linejoin:miter;stroke-opacity:1"/>
<path class="bond-7 atom-5 atom-8" d="M 111.6,90.5 L 105.4,88.1" style="fill:none;fill-rule:evenodd;stroke:#0000FF;stroke-width:2.0px;stroke-linecap:butt;stroke-linejoin:miter;stroke-opacity:1"/>
<path class="bond-8 atom-8 atom-9" d="M 100.2,89.2 L 94.2,94.0" style="fill:none;fill-rule:evenodd;stroke:#0000FF;stroke-width:2.0px;stroke-linecap:butt;stroke-linejoin:miter;stroke-opacity:1"/>
<path class="bond-8 atom-8 atom-9" d="M 94.2,94.0 L 88.3,98.9" style="fill:none;fill-rule:evenodd;stroke:#000000;stroke-width:2.0px;stroke-linecap:butt;stroke-linejoin:miter;stroke-opacity:1"/>
<path class="bond-9 atom-9 atom-10" d="M 88.3,98.9 L 70.9,92.2" style="fill:none;fill-rule:evenodd;stroke:#000000;stroke-width:2.0px;stroke-linecap:butt;stroke-linejoin:miter;stroke-opacity:1"/>
<path class="bond-10 atom-10 atom-11" d="M 70.9,92.2 L 56.4,104.0" style="fill:none;fill-rule:evenodd;stroke:#000000;stroke-width:2.0px;stroke-linecap:butt;stroke-linejoin:miter;stroke-opacity:1"/>
<path class="bond-11 atom-11 atom-12" d="M 56.4,104.0 L 49.0,101.2" style="fill:none;fill-rule:evenodd;stroke:#000000;stroke-width:2.0px;stroke-linecap:butt;stroke-linejoin:miter;stroke-opacity:1"/>
<path class="bond-11 atom-11 atom-12" d="M 49.0,101.2 L 41.6,98.4" style="fill:none;fill-rule:evenodd;stroke:#0000FF;stroke-width:2.0px;stroke-linecap:butt;stroke-linejoin:miter;stroke-opacity:1"/>
<path class="bond-12 atom-12 atom-13" d="M 36.3,99.5 L 31.5,103.4" style="fill:none;fill-rule:evenodd;stroke:#0000FF;stroke-width:2.0px;stroke-linecap:butt;stroke-linejoin:miter;stroke-opacity:1"/>
<path class="bond-12 atom-12 atom-13" d="M 31.5,103.4 L 26.8,107.3" style="fill:none;fill-rule:evenodd;stroke:#CCCC00;stroke-width:2.0px;stroke-linecap:butt;stroke-linejoin:miter;stroke-opacity:1"/>
<path class="bond-13 atom-13 atom-14" d="M 22.2,111.1 L 16.1,116.0" style="fill:none;fill-rule:evenodd;stroke:#CCCC00;stroke-width:2.0px;stroke-linecap:butt;stroke-linejoin:miter;stroke-opacity:1"/>
<path class="bond-13 atom-13 atom-14" d="M 16.1,116.0 L 10.0,121.0" style="fill:none;fill-rule:evenodd;stroke:#000000;stroke-width:2.0px;stroke-linecap:butt;stroke-linejoin:miter;stroke-opacity:1"/>
<path class="bond-14 atom-13 atom-15" d="M 25.7,112.9 L 29.1,117.1" style="fill:none;fill-rule:evenodd;stroke:#CCCC00;stroke-width:2.0px;stroke-linecap:butt;stroke-linejoin:miter;stroke-opacity:1"/>
<path class="bond-14 atom-13 atom-15" d="M 29.1,117.1 L 32.5,121.2" style="fill:none;fill-rule:evenodd;stroke:#FF0000;stroke-width:2.0px;stroke-linecap:butt;stroke-linejoin:miter;stroke-opacity:1"/>
<path class="bond-14 atom-13 atom-15" d="M 27.9,111.1 L 31.3,115.3" style="fill:none;fill-rule:evenodd;stroke:#CCCC00;stroke-width:2.0px;stroke-linecap:butt;stroke-linejoin:miter;stroke-opacity:1"/>
<path class="bond-14 atom-13 atom-15" d="M 31.3,115.3 L 34.7,119.5" style="fill:none;fill-rule:evenodd;stroke:#FF0000;stroke-width:2.0px;stroke-linecap:butt;stroke-linejoin:miter;stroke-opacity:1"/>
<path class="bond-15 atom-13 atom-16" d="M 23.2,105.5 L 19.9,101.3" style="fill:none;fill-rule:evenodd;stroke:#CCCC00;stroke-width:2.0px;stroke-linecap:butt;stroke-linejoin:miter;stroke-opacity:1"/>
<path class="bond-15 atom-13 atom-16" d="M 19.9,101.3 L 16.5,97.2" style="fill:none;fill-rule:evenodd;stroke:#FF0000;stroke-width:2.0px;stroke-linecap:butt;stroke-linejoin:miter;stroke-opacity:1"/>
<path class="bond-15 atom-13 atom-16" d="M 21.1,107.2 L 17.7,103.1" style="fill:none;fill-rule:evenodd;stroke:#CCCC00;stroke-width:2.0px;stroke-linecap:butt;stroke-linejoin:miter;stroke-opacity:1"/>
<path class="bond-15 atom-13 atom-16" d="M 17.7,103.1 L 14.3,99.0" style="fill:none;fill-rule:evenodd;stroke:#FF0000;stroke-width:2.0px;stroke-linecap:butt;stroke-linejoin:miter;stroke-opacity:1"/>
<path class="bond-16 atom-4 atom-17" d="M 137.7,100.4 L 152.1,88.6" style="fill:none;fill-rule:evenodd;stroke:#000000;stroke-width:2.0px;stroke-linecap:butt;stroke-linejoin:miter;stroke-opacity:1"/>
<path class="bond-17 atom-17 atom-18" d="M 152.1,88.6 L 169.6,95.2" style="fill:none;fill-rule:evenodd;stroke:#000000;stroke-width:2.0px;stroke-linecap:butt;stroke-linejoin:miter;stroke-opacity:1"/>
<path class="bond-17 atom-17 atom-18" d="M 152.6,91.8 L 167.1,97.2" style="fill:none;fill-rule:evenodd;stroke:#000000;stroke-width:2.0px;stroke-linecap:butt;stroke-linejoin:miter;stroke-opacity:1"/>
<path class="bond-18 atom-18 atom-1" d="M 169.6,95.2 L 172.6,113.6" style="fill:none;fill-rule:evenodd;stroke:#000000;stroke-width:2.0px;stroke-linecap:butt;stroke-linejoin:miter;stroke-opacity:1"/>
<path d="M 158.8,124.8 L 158.1,125.4 L 157.2,125.1" style="fill:none;stroke:#000000;stroke-width:2.0px;stroke-linecap:butt;stroke-linejoin:miter;stroke-opacity:1;"/>
<path d="M 141.5,119.1 L 140.6,118.8 L 140.5,117.9" style="fill:none;stroke:#000000;stroke-width:2.0px;stroke-linecap:butt;stroke-linejoin:miter;stroke-opacity:1;"/>
<path d="M 88.6,98.6 L 88.3,98.9 L 87.4,98.5" style="fill:none;stroke:#000000;stroke-width:2.0px;stroke-linecap:butt;stroke-linejoin:miter;stroke-opacity:1;"/>
<path d="M 71.7,92.6 L 70.9,92.2 L 70.1,92.8" style="fill:none;stroke:#000000;stroke-width:2.0px;stroke-linecap:butt;stroke-linejoin:miter;stroke-opacity:1;"/>
<path d="M 57.1,103.4 L 56.4,104.0 L 56.0,103.9" style="fill:none;stroke:#000000;stroke-width:2.0px;stroke-linecap:butt;stroke-linejoin:miter;stroke-opacity:1;"/>
<path d="M 151.4,89.1 L 152.1,88.6 L 153.0,88.9" style="fill:none;stroke:#000000;stroke-width:2.0px;stroke-linecap:butt;stroke-linejoin:miter;stroke-opacity:1;"/>
<path d="M 168.7,94.9 L 169.6,95.2 L 169.7,96.1" style="fill:none;stroke:#000000;stroke-width:2.0px;stroke-linecap:butt;stroke-linejoin:miter;stroke-opacity:1;"/>
<path class="atom-5" d="M 118.7 95.5 Q 118.8 95.6, 119.0 95.7 Q 119.3 95.8, 119.5 95.8 Q 119.8 95.9, 120.1 95.9 Q 120.6 95.9, 120.9 95.6 Q 121.2 95.4, 121.2 95.0 Q 121.2 94.7, 121.0 94.5 Q 120.9 94.3, 120.7 94.2 Q 120.4 94.1, 120.1 94.0 Q 119.6 93.9, 119.3 93.7 Q 119.0 93.6, 118.8 93.3 Q 118.6 93.0, 118.6 92.6 Q 118.6 91.9, 119.1 91.5 Q 119.5 91.1, 120.4 91.1 Q 121.0 91.1, 121.7 91.4 L 121.6 91.9 Q 120.9 91.7, 120.5 91.7 Q 119.9 91.7, 119.7 91.9 Q 119.4 92.1, 119.4 92.5 Q 119.4 92.8, 119.5 92.9 Q 119.7 93.1, 119.9 93.2 Q 120.1 93.3, 120.5 93.4 Q 120.9 93.6, 121.2 93.7 Q 121.5 93.9, 121.7 94.2 Q 121.9 94.5, 121.9 95.0 Q 121.9 95.7, 121.4 96.1 Q 120.9 96.5, 120.1 96.5 Q 119.6 96.5, 119.3 96.4 Q 118.9 96.3, 118.5 96.1 L 118.7 95.5 " fill="#CCCC00"/>
<path class="atom-6" d="M 124.4 76.3 Q 124.4 75.0, 125.1 74.3 Q 125.7 73.6, 126.9 73.6 Q 128.0 73.6, 128.7 74.3 Q 129.3 75.0, 129.3 76.3 Q 129.3 77.6, 128.6 78.3 Q 128.0 79.0, 126.9 79.0 Q 125.7 79.0, 125.1 78.3 Q 124.4 77.6, 124.4 76.3 M 126.9 78.4 Q 127.7 78.4, 128.1 77.9 Q 128.5 77.3, 128.5 76.3 Q 128.5 75.2, 128.1 74.7 Q 127.7 74.2, 126.9 74.2 Q 126.0 74.2, 125.6 74.7 Q 125.2 75.2, 125.2 76.3 Q 125.2 77.4, 125.6 77.9 Q 126.0 78.4, 126.9 78.4 " fill="#FF0000"/>
<path class="atom-7" d="M 111.2 111.2 Q 111.2 109.9, 111.8 109.2 Q 112.4 108.5, 113.6 108.5 Q 114.8 108.5, 115.4 109.2 Q 116.0 109.9, 116.0 111.2 Q 116.0 112.5, 115.4 113.2 Q 114.7 113.9, 113.6 113.9 Q 112.4 113.9, 111.8 113.2 Q 111.2 112.5, 111.2 111.2 M 113.6 113.3 Q 114.4 113.3, 114.8 112.8 Q 115.3 112.2, 115.3 111.2 Q 115.3 110.1, 114.8 109.6 Q 114.4 109.1, 113.6 109.1 Q 112.8 109.1, 112.3 109.6 Q 111.9 110.1, 111.9 111.2 Q 111.9 112.2, 112.3 112.8 Q 112.8 113.3, 113.6 113.3 " fill="#FF0000"/>
<path class="atom-8" d="M 101.6 84.4 L 103.3 87.2 Q 103.5 87.5, 103.8 88.0 Q 104.1 88.5, 104.1 88.5 L 104.1 84.4 L 104.8 84.4 L 104.8 89.7 L 104.1 89.7 L 102.2 86.7 Q 102.0 86.3, 101.7 85.9 Q 101.5 85.5, 101.5 85.4 L 101.5 89.7 L 100.8 89.7 L 100.8 84.4 L 101.6 84.4 " fill="#0000FF"/>
<path class="atom-8" d="M 100.7 78.6 L 101.4 78.6 L 101.4 80.9 L 104.1 80.9 L 104.1 78.6 L 104.8 78.6 L 104.8 83.9 L 104.1 83.9 L 104.1 81.5 L 101.4 81.5 L 101.4 83.9 L 100.7 83.9 L 100.7 78.6 " fill="#0000FF"/>
<path class="atom-12" d="M 37.8 94.7 L 39.5 97.5 Q 39.7 97.8, 40.0 98.3 Q 40.2 98.8, 40.2 98.9 L 40.2 94.7 L 40.9 94.7 L 40.9 100.0 L 40.2 100.0 L 38.4 97.0 Q 38.1 96.6, 37.9 96.2 Q 37.7 95.8, 37.6 95.7 L 37.6 100.0 L 36.9 100.0 L 36.9 94.7 L 37.8 94.7 " fill="#0000FF"/>
<path class="atom-12" d="M 36.9 88.9 L 37.6 88.9 L 37.6 91.2 L 40.3 91.2 L 40.3 88.9 L 41.0 88.9 L 41.0 94.2 L 40.3 94.2 L 40.3 91.8 L 37.6 91.8 L 37.6 94.2 L 36.9 94.2 L 36.9 88.9 " fill="#0000FF"/>
<path class="atom-13" d="M 23.0 111.0 Q 23.0 111.0, 23.3 111.1 Q 23.5 111.2, 23.8 111.3 Q 24.1 111.4, 24.3 111.4 Q 24.8 111.4, 25.1 111.1 Q 25.4 110.9, 25.4 110.4 Q 25.4 110.1, 25.3 110.0 Q 25.1 109.8, 24.9 109.7 Q 24.7 109.6, 24.3 109.5 Q 23.8 109.3, 23.6 109.2 Q 23.3 109.1, 23.1 108.8 Q 22.9 108.5, 22.9 108.0 Q 22.9 107.4, 23.3 107.0 Q 23.8 106.5, 24.7 106.5 Q 25.3 106.5, 26.0 106.8 L 25.8 107.4 Q 25.2 107.1, 24.7 107.1 Q 24.2 107.1, 23.9 107.4 Q 23.6 107.6, 23.6 107.9 Q 23.6 108.2, 23.8 108.4 Q 23.9 108.6, 24.1 108.7 Q 24.4 108.8, 24.7 108.9 Q 25.2 109.0, 25.5 109.2 Q 25.8 109.3, 26.0 109.6 Q 26.2 109.9, 26.2 110.4 Q 26.2 111.2, 25.7 111.6 Q 25.2 112.0, 24.4 112.0 Q 23.9 112.0, 23.5 111.9 Q 23.2 111.8, 22.8 111.6 L 23.0 111.0 " fill="#CCCC00"/>
<path class="atom-15" d="M 33.8 123.7 Q 33.8 122.4, 34.5 121.7 Q 35.1 121.0, 36.3 121.0 Q 37.4 121.0, 38.1 121.7 Q 38.7 122.4, 38.7 123.7 Q 38.7 124.9, 38.1 125.7 Q 37.4 126.4, 36.3 126.4 Q 35.1 126.4, 34.5 125.7 Q 33.8 125.0, 33.8 123.7 M 36.3 125.8 Q 37.1 125.8, 37.5 125.3 Q 37.9 124.7, 37.9 123.7 Q 37.9 122.6, 37.5 122.1 Q 37.1 121.6, 36.3 121.6 Q 35.5 121.6, 35.0 122.1 Q 34.6 122.6, 34.6 123.7 Q 34.6 124.7, 35.0 125.3 Q 35.5 125.8, 36.3 125.8 " fill="#FF0000"/>
<path class="atom-16" d="M 10.3 94.7 Q 10.3 93.5, 10.9 92.7 Q 11.5 92.0, 12.7 92.0 Q 13.9 92.0, 14.5 92.7 Q 15.1 93.5, 15.1 94.7 Q 15.1 96.0, 14.5 96.7 Q 13.8 97.5, 12.7 97.5 Q 11.5 97.5, 10.9 96.7 Q 10.3 96.0, 10.3 94.7 M 12.7 96.9 Q 13.5 96.9, 13.9 96.3 Q 14.4 95.8, 14.4 94.7 Q 14.4 93.7, 13.9 93.2 Q 13.5 92.6, 12.7 92.6 Q 11.9 92.6, 11.4 93.2 Q 11.0 93.7, 11.0 94.7 Q 11.0 95.8, 11.4 96.3 Q 11.9 96.9, 12.7 96.9 " fill="#FF0000"/>
<path class="bond-0 atom-0 atom-1" d="M 390.0,120.3 L 372.6,113.6" style="fill:none;fill-rule:evenodd;stroke:#000000;stroke-width:2.0px;stroke-linecap:butt;stroke-linejoin:miter;stroke-opacity:1"/>
<path class="bond-1 atom-1 atom-2" d="M 372.6,113.6 L 358.1,125.4" style="fill:none;fill-rule:evenodd;stroke:#000000;stroke-width:2.0px;stroke-linecap:butt;stroke-linejoin:miter;stroke-opacity:1"/>
<path class="bond-1 atom-1 atom-2" d="M 369.5,112.5 L 357.6,122.2" style="fill:none;fill-rule:evenodd;stroke:#000000;stroke-width:2.0px;stroke-linecap:butt;stroke-linejoin:miter;stroke-opacity:1"/>
<path class="bond-2 atom-2 atom-3" d="M 358.1,125.4 L 340.6,118.8" style="fill:none;fill-rule:evenodd;stroke:#000000;stroke-width:2.0px;stroke-linecap:butt;stroke-linejoin:miter;stroke-opacity:1"/>
<path class="bond-3 atom-3 atom-4" d="M 340.6,118.8 L 337.7,100.4" style="fill:none;fill-rule:evenodd;stroke:#000000;stroke-width:2.0px;stroke-linecap:butt;stroke-linejoin:miter;stroke-opacity:1"/>
<path class="bond-3 atom-3 atom-4" d="M 343.1,116.7 L 340.7,101.5" style="fill:none;fill-rule:evenodd;stroke:#000000;stroke-width:2.0px;stroke-linecap:butt;stroke-linejoin:miter;stroke-opacity:1"/>
<path class="bond-4 atom-4 atom-5" d="M 337.7,100.4 L 330.1,97.5" style="fill:none;fill-rule:evenodd;stroke:#000000;stroke-width:2.0px;stroke-linecap:butt;stroke-linejoin:miter;stroke-opacity:1"/>
<path class="bond-4 atom-4 atom-5" d="M 330.1,97.5 L 322.5,94.6" style="fill:none;fill-rule:evenodd;stroke:#CCCC00;stroke-width:2.0px;stroke-linecap:butt;stroke-linejoin:miter;stroke-opacity:1"/>
<path class="bond-5 atom-5 atom-6" d="M 322.8,91.0 L 324.8,85.5" style="fill:none;fill-rule:evenodd;stroke:#CCCC00;stroke-width:2.0px;stroke-linecap:butt;stroke-linejoin:miter;stroke-opacity:1"/>
<path class="bond-5 atom-5 atom-6" d="M 324.8,85.5 L 326.9,80.1" style="fill:none;fill-rule:evenodd;stroke:#FF0000;stroke-width:2.0px;stroke-linecap:butt;stroke-linejoin:miter;stroke-opacity:1"/>
<path class="bond-5 atom-5 atom-6" d="M 320.1,90.0 L 322.2,84.6" style="fill:none;fill-rule:evenodd;stroke:#CCCC00;stroke-width:2.0px;stroke-linecap:butt;stroke-linejoin:miter;stroke-opacity:1"/>
<path class="bond-5 atom-5 atom-6" d="M 322.2,84.6 L 324.3,79.1" style="fill:none;fill-rule:evenodd;stroke:#FF0000;stroke-width:2.0px;stroke-linecap:butt;stroke-linejoin:miter;stroke-opacity:1"/>
<path class="bond-6 atom-5 atom-7" d="M 317.6,96.6 L 315.6,102.0" style="fill:none;fill-rule:evenodd;stroke:#CCCC00;stroke-width:2.0px;stroke-linecap:butt;stroke-linejoin:miter;stroke-opacity:1"/>
<path class="bond-6 atom-5 atom-7" d="M 315.6,102.0 L 313.5,107.4" style="fill:none;fill-rule:evenodd;stroke:#FF0000;stroke-width:2.0px;stroke-linecap:butt;stroke-linejoin:miter;stroke-opacity:1"/>
<path class="bond-6 atom-5 atom-7" d="M 320.2,97.6 L 318.2,103.0" style="fill:none;fill-rule:evenodd;stroke:#CCCC00;stroke-width:2.0px;stroke-linecap:butt;stroke-linejoin:miter;stroke-opacity:1"/>
<path class="bond-6 atom-5 atom-7" d="M 318.2,103.0 L 316.1,108.4" style="fill:none;fill-rule:evenodd;stroke:#FF0000;stroke-width:2.0px;stroke-linecap:butt;stroke-linejoin:miter;stroke-opacity:1"/>
<path class="bond-7 atom-5 atom-8" d="M 317.9,92.8 L 311.6,90.5" style="fill:none;fill-rule:evenodd;stroke:#CCCC00;stroke-width:2.0px;stroke-linecap:butt;stroke-linejoin:miter;stroke-opacity:1"/>
<path class="bond-7 atom-5 atom-8" d="M 311.6,90.5 L 305.4,88.1" style="fill:none;fill-rule:evenodd;stroke:#0000FF;stroke-width:2.0px;stroke-linecap:butt;stroke-linejoin:miter;stroke-opacity:1"/>
<path class="bond-8 atom-8 atom-9" d="M 300.2,89.2 L 294.2,94.0" style="fill:none;fill-rule:evenodd;stroke:#0000FF;stroke-width:2.0px;stroke-linecap:butt;stroke-linejoin:miter;stroke-opacity:1"/>
<path class="bond-8 atom-8 atom-9" d="M 294.2,94.0 L 288.3,98.9" style="fill:none;fill-rule:evenodd;stroke:#000000;stroke-width:2.0px;stroke-linecap:butt;stroke-linejoin:miter;stroke-opacity:1"/>
<path class="bond-9 atom-9 atom-10" d="M 288.3,98.9 L 270.9,92.2" style="fill:none;fill-rule:evenodd;stroke:#000000;stroke-width:2.0px;stroke-linecap:butt;stroke-linejoin:miter;stroke-opacity:1"/>
<path class="bond-10 atom-10 atom-11" d="M 270.9,92.2 L 256.4,104.0" style="fill:none;fill-rule:evenodd;stroke:#000000;stroke-width:2.0px;stroke-linecap:butt;stroke-linejoin:miter;stroke-opacity:1"/>
<path class="bond-11 atom-11 atom-12" d="M 256.4,104.0 L 249.0,101.2" style="fill:none;fill-rule:evenodd;stroke:#000000;stroke-width:2.0px;stroke-linecap:butt;stroke-linejoin:miter;stroke-opacity:1"/>
<path class="bond-11 atom-11 atom-12" d="M 249.0,101.2 L 241.6,98.4" style="fill:none;fill-rule:evenodd;stroke:#0000FF;stroke-width:2.0px;stroke-linecap:butt;stroke-linejoin:miter;stroke-opacity:1"/>
<path class="bond-12 atom-12 atom-13" d="M 236.3,99.5 L 231.5,103.4" style="fill:none;fill-rule:evenodd;stroke:#0000FF;stroke-width:2.0px;stroke-linecap:butt;stroke-linejoin:miter;stroke-opacity:1"/>
<path class="bond-12 atom-12 atom-13" d="M 231.5,103.4 L 226.8,107.3" style="fill:none;fill-rule:evenodd;stroke:#CCCC00;stroke-width:2.0px;stroke-linecap:butt;stroke-linejoin:miter;stroke-opacity:1"/>
<path class="bond-13 atom-13 atom-14" d="M 222.2,111.1 L 216.1,116.0" style="fill:none;fill-rule:evenodd;stroke:#CCCC00;stroke-width:2.0px;stroke-linecap:butt;stroke-linejoin:miter;stroke-opacity:1"/>
<path class="bond-13 atom-13 atom-14" d="M 216.1,116.0 L 210.0,121.0" style="fill:none;fill-rule:evenodd;stroke:#000000;stroke-width:2.0px;stroke-linecap:butt;stroke-linejoin:miter;stroke-opacity:1"/>
<path class="bond-14 atom-13 atom-15" d="M 225.7,112.9 L 229.1,117.1" style="fill:none;fill-rule:evenodd;stroke:#CCCC00;stroke-width:2.0px;stroke-linecap:butt;stroke-linejoin:miter;stroke-opacity:1"/>
<path class="bond-14 atom-13 atom-15" d="M 229.1,117.1 L 232.5,121.2" style="fill:none;fill-rule:evenodd;stroke:#FF0000;stroke-width:2.0px;stroke-linecap:butt;stroke-linejoin:miter;stroke-opacity:1"/>
<path class="bond-14 atom-13 atom-15" d="M 227.9,111.1 L 231.3,115.3" style="fill:none;fill-rule:evenodd;stroke:#CCCC00;stroke-width:2.0px;stroke-linecap:butt;stroke-linejoin:miter;stroke-opacity:1"/>
<path class="bond-14 atom-13 atom-15" d="M 231.3,115.3 L 234.7,119.5" style="fill:none;fill-rule:evenodd;stroke:#FF0000;stroke-width:2.0px;stroke-linecap:butt;stroke-linejoin:miter;stroke-opacity:1"/>
<path class="bond-15 atom-13 atom-16" d="M 223.2,105.5 L 219.9,101.3" style="fill:none;fill-rule:evenodd;stroke:#CCCC00;stroke-width:2.0px;stroke-linecap:butt;stroke-linejoin:miter;stroke-opacity:1"/>
<path class="bond-15 atom-13 atom-16" d="M 219.9,101.3 L 216.5,97.2" style="fill:none;fill-rule:evenodd;stroke:#FF0000;stroke-width:2.0px;stroke-linecap:butt;stroke-linejoin:miter;stroke-opacity:1"/>
<path class="bond-15 atom-13 atom-16" d="M 221.1,107.2 L 217.7,103.1" style="fill:none;fill-rule:evenodd;stroke:#CCCC00;stroke-width:2.0px;stroke-linecap:butt;stroke-linejoin:miter;stroke-opacity:1"/>
<path class="bond-15 atom-13 atom-16" d="M 217.7,103.1 L 214.3,99.0" style="fill:none;fill-rule:evenodd;stroke:#FF0000;stroke-width:2.0px;stroke-linecap:butt;stroke-linejoin:miter;stroke-opacity:1"/>
<path class="bond-16 atom-4 atom-17" d="M 337.7,100.4 L 352.1,88.6" style="fill:none;fill-rule:evenodd;stroke:#000000;stroke-width:2.0px;stroke-linecap:butt;stroke-linejoin:miter;stroke-opacity:1"/>
<path class="bond-17 atom-17 atom-18" d="M 352.1,88.6 L 369.6,95.2" style="fill:none;fill-rule:evenodd;stroke:#000000;stroke-width:2.0px;stroke-linecap:butt;stroke-linejoin:miter;stroke-opacity:1"/>
<path class="bond-17 atom-17 atom-18" d="M 352.6,91.8 L 367.1,97.2" style="fill:none;fill-rule:evenodd;stroke:#000000;stroke-width:2.0px;stroke-linecap:butt;stroke-linejoin:miter;stroke-opacity:1"/>
<path class="bond-18 atom-18 atom-1" d="M 369.6,95.2 L 372.6,113.6" style="fill:none;fill-rule:evenodd;stroke:#000000;stroke-width:2.0px;stroke-linecap:butt;stroke-linejoin:miter;stroke-opacity:1"/>
<path d="M 358.8,124.8 L 358.1,125.4 L 357.2,125.1" style="fill:none;stroke:#000000;stroke-width:2.0px;stroke-linecap:butt;stroke-linejoin:miter;stroke-opacity:1;"/>
<path d="M 341.5,119.1 L 340.6,118.8 L 340.5,117.9" style="fill:none;stroke:#000000;stroke-width:2.0px;stroke-linecap:butt;stroke-linejoin:miter;stroke-opacity:1;"/>
<path d="M 288.6,98.6 L 288.3,98.9 L 287.4,98.5" style="fill:none;stroke:#000000;stroke-width:2.0px;stroke-linecap:butt;stroke-linejoin:miter;stroke-opacity:1;"/>
<path d="M 271.7,92.6 L 270.9,92.2 L 270.1,92.8" style="fill:none;stroke:#000000;stroke-width:2.0px;stroke-linecap:butt;stroke-linejoin:miter;stroke-opacity:1;"/>
<path d="M 257.1,103.4 L 256.4,104.0 L 256.0,103.9" style="fill:none;stroke:#000000;stroke-width:2.0px;stroke-linecap:butt;stroke-linejoin:miter;stroke-opacity:1;"/>
<path d="M 351.4,89.1 L 352.1,88.6 L 353.0,88.9" style="fill:none;stroke:#000000;stroke-width:2.0px;stroke-linecap:butt;stroke-linejoin:miter;stroke-opacity:1;"/>
<path d="M 368.7,94.9 L 369.6,95.2 L 369.7,96.1" style="fill:none;stroke:#000000;stroke-width:2.0px;stroke-linecap:butt;stroke-linejoin:miter;stroke-opacity:1;"/>
<path class="atom-5" d="M 318.7 95.5 Q 318.8 95.6, 319.0 95.7 Q 319.3 95.8, 319.5 95.8 Q 319.8 95.9, 320.1 95.9 Q 320.6 95.9, 320.9 95.6 Q 321.2 95.4, 321.2 95.0 Q 321.2 94.7, 321.0 94.5 Q 320.9 94.3, 320.7 94.2 Q 320.4 94.1, 320.1 94.0 Q 319.6 93.9, 319.3 93.7 Q 319.0 93.6, 318.8 93.3 Q 318.6 93.0, 318.6 92.6 Q 318.6 91.9, 319.1 91.5 Q 319.5 91.1, 320.4 91.1 Q 321.0 91.1, 321.7 91.4 L 321.6 91.9 Q 320.9 91.7, 320.5 91.7 Q 319.9 91.7, 319.7 91.9 Q 319.4 92.1, 319.4 92.5 Q 319.4 92.8, 319.5 92.9 Q 319.7 93.1, 319.9 93.2 Q 320.1 93.3, 320.5 93.4 Q 320.9 93.6, 321.2 93.7 Q 321.5 93.9, 321.7 94.2 Q 321.9 94.5, 321.9 95.0 Q 321.9 95.7, 321.4 96.1 Q 320.9 96.5, 320.1 96.5 Q 319.6 96.5, 319.3 96.4 Q 318.9 96.3, 318.5 96.1 L 318.7 95.5 " fill="#CCCC00"/>
<path class="atom-6" d="M 324.4 76.3 Q 324.4 75.0, 325.1 74.3 Q 325.7 73.6, 326.9 73.6 Q 328.0 73.6, 328.7 74.3 Q 329.3 75.0, 329.3 76.3 Q 329.3 77.6, 328.6 78.3 Q 328.0 79.0, 326.9 79.0 Q 325.7 79.0, 325.1 78.3 Q 324.4 77.6, 324.4 76.3 M 326.9 78.4 Q 327.7 78.4, 328.1 77.9 Q 328.5 77.3, 328.5 76.3 Q 328.5 75.2, 328.1 74.7 Q 327.7 74.2, 326.9 74.2 Q 326.0 74.2, 325.6 74.7 Q 325.2 75.2, 325.2 76.3 Q 325.2 77.4, 325.6 77.9 Q 326.0 78.4, 326.9 78.4 " fill="#FF0000"/>
<path class="atom-7" d="M 311.2 111.2 Q 311.2 109.9, 311.8 109.2 Q 312.4 108.5, 313.6 108.5 Q 314.8 108.5, 315.4 109.2 Q 316.0 109.9, 316.0 111.2 Q 316.0 112.5, 315.4 113.2 Q 314.7 113.9, 313.6 113.9 Q 312.4 113.9, 311.8 113.2 Q 311.2 112.5, 311.2 111.2 M 313.6 113.3 Q 314.4 113.3, 314.8 112.8 Q 315.3 112.2, 315.3 111.2 Q 315.3 110.1, 314.8 109.6 Q 314.4 109.1, 313.6 109.1 Q 312.8 109.1, 312.3 109.6 Q 311.9 110.1, 311.9 111.2 Q 311.9 112.2, 312.3 112.8 Q 312.8 113.3, 313.6 113.3 " fill="#FF0000"/>
<path class="atom-8" d="M 301.6 84.4 L 303.3 87.2 Q 303.5 87.5, 303.8 88.0 Q 304.1 88.5, 304.1 88.5 L 304.1 84.4 L 304.8 84.4 L 304.8 89.7 L 304.1 89.7 L 302.2 86.7 Q 302.0 86.3, 301.7 85.9 Q 301.5 85.5, 301.5 85.4 L 301.5 89.7 L 300.8 89.7 L 300.8 84.4 L 301.6 84.4 " fill="#0000FF"/>
<path class="atom-8" d="M 300.7 78.6 L 301.4 78.6 L 301.4 80.9 L 304.1 80.9 L 304.1 78.6 L 304.8 78.6 L 304.8 83.9 L 304.1 83.9 L 304.1 81.5 L 301.4 81.5 L 301.4 83.9 L 300.7 83.9 L 300.7 78.6 " fill="#0000FF"/>
<path class="atom-12" d="M 237.8 94.7 L 239.5 97.5 Q 239.7 97.8, 240.0 98.3 Q 240.2 98.8, 240.2 98.9 L 240.2 94.7 L 240.9 94.7 L 240.9 100.0 L 240.2 100.0 L 238.4 97.0 Q 238.1 96.6, 237.9 96.2 Q 237.7 95.8, 237.6 95.7 L 237.6 100.0 L 236.9 100.0 L 236.9 94.7 L 237.8 94.7 " fill="#0000FF"/>
<path class="atom-12" d="M 236.9 88.9 L 237.6 88.9 L 237.6 91.2 L 240.3 91.2 L 240.3 88.9 L 241.0 88.9 L 241.0 94.2 L 240.3 94.2 L 240.3 91.8 L 237.6 91.8 L 237.6 94.2 L 236.9 94.2 L 236.9 88.9 " fill="#0000FF"/>
<path class="atom-13" d="M 223.0 111.0 Q 223.0 111.0, 223.3 111.1 Q 223.5 111.2, 223.8 111.3 Q 224.1 111.4, 224.3 111.4 Q 224.8 111.4, 225.1 111.1 Q 225.4 110.9, 225.4 110.4 Q 225.4 110.1, 225.3 110.0 Q 225.1 109.8, 224.9 109.7 Q 224.7 109.6, 224.3 109.5 Q 223.8 109.3, 223.6 109.2 Q 223.3 109.1, 223.1 108.8 Q 222.9 108.5, 222.9 108.0 Q 222.9 107.4, 223.3 107.0 Q 223.8 106.5, 224.7 106.5 Q 225.3 106.5, 226.0 106.8 L 225.8 107.4 Q 225.2 107.1, 224.7 107.1 Q 224.2 107.1, 223.9 107.4 Q 223.6 107.6, 223.6 107.9 Q 223.6 108.2, 223.8 108.4 Q 223.9 108.6, 224.1 108.7 Q 224.4 108.8, 224.7 108.9 Q 225.2 109.0, 225.5 109.2 Q 225.8 109.3, 226.0 109.6 Q 226.2 109.9, 226.2 110.4 Q 226.2 111.2, 225.7 111.6 Q 225.2 112.0, 224.4 112.0 Q 223.9 112.0, 223.5 111.9 Q 223.2 111.8, 222.8 111.6 L 223.0 111.0 " fill="#CCCC00"/>
<path class="atom-15" d="M 233.8 123.7 Q 233.8 122.4, 234.5 121.7 Q 235.1 121.0, 236.3 121.0 Q 237.4 121.0, 238.1 121.7 Q 238.7 122.4, 238.7 123.7 Q 238.7 124.9, 238.1 125.7 Q 237.4 126.4, 236.3 126.4 Q 235.1 126.4, 234.5 125.7 Q 233.8 125.0, 233.8 123.7 M 236.3 125.8 Q 237.1 125.8, 237.5 125.3 Q 237.9 124.7, 237.9 123.7 Q 237.9 122.6, 237.5 122.1 Q 237.1 121.6, 236.3 121.6 Q 235.5 121.6, 235.0 122.1 Q 234.6 122.6, 234.6 123.7 Q 234.6 124.7, 235.0 125.3 Q 235.5 125.8, 236.3 125.8 " fill="#FF0000"/>
<path class="atom-16" d="M 210.3 94.7 Q 210.3 93.5, 210.9 92.7 Q 211.5 92.0, 212.7 92.0 Q 213.9 92.0, 214.5 92.7 Q 215.1 93.5, 215.1 94.7 Q 215.1 96.0, 214.5 96.7 Q 213.8 97.5, 212.7 97.5 Q 211.5 97.5, 210.9 96.7 Q 210.3 96.0, 210.3 94.7 M 212.7 96.9 Q 213.5 96.9, 213.9 96.3 Q 214.4 95.8, 214.4 94.7 Q 214.4 93.7, 213.9 93.2 Q 213.5 92.6, 212.7 92.6 Q 211.9 92.6, 211.4 93.2 Q 211.0 93.7, 211.0 94.7 Q 211.0 95.8, 211.4 96.3 Q 211.9 96.9, 212.7 96.9 " fill="#FF0000"/>
<path class="bond-0 atom-0 atom-1" d="M 417.7,114.9 L 425.2,118.1" style="fill:none;fill-rule:evenodd;stroke:#000000;stroke-width:2.0px;stroke-linecap:butt;stroke-linejoin:miter;stroke-opacity:1"/>
<path class="bond-0 atom-0 atom-1" d="M 425.2,118.1 L 432.6,121.2" style="fill:none;fill-rule:evenodd;stroke:#CCCC00;stroke-width:2.0px;stroke-linecap:butt;stroke-linejoin:miter;stroke-opacity:1"/>
<path class="bond-1 atom-1 atom-2" d="M 437.2,120.4 L 443.5,115.6" style="fill:none;fill-rule:evenodd;stroke:#CCCC00;stroke-width:2.0px;stroke-linecap:butt;stroke-linejoin:miter;stroke-opacity:1"/>
<path class="bond-1 atom-1 atom-2" d="M 443.5,115.6 L 449.8,110.9" style="fill:none;fill-rule:evenodd;stroke:#000000;stroke-width:2.0px;stroke-linecap:butt;stroke-linejoin:miter;stroke-opacity:1"/>
<path class="bond-2 atom-2 atom-3" d="M 449.8,110.9 L 447.4,92.3" style="fill:none;fill-rule:evenodd;stroke:#000000;stroke-width:2.0px;stroke-linecap:butt;stroke-linejoin:miter;stroke-opacity:1"/>
<path class="bond-2 atom-2 atom-3" d="M 452.3,108.9 L 450.4,93.6" style="fill:none;fill-rule:evenodd;stroke:#000000;stroke-width:2.0px;stroke-linecap:butt;stroke-linejoin:miter;stroke-opacity:1"/>
<path class="bond-3 atom-3 atom-4" d="M 447.4,92.3 L 462.3,81.0" style="fill:none;fill-rule:evenodd;stroke:#000000;stroke-width:2.0px;stroke-linecap:butt;stroke-linejoin:miter;stroke-opacity:1"/>
<path class="bond-4 atom-4 atom-5" d="M 462.3,81.0 L 479.5,88.3" style="fill:none;fill-rule:evenodd;stroke:#000000;stroke-width:2.0px;stroke-linecap:butt;stroke-linejoin:miter;stroke-opacity:1"/>
<path class="bond-4 atom-4 atom-5" d="M 462.7,84.3 L 476.9,90.2" style="fill:none;fill-rule:evenodd;stroke:#000000;stroke-width:2.0px;stroke-linecap:butt;stroke-linejoin:miter;stroke-opacity:1"/>
<path class="bond-5 atom-5 atom-6" d="M 479.5,88.3 L 485.6,83.6" style="fill:none;fill-rule:evenodd;stroke:#000000;stroke-width:2.0px;stroke-linecap:butt;stroke-linejoin:miter;stroke-opacity:1"/>
<path class="bond-5 atom-5 atom-6" d="M 485.6,83.6 L 491.7,79.0" style="fill:none;fill-rule:evenodd;stroke:#0000FF;stroke-width:2.0px;stroke-linecap:butt;stroke-linejoin:miter;stroke-opacity:1"/>
<path class="bond-6 atom-6 atom-7" d="M 497.0,78.1 L 503.1,80.7" style="fill:none;fill-rule:evenodd;stroke:#0000FF;stroke-width:2.0px;stroke-linecap:butt;stroke-linejoin:miter;stroke-opacity:1"/>
<path class="bond-6 atom-6 atom-7" d="M 503.1,80.7 L 509.3,83.2" style="fill:none;fill-rule:evenodd;stroke:#CCCC00;stroke-width:2.0px;stroke-linecap:butt;stroke-linejoin:miter;stroke-opacity:1"/>
<path class="bond-7 atom-7 atom-8" d="M 508.9,87.1 L 506.6,92.3" style="fill:none;fill-rule:evenodd;stroke:#CCCC00;stroke-width:2.0px;stroke-linecap:butt;stroke-linejoin:miter;stroke-opacity:1"/>
<path class="bond-7 atom-7 atom-8" d="M 506.6,92.3 L 504.4,97.6" style="fill:none;fill-rule:evenodd;stroke:#FF0000;stroke-width:2.0px;stroke-linecap:butt;stroke-linejoin:miter;stroke-opacity:1"/>
<path class="bond-7 atom-7 atom-8" d="M 511.4,88.1 L 509.2,93.4" style="fill:none;fill-rule:evenodd;stroke:#CCCC00;stroke-width:2.0px;stroke-linecap:butt;stroke-linejoin:miter;stroke-opacity:1"/>
<path class="bond-7 atom-7 atom-8" d="M 509.2,93.4 L 507.0,98.7" style="fill:none;fill-rule:evenodd;stroke:#FF0000;stroke-width:2.0px;stroke-linecap:butt;stroke-linejoin:miter;stroke-opacity:1"/>
<path class="bond-8 atom-7 atom-9" d="M 514.2,81.5 L 516.4,76.2" style="fill:none;fill-rule:evenodd;stroke:#CCCC00;stroke-width:2.0px;stroke-linecap:butt;stroke-linejoin:miter;stroke-opacity:1"/>
<path class="bond-8 atom-7 atom-9" d="M 516.4,76.2 L 518.7,70.9" style="fill:none;fill-rule:evenodd;stroke:#FF0000;stroke-width:2.0px;stroke-linecap:butt;stroke-linejoin:miter;stroke-opacity:1"/>
<path class="bond-8 atom-7 atom-9" d="M 511.6,80.4 L 513.9,75.1" style="fill:none;fill-rule:evenodd;stroke:#CCCC00;stroke-width:2.0px;stroke-linecap:butt;stroke-linejoin:miter;stroke-opacity:1"/>
<path class="bond-8 atom-7 atom-9" d="M 513.9,75.1 L 516.1,69.8" style="fill:none;fill-rule:evenodd;stroke:#FF0000;stroke-width:2.0px;stroke-linecap:butt;stroke-linejoin:miter;stroke-opacity:1"/>
<path class="bond-9 atom-7 atom-10" d="M 513.9,85.2 L 521.3,88.3" style="fill:none;fill-rule:evenodd;stroke:#CCCC00;stroke-width:2.0px;stroke-linecap:butt;stroke-linejoin:miter;stroke-opacity:1"/>
<path class="bond-9 atom-7 atom-10" d="M 521.3,88.3 L 528.8,91.4" style="fill:none;fill-rule:evenodd;stroke:#000000;stroke-width:2.0px;stroke-linecap:butt;stroke-linejoin:miter;stroke-opacity:1"/>
<path class="bond-10 atom-10 atom-11" d="M 528.8,91.4 L 534.7,86.9" style="fill:none;fill-rule:evenodd;stroke:#000000;stroke-width:2.0px;stroke-linecap:butt;stroke-linejoin:miter;stroke-opacity:1"/>
<path class="bond-10 atom-10 atom-11" d="M 534.7,86.9 L 540.6,82.4" style="fill:none;fill-rule:evenodd;stroke:#FF0000;stroke-width:2.0px;stroke-linecap:butt;stroke-linejoin:miter;stroke-opacity:1"/>
<path class="bond-11 atom-10 atom-12" d="M 528.8,91.4 L 531.1,109.9" style="fill:none;fill-rule:evenodd;stroke:#000000;stroke-width:2.0px;stroke-linecap:butt;stroke-linejoin:miter;stroke-opacity:1"/>
<path class="bond-12 atom-12 atom-13" d="M 531.1,109.9 L 538.4,113.0" style="fill:none;fill-rule:evenodd;stroke:#000000;stroke-width:2.0px;stroke-linecap:butt;stroke-linejoin:miter;stroke-opacity:1"/>
<path class="bond-12 atom-12 atom-13" d="M 538.4,113.0 L 545.7,116.1" style="fill:none;fill-rule:evenodd;stroke:#0000FF;stroke-width:2.0px;stroke-linecap:butt;stroke-linejoin:miter;stroke-opacity:1"/>
<path class="bond-13 atom-13 atom-14" d="M 548.8,120.4 L 549.7,128.1" style="fill:none;fill-rule:evenodd;stroke:#0000FF;stroke-width:2.0px;stroke-linecap:butt;stroke-linejoin:miter;stroke-opacity:1"/>
<path class="bond-13 atom-13 atom-14" d="M 549.7,128.1 L 550.7,135.7" style="fill:none;fill-rule:evenodd;stroke:#000000;stroke-width:2.0px;stroke-linecap:butt;stroke-linejoin:miter;stroke-opacity:1"/>
<path class="bond-14 atom-13 atom-15" d="M 551.0,115.2 L 557.1,110.5" style="fill:none;fill-rule:evenodd;stroke:#0000FF;stroke-width:2.0px;stroke-linecap:butt;stroke-linejoin:miter;stroke-opacity:1"/>
<path class="bond-14 atom-13 atom-15" d="M 557.1,110.5 L 563.2,105.9" style="fill:none;fill-rule:evenodd;stroke:#000000;stroke-width:2.0px;stroke-linecap:butt;stroke-linejoin:miter;stroke-opacity:1"/>
<path class="bond-15 atom-15 atom-16" d="M 563.2,105.9 L 570.3,108.8" style="fill:none;fill-rule:evenodd;stroke:#000000;stroke-width:2.0px;stroke-linecap:butt;stroke-linejoin:miter;stroke-opacity:1"/>
<path class="bond-15 atom-15 atom-16" d="M 570.3,108.8 L 577.4,111.8" style="fill:none;fill-rule:evenodd;stroke:#FF0000;stroke-width:2.0px;stroke-linecap:butt;stroke-linejoin:miter;stroke-opacity:1"/>
<path class="bond-15 atom-15 atom-16" d="M 563.6,109.1 L 569.2,111.4" style="fill:none;fill-rule:evenodd;stroke:#000000;stroke-width:2.0px;stroke-linecap:butt;stroke-linejoin:miter;stroke-opacity:1"/>
<path class="bond-15 atom-15 atom-16" d="M 569.2,111.4 L 576.3,114.4" style="fill:none;fill-rule:evenodd;stroke:#FF0000;stroke-width:2.0px;stroke-linecap:butt;stroke-linejoin:miter;stroke-opacity:1"/>
<path class="bond-16 atom-5 atom-17" d="M 479.5,88.3 L 481.8,106.8" style="fill:none;fill-rule:evenodd;stroke:#000000;stroke-width:2.0px;stroke-linecap:butt;stroke-linejoin:miter;stroke-opacity:1"/>
<path class="bond-17 atom-17 atom-18" d="M 481.8,106.8 L 467.0,118.1" style="fill:none;fill-rule:evenodd;stroke:#000000;stroke-width:2.0px;stroke-linecap:butt;stroke-linejoin:miter;stroke-opacity:1"/>
<path class="bond-17 atom-17 atom-18" d="M 478.9,105.5 L 466.6,114.9" style="fill:none;fill-rule:evenodd;stroke:#000000;stroke-width:2.0px;stroke-linecap:butt;stroke-linejoin:miter;stroke-opacity:1"/>
<path class="bond-18 atom-18 atom-2" d="M 467.0,118.1 L 449.8,110.9" style="fill:none;fill-rule:evenodd;stroke:#000000;stroke-width:2.0px;stroke-linecap:butt;stroke-linejoin:miter;stroke-opacity:1"/>
<path d="M 447.5,93.3 L 447.4,92.3 L 448.2,91.8" style="fill:none;stroke:#000000;stroke-width:2.0px;stroke-linecap:butt;stroke-linejoin:miter;stroke-opacity:1;"/>
<path d="M 461.5,81.6 L 462.3,81.0 L 463.1,81.4" style="fill:none;stroke:#000000;stroke-width:2.0px;stroke-linecap:butt;stroke-linejoin:miter;stroke-opacity:1;"/>
<path d="M 531.0,109.0 L 531.1,109.9 L 531.5,110.1" style="fill:none;stroke:#000000;stroke-width:2.0px;stroke-linecap:butt;stroke-linejoin:miter;stroke-opacity:1;"/>
<path d="M 562.9,106.1 L 563.2,105.9 L 563.6,106.0" style="fill:none;stroke:#000000;stroke-width:2.0px;stroke-linecap:butt;stroke-linejoin:miter;stroke-opacity:1;"/>
<path d="M 481.7,105.9 L 481.8,106.8 L 481.1,107.4" style="fill:none;stroke:#000000;stroke-width:2.0px;stroke-linecap:butt;stroke-linejoin:miter;stroke-opacity:1;"/>
<path d="M 467.7,117.5 L 467.0,118.1 L 466.1,117.7" style="fill:none;stroke:#000000;stroke-width:2.0px;stroke-linecap:butt;stroke-linejoin:miter;stroke-opacity:1;"/>
<path class="atom-1" d="M 433.4 124.0 Q 433.5 124.0, 433.7 124.1 Q 434.0 124.2, 434.2 124.3 Q 434.5 124.3, 434.8 124.3 Q 435.3 124.3, 435.6 124.1 Q 435.9 123.8, 435.9 123.4 Q 435.9 123.1, 435.7 122.9 Q 435.6 122.8, 435.4 122.7 Q 435.1 122.6, 434.8 122.5 Q 434.3 122.3, 434.0 122.2 Q 433.7 122.0, 433.5 121.8 Q 433.3 121.5, 433.3 121.0 Q 433.3 120.3, 433.8 119.9 Q 434.2 119.5, 435.1 119.5 Q 435.7 119.5, 436.4 119.8 L 436.3 120.4 Q 435.6 120.1, 435.2 120.1 Q 434.6 120.1, 434.4 120.3 Q 434.1 120.5, 434.1 120.9 Q 434.1 121.2, 434.2 121.4 Q 434.4 121.5, 434.6 121.6 Q 434.8 121.7, 435.2 121.8 Q 435.6 122.0, 435.9 122.1 Q 436.2 122.3, 436.4 122.6 Q 436.6 122.9, 436.6 123.4 Q 436.6 124.1, 436.1 124.5 Q 435.6 124.9, 434.8 124.9 Q 434.3 124.9, 434.0 124.8 Q 433.6 124.7, 433.2 124.6 L 433.4 124.0 " fill="#CCCC00"/>
<path class="atom-6" d="M 493.2 74.3 L 494.9 77.1 Q 495.1 77.4, 495.4 77.9 Q 495.6 78.4, 495.7 78.4 L 495.7 74.3 L 496.4 74.3 L 496.4 79.6 L 495.6 79.6 L 493.8 76.6 Q 493.6 76.2, 493.3 75.8 Q 493.1 75.4, 493.0 75.3 L 493.0 79.6 L 492.4 79.6 L 492.4 74.3 L 493.2 74.3 " fill="#0000FF"/>
<path class="atom-6" d="M 492.3 68.5 L 493.0 68.5 L 493.0 70.8 L 495.7 70.8 L 495.7 68.5 L 496.4 68.5 L 496.4 73.8 L 495.7 73.8 L 495.7 71.4 L 493.0 71.4 L 493.0 73.8 L 492.3 73.8 L 492.3 68.5 " fill="#0000FF"/>
<path class="atom-7" d="M 510.1 86.0 Q 510.1 86.0, 510.4 86.1 Q 510.6 86.2, 510.9 86.3 Q 511.2 86.4, 511.4 86.4 Q 511.9 86.4, 512.2 86.1 Q 512.5 85.9, 512.5 85.5 Q 512.5 85.2, 512.4 85.0 Q 512.2 84.8, 512.0 84.7 Q 511.8 84.6, 511.4 84.5 Q 510.9 84.4, 510.7 84.2 Q 510.4 84.1, 510.2 83.8 Q 510.0 83.5, 510.0 83.1 Q 510.0 82.4, 510.4 82.0 Q 510.9 81.6, 511.8 81.6 Q 512.4 81.6, 513.1 81.9 L 512.9 82.4 Q 512.3 82.2, 511.8 82.2 Q 511.3 82.2, 511.0 82.4 Q 510.7 82.6, 510.7 83.0 Q 510.7 83.2, 510.9 83.4 Q 511.0 83.6, 511.2 83.7 Q 511.5 83.8, 511.8 83.9 Q 512.3 84.0, 512.6 84.2 Q 512.9 84.3, 513.1 84.6 Q 513.3 84.9, 513.3 85.5 Q 513.3 86.2, 512.8 86.6 Q 512.3 87.0, 511.5 87.0 Q 511.0 87.0, 510.6 86.9 Q 510.3 86.8, 509.9 86.6 L 510.1 86.0 " fill="#CCCC00"/>
<path class="atom-8" d="M 501.9 101.4 Q 501.9 100.2, 502.5 99.4 Q 503.2 98.7, 504.3 98.7 Q 505.5 98.7, 506.1 99.4 Q 506.8 100.2, 506.8 101.4 Q 506.8 102.7, 506.1 103.4 Q 505.5 104.2, 504.3 104.2 Q 503.2 104.2, 502.5 103.4 Q 501.9 102.7, 501.9 101.4 M 504.3 103.6 Q 505.2 103.6, 505.6 103.0 Q 506.0 102.5, 506.0 101.4 Q 506.0 100.4, 505.6 99.9 Q 505.2 99.3, 504.3 99.3 Q 503.5 99.3, 503.1 99.9 Q 502.7 100.4, 502.7 101.4 Q 502.7 102.5, 503.1 103.0 Q 503.5 103.6, 504.3 103.6 " fill="#FF0000"/>
<path class="atom-9" d="M 516.4 67.0 Q 516.4 65.7, 517.0 65.0 Q 517.6 64.3, 518.8 64.3 Q 520.0 64.3, 520.6 65.0 Q 521.2 65.7, 521.2 67.0 Q 521.2 68.3, 520.6 69.0 Q 520.0 69.7, 518.8 69.7 Q 517.6 69.7, 517.0 69.0 Q 516.4 68.3, 516.4 67.0 M 518.8 69.1 Q 519.6 69.1, 520.0 68.6 Q 520.5 68.1, 520.5 67.0 Q 520.5 66.0, 520.0 65.4 Q 519.6 64.9, 518.8 64.9 Q 518.0 64.9, 517.5 65.4 Q 517.1 66.0, 517.1 67.0 Q 517.1 68.1, 517.5 68.6 Q 518.0 69.1, 518.8 69.1 " fill="#FF0000"/>
<path class="atom-11" d="M 541.2 80.1 Q 541.2 78.9, 541.8 78.2 Q 542.5 77.5, 543.6 77.5 Q 544.8 77.5, 545.4 78.2 Q 546.1 78.9, 546.1 80.1 Q 546.1 81.4, 545.4 82.2 Q 544.8 82.9, 543.6 82.9 Q 542.5 82.9, 541.8 82.2 Q 541.2 81.4, 541.2 80.1 M 543.6 82.3 Q 544.4 82.3, 544.9 81.8 Q 545.3 81.2, 545.3 80.1 Q 545.3 79.1, 544.9 78.6 Q 544.4 78.1, 543.6 78.1 Q 542.8 78.1, 542.4 78.6 Q 542.0 79.1, 542.0 80.1 Q 542.0 81.2, 542.4 81.8 Q 542.8 82.3, 543.6 82.3 " fill="#FF0000"/>
<path class="atom-11" d="M 546.9 77.5 L 547.6 77.5 L 547.6 79.8 L 550.3 79.8 L 550.3 77.5 L 551.0 77.5 L 551.0 82.8 L 550.3 82.8 L 550.3 80.4 L 547.6 80.4 L 547.6 82.8 L 546.9 82.8 L 546.9 77.5 " fill="#FF0000"/>
<path class="atom-13" d="M 547.2 114.5 L 548.9 117.3 Q 549.1 117.6, 549.4 118.1 Q 549.6 118.6, 549.6 118.6 L 549.6 114.5 L 550.3 114.5 L 550.3 119.8 L 549.6 119.8 L 547.8 116.7 Q 547.5 116.4, 547.3 116.0 Q 547.1 115.6, 547.0 115.4 L 547.0 119.8 L 546.3 119.8 L 546.3 114.5 L 547.2 114.5 " fill="#0000FF"/>
<path class="atom-16" d="M 577.4 114.4 Q 577.4 113.1, 578.1 112.4 Q 578.7 111.7, 579.9 111.7 Q 581.0 111.7, 581.7 112.4 Q 582.3 113.1, 582.3 114.4 Q 582.3 115.7, 581.7 116.4 Q 581.0 117.1, 579.9 117.1 Q 578.7 117.1, 578.1 116.4 Q 577.4 115.7, 577.4 114.4 M 579.9 116.5 Q 580.7 116.5, 581.1 116.0 Q 581.6 115.5, 581.6 114.4 Q 581.6 113.4, 581.1 112.8 Q 580.7 112.3, 579.9 112.3 Q 579.1 112.3, 578.6 112.8 Q 578.2 113.4, 578.2 114.4 Q 578.2 115.5, 578.6 116.0 Q 579.1 116.5, 579.9 116.5 " fill="#FF0000"/>
<path class="bond-0 atom-0 atom-1" d="M 771.7,108.5 L 753.3,105.7" style="fill:none;fill-rule:evenodd;stroke:#000000;stroke-width:2.0px;stroke-linecap:butt;stroke-linejoin:miter;stroke-opacity:1"/>
<path class="bond-1 atom-1 atom-2" d="M 753.3,105.7 L 741.6,120.3" style="fill:none;fill-rule:evenodd;stroke:#000000;stroke-width:2.0px;stroke-linecap:butt;stroke-linejoin:miter;stroke-opacity:1"/>
<path class="bond-2 atom-2 atom-3" d="M 741.6,120.3 L 723.2,117.5" style="fill:none;fill-rule:evenodd;stroke:#000000;stroke-width:2.0px;stroke-linecap:butt;stroke-linejoin:miter;stroke-opacity:1"/>
<path class="bond-3 atom-3 atom-4" d="M 723.2,117.5 L 716.3,100.1" style="fill:none;fill-rule:evenodd;stroke:#000000;stroke-width:2.0px;stroke-linecap:butt;stroke-linejoin:miter;stroke-opacity:1"/>
<path class="bond-4 atom-4 atom-5" d="M 716.3,100.1 L 708.3,98.9" style="fill:none;fill-rule:evenodd;stroke:#000000;stroke-width:2.0px;stroke-linecap:butt;stroke-linejoin:miter;stroke-opacity:1"/>
<path class="bond-4 atom-4 atom-5" d="M 708.3,98.9 L 700.2,97.7" style="fill:none;fill-rule:evenodd;stroke:#CCCC00;stroke-width:2.0px;stroke-linecap:butt;stroke-linejoin:miter;stroke-opacity:1"/>
<path class="bond-5 atom-5 atom-6" d="M 699.8,94.3 L 700.7,88.4" style="fill:none;fill-rule:evenodd;stroke:#CCCC00;stroke-width:2.0px;stroke-linecap:butt;stroke-linejoin:miter;stroke-opacity:1"/>
<path class="bond-5 atom-5 atom-6" d="M 700.7,88.4 L 701.5,82.5" style="fill:none;fill-rule:evenodd;stroke:#FF0000;stroke-width:2.0px;stroke-linecap:butt;stroke-linejoin:miter;stroke-opacity:1"/>
<path class="bond-5 atom-5 atom-6" d="M 697.0,93.9 L 697.9,88.0" style="fill:none;fill-rule:evenodd;stroke:#CCCC00;stroke-width:2.0px;stroke-linecap:butt;stroke-linejoin:miter;stroke-opacity:1"/>
<path class="bond-5 atom-5 atom-6" d="M 697.9,88.0 L 698.8,82.1" style="fill:none;fill-rule:evenodd;stroke:#FF0000;stroke-width:2.0px;stroke-linecap:butt;stroke-linejoin:miter;stroke-opacity:1"/>
<path class="bond-6 atom-5 atom-7" d="M 696.0,100.5 L 695.1,106.4" style="fill:none;fill-rule:evenodd;stroke:#CCCC00;stroke-width:2.0px;stroke-linecap:butt;stroke-linejoin:miter;stroke-opacity:1"/>
<path class="bond-6 atom-5 atom-7" d="M 695.1,106.4 L 694.2,112.3" style="fill:none;fill-rule:evenodd;stroke:#FF0000;stroke-width:2.0px;stroke-linecap:butt;stroke-linejoin:miter;stroke-opacity:1"/>
<path class="bond-6 atom-5 atom-7" d="M 698.8,101.0 L 697.9,106.8" style="fill:none;fill-rule:evenodd;stroke:#CCCC00;stroke-width:2.0px;stroke-linecap:butt;stroke-linejoin:miter;stroke-opacity:1"/>
<path class="bond-6 atom-5 atom-7" d="M 697.9,106.8 L 697.0,112.7" style="fill:none;fill-rule:evenodd;stroke:#FF0000;stroke-width:2.0px;stroke-linecap:butt;stroke-linejoin:miter;stroke-opacity:1"/>
<path class="bond-7 atom-5 atom-8" d="M 695.6,97.0 L 688.8,96.0" style="fill:none;fill-rule:evenodd;stroke:#CCCC00;stroke-width:2.0px;stroke-linecap:butt;stroke-linejoin:miter;stroke-opacity:1"/>
<path class="bond-7 atom-5 atom-8" d="M 688.8,96.0 L 682.0,95.0" style="fill:none;fill-rule:evenodd;stroke:#0000FF;stroke-width:2.0px;stroke-linecap:butt;stroke-linejoin:miter;stroke-opacity:1"/>
<path class="bond-8 atom-8 atom-9" d="M 680.5,91.3 L 682.9,84.1" style="fill:none;fill-rule:evenodd;stroke:#0000FF;stroke-width:2.0px;stroke-linecap:butt;stroke-linejoin:miter;stroke-opacity:1"/>
<path class="bond-8 atom-8 atom-9" d="M 682.9,84.1 L 685.4,76.9" style="fill:none;fill-rule:evenodd;stroke:#000000;stroke-width:2.0px;stroke-linecap:butt;stroke-linejoin:miter;stroke-opacity:1"/>
<path class="bond-9 atom-8 atom-10" d="M 679.5,97.8 L 679.7,105.5" style="fill:none;fill-rule:evenodd;stroke:#0000FF;stroke-width:2.0px;stroke-linecap:butt;stroke-linejoin:miter;stroke-opacity:1"/>
<path class="bond-9 atom-8 atom-10" d="M 679.7,105.5 L 679.9,113.2" style="fill:none;fill-rule:evenodd;stroke:#000000;stroke-width:2.0px;stroke-linecap:butt;stroke-linejoin:miter;stroke-opacity:1"/>
<path class="bond-10 atom-10 atom-11" d="M 679.9,113.2 L 664.0,123.0" style="fill:none;fill-rule:evenodd;stroke:#000000;stroke-width:2.0px;stroke-linecap:butt;stroke-linejoin:miter;stroke-opacity:1"/>
<path class="bond-11 atom-11 atom-12" d="M 664.0,123.0 L 657.1,119.2" style="fill:none;fill-rule:evenodd;stroke:#000000;stroke-width:2.0px;stroke-linecap:butt;stroke-linejoin:miter;stroke-opacity:1"/>
<path class="bond-11 atom-11 atom-12" d="M 657.1,119.2 L 650.2,115.5" style="fill:none;fill-rule:evenodd;stroke:#0000FF;stroke-width:2.0px;stroke-linecap:butt;stroke-linejoin:miter;stroke-opacity:1"/>
<path class="bond-12 atom-12 atom-13" d="M 645.0,115.6 L 638.3,119.7" style="fill:none;fill-rule:evenodd;stroke:#0000FF;stroke-width:2.0px;stroke-linecap:butt;stroke-linejoin:miter;stroke-opacity:1"/>
<path class="bond-12 atom-12 atom-13" d="M 638.3,119.7 L 631.6,123.8" style="fill:none;fill-rule:evenodd;stroke:#000000;stroke-width:2.0px;stroke-linecap:butt;stroke-linejoin:miter;stroke-opacity:1"/>
<path class="bond-13 atom-12 atom-14" d="M 647.5,110.8 L 647.3,103.1" style="fill:none;fill-rule:evenodd;stroke:#0000FF;stroke-width:2.0px;stroke-linecap:butt;stroke-linejoin:miter;stroke-opacity:1"/>
<path class="bond-13 atom-12 atom-14" d="M 647.3,103.1 L 647.1,95.4" style="fill:none;fill-rule:evenodd;stroke:#000000;stroke-width:2.0px;stroke-linecap:butt;stroke-linejoin:miter;stroke-opacity:1"/>
<path class="bond-14 atom-14 atom-15" d="M 648.5,94.5 L 641.5,90.7" style="fill:none;fill-rule:evenodd;stroke:#000000;stroke-width:2.0px;stroke-linecap:butt;stroke-linejoin:miter;stroke-opacity:1"/>
<path class="bond-14 atom-14 atom-15" d="M 641.5,90.7 L 634.4,86.9" style="fill:none;fill-rule:evenodd;stroke:#FF0000;stroke-width:2.0px;stroke-linecap:butt;stroke-linejoin:miter;stroke-opacity:1"/>
<path class="bond-14 atom-14 atom-15" d="M 647.1,97.0 L 640.1,93.2" style="fill:none;fill-rule:evenodd;stroke:#000000;stroke-width:2.0px;stroke-linecap:butt;stroke-linejoin:miter;stroke-opacity:1"/>
<path class="bond-14 atom-14 atom-15" d="M 640.1,93.2 L 633.1,89.3" style="fill:none;fill-rule:evenodd;stroke:#FF0000;stroke-width:2.0px;stroke-linecap:butt;stroke-linejoin:miter;stroke-opacity:1"/>
<path class="bond-15 atom-14 atom-16" d="M 647.1,95.4 L 663.0,85.6" style="fill:none;fill-rule:evenodd;stroke:#000000;stroke-width:2.0px;stroke-linecap:butt;stroke-linejoin:miter;stroke-opacity:1"/>
<path class="bond-16 atom-4 atom-17" d="M 716.3,100.1 L 728.0,85.5" style="fill:none;fill-rule:evenodd;stroke:#000000;stroke-width:2.0px;stroke-linecap:butt;stroke-linejoin:miter;stroke-opacity:1"/>
<path class="bond-17 atom-17 atom-18" d="M 728.0,85.5 L 736.1,86.8" style="fill:none;fill-rule:evenodd;stroke:#000000;stroke-width:2.0px;stroke-linecap:butt;stroke-linejoin:miter;stroke-opacity:1"/>
<path class="bond-17 atom-17 atom-18" d="M 736.1,86.8 L 744.1,88.0" style="fill:none;fill-rule:evenodd;stroke:#CCCC00;stroke-width:2.0px;stroke-linecap:butt;stroke-linejoin:miter;stroke-opacity:1"/>
<path class="bond-18 atom-18 atom-1" d="M 747.8,91.7 L 750.5,98.7" style="fill:none;fill-rule:evenodd;stroke:#CCCC00;stroke-width:2.0px;stroke-linecap:butt;stroke-linejoin:miter;stroke-opacity:1"/>
<path class="bond-18 atom-18 atom-1" d="M 750.5,98.7 L 753.3,105.7" style="fill:none;fill-rule:evenodd;stroke:#000000;stroke-width:2.0px;stroke-linecap:butt;stroke-linejoin:miter;stroke-opacity:1"/>
<path class="bond-19 atom-16 atom-8" d="M 663.0,85.6 L 669.9,89.4" style="fill:none;fill-rule:evenodd;stroke:#000000;stroke-width:2.0px;stroke-linecap:butt;stroke-linejoin:miter;stroke-opacity:1"/>
<path class="bond-19 atom-16 atom-8" d="M 669.9,89.4 L 676.8,93.1" style="fill:none;fill-rule:evenodd;stroke:#0000FF;stroke-width:2.0px;stroke-linecap:butt;stroke-linejoin:miter;stroke-opacity:1"/>
<path d="M 742.2,119.6 L 741.6,120.3 L 740.7,120.2" style="fill:none;stroke:#000000;stroke-width:2.0px;stroke-linecap:butt;stroke-linejoin:miter;stroke-opacity:1;"/>
<path d="M 724.1,117.7 L 723.2,117.5 L 722.8,116.6" style="fill:none;stroke:#000000;stroke-width:2.0px;stroke-linecap:butt;stroke-linejoin:miter;stroke-opacity:1;"/>
<path d="M 679.9,112.8 L 679.9,113.2 L 679.1,113.7" style="fill:none;stroke:#000000;stroke-width:2.0px;stroke-linecap:butt;stroke-linejoin:miter;stroke-opacity:1;"/>
<path d="M 664.8,122.5 L 664.0,123.0 L 663.6,122.8" style="fill:none;stroke:#000000;stroke-width:2.0px;stroke-linecap:butt;stroke-linejoin:miter;stroke-opacity:1;"/>
<path d="M 647.1,95.8 L 647.1,95.4 L 647.9,94.9" style="fill:none;stroke:#000000;stroke-width:2.0px;stroke-linecap:butt;stroke-linejoin:miter;stroke-opacity:1;"/>
<path d="M 662.2,86.1 L 663.0,85.6 L 663.4,85.8" style="fill:none;stroke:#000000;stroke-width:2.0px;stroke-linecap:butt;stroke-linejoin:miter;stroke-opacity:1;"/>
<path d="M 727.4,86.3 L 728.0,85.5 L 728.4,85.6" style="fill:none;stroke:#000000;stroke-width:2.0px;stroke-linecap:butt;stroke-linejoin:miter;stroke-opacity:1;"/>
<path class="atom-5" d="M 696.4 99.2 Q 696.5 99.2, 696.7 99.3 Q 696.9 99.4, 697.2 99.5 Q 697.5 99.5, 697.8 99.5 Q 698.3 99.5, 698.5 99.3 Q 698.8 99.0, 698.8 98.6 Q 698.8 98.3, 698.7 98.1 Q 698.5 98.0, 698.3 97.9 Q 698.1 97.8, 697.7 97.7 Q 697.3 97.5, 697.0 97.4 Q 696.7 97.3, 696.5 97.0 Q 696.3 96.7, 696.3 96.2 Q 696.3 95.5, 696.7 95.1 Q 697.2 94.7, 698.1 94.7 Q 698.7 94.7, 699.4 95.0 L 699.2 95.6 Q 698.6 95.3, 698.1 95.3 Q 697.6 95.3, 697.3 95.5 Q 697.0 95.8, 697.0 96.1 Q 697.0 96.4, 697.2 96.6 Q 697.3 96.7, 697.5 96.8 Q 697.8 96.9, 698.1 97.1 Q 698.6 97.2, 698.9 97.4 Q 699.2 97.5, 699.4 97.8 Q 699.6 98.1, 699.6 98.6 Q 699.6 99.4, 699.1 99.7 Q 698.6 100.1, 697.8 100.1 Q 697.3 100.1, 697.0 100.0 Q 696.6 99.9, 696.2 99.8 L 696.4 99.2 " fill="#CCCC00"/>
<path class="atom-6" d="M 698.2 78.9 Q 698.2 77.6, 698.9 76.9 Q 699.5 76.2, 700.7 76.2 Q 701.8 76.2, 702.5 76.9 Q 703.1 77.6, 703.1 78.9 Q 703.1 80.2, 702.5 80.9 Q 701.8 81.7, 700.7 81.7 Q 699.5 81.7, 698.9 80.9 Q 698.2 80.2, 698.2 78.9 M 700.7 81.1 Q 701.5 81.1, 701.9 80.5 Q 702.3 80.0, 702.3 78.9 Q 702.3 77.9, 701.9 77.4 Q 701.5 76.8, 700.7 76.8 Q 699.9 76.8, 699.4 77.3 Q 699.0 77.9, 699.0 78.9 Q 699.0 80.0, 699.4 80.5 Q 699.9 81.1, 700.7 81.1 " fill="#FF0000"/>
<path class="atom-7" d="M 692.7 115.8 Q 692.7 114.6, 693.3 113.9 Q 693.9 113.1, 695.1 113.1 Q 696.3 113.1, 696.9 113.9 Q 697.5 114.6, 697.5 115.8 Q 697.5 117.1, 696.9 117.8 Q 696.3 118.6, 695.1 118.6 Q 693.9 118.6, 693.3 117.8 Q 692.7 117.1, 692.7 115.8 M 695.1 118.0 Q 695.9 118.0, 696.3 117.4 Q 696.8 116.9, 696.8 115.8 Q 696.8 114.8, 696.3 114.3 Q 695.9 113.7, 695.1 113.7 Q 694.3 113.7, 693.9 114.3 Q 693.4 114.8, 693.4 115.8 Q 693.4 116.9, 693.9 117.4 Q 694.3 118.0, 695.1 118.0 " fill="#FF0000"/>
<path class="atom-8" d="M 678.3 91.9 L 680.0 94.7 Q 680.2 95.0, 680.4 95.5 Q 680.7 96.0, 680.7 96.0 L 680.7 91.9 L 681.4 91.9 L 681.4 97.2 L 680.7 97.2 L 678.8 94.2 Q 678.6 93.8, 678.4 93.4 Q 678.2 93.0, 678.1 92.9 L 678.1 97.2 L 677.4 97.2 L 677.4 91.9 L 678.3 91.9 " fill="#0000FF"/>
<path class="atom-8" d="M 682.4 92.9 L 683.4 92.9 L 683.4 91.9 L 683.8 91.9 L 683.8 92.9 L 684.7 92.9 L 684.7 93.2 L 683.8 93.2 L 683.8 94.2 L 683.4 94.2 L 683.4 93.2 L 682.4 93.2 L 682.4 92.9 " fill="#0000FF"/>
<path class="atom-12" d="M 646.4 111.4 L 648.1 114.2 Q 648.3 114.5, 648.6 115.0 Q 648.9 115.5, 648.9 115.5 L 648.9 111.4 L 649.6 111.4 L 649.6 116.7 L 648.9 116.7 L 647.0 113.6 Q 646.8 113.3, 646.5 112.9 Q 646.3 112.4, 646.3 112.3 L 646.3 116.7 L 645.6 116.7 L 645.6 111.4 L 646.4 111.4 " fill="#0000FF"/>
<path class="atom-15" d="M 628.3 86.5 Q 628.3 85.2, 628.9 84.5 Q 629.5 83.8, 630.7 83.8 Q 631.9 83.8, 632.5 84.5 Q 633.1 85.2, 633.1 86.5 Q 633.1 87.8, 632.5 88.5 Q 631.9 89.2, 630.7 89.2 Q 629.6 89.2, 628.9 88.5 Q 628.3 87.8, 628.3 86.5 M 630.7 88.6 Q 631.5 88.6, 632.0 88.1 Q 632.4 87.5, 632.4 86.5 Q 632.4 85.4, 632.0 84.9 Q 631.5 84.4, 630.7 84.4 Q 629.9 84.4, 629.5 84.9 Q 629.0 85.4, 629.0 86.5 Q 629.0 87.5, 629.5 88.1 Q 629.9 88.6, 630.7 88.6 " fill="#FF0000"/>
<path class="atom-18" d="M 744.9 90.1 Q 745.0 90.2, 745.2 90.3 Q 745.5 90.4, 745.8 90.4 Q 746.0 90.5, 746.3 90.5 Q 746.8 90.5, 747.1 90.3 Q 747.4 90.0, 747.4 89.6 Q 747.4 89.3, 747.2 89.1 Q 747.1 88.9, 746.9 88.8 Q 746.7 88.7, 746.3 88.6 Q 745.8 88.5, 745.5 88.4 Q 745.2 88.2, 745.0 87.9 Q 744.9 87.7, 744.9 87.2 Q 744.9 86.5, 745.3 86.1 Q 745.8 85.7, 746.7 85.7 Q 747.3 85.7, 748.0 86.0 L 747.8 86.6 Q 747.2 86.3, 746.7 86.3 Q 746.2 86.3, 745.9 86.5 Q 745.6 86.7, 745.6 87.1 Q 745.6 87.4, 745.7 87.5 Q 745.9 87.7, 746.1 87.8 Q 746.3 87.9, 746.7 88.0 Q 747.2 88.2, 747.4 88.3 Q 747.7 88.5, 747.9 88.8 Q 748.1 89.1, 748.1 89.6 Q 748.1 90.3, 747.6 90.7 Q 747.2 91.1, 746.3 91.1 Q 745.9 91.1, 745.5 91.0 Q 745.2 90.9, 744.7 90.7 L 744.9 90.1 " fill="#CCCC00"/>
<path class="bond-0 atom-0 atom-1" d="M 825.7,103.2 L 839.5,115.8" style="fill:none;fill-rule:evenodd;stroke:#000000;stroke-width:2.0px;stroke-linecap:butt;stroke-linejoin:miter;stroke-opacity:1"/>
<path class="bond-1 atom-1 atom-2" d="M 839.5,115.8 L 857.3,110.2" style="fill:none;fill-rule:evenodd;stroke:#000000;stroke-width:2.0px;stroke-linecap:butt;stroke-linejoin:miter;stroke-opacity:1"/>
<path class="bond-2 atom-2 atom-3" d="M 857.3,110.2 L 861.3,92.0" style="fill:none;fill-rule:evenodd;stroke:#000000;stroke-width:2.0px;stroke-linecap:butt;stroke-linejoin:miter;stroke-opacity:1"/>
<path class="bond-2 atom-2 atom-3" d="M 860.4,109.2 L 863.7,94.1" style="fill:none;fill-rule:evenodd;stroke:#000000;stroke-width:2.0px;stroke-linecap:butt;stroke-linejoin:miter;stroke-opacity:1"/>
<path class="bond-3 atom-3 atom-4" d="M 861.3,92.0 L 879.1,86.3" style="fill:none;fill-rule:evenodd;stroke:#000000;stroke-width:2.0px;stroke-linecap:butt;stroke-linejoin:miter;stroke-opacity:1"/>
<path class="bond-4 atom-4 atom-5" d="M 879.1,86.3 L 892.9,98.9" style="fill:none;fill-rule:evenodd;stroke:#000000;stroke-width:2.0px;stroke-linecap:butt;stroke-linejoin:miter;stroke-opacity:1"/>
<path class="bond-4 atom-4 atom-5" d="M 878.4,89.5 L 889.8,99.9" style="fill:none;fill-rule:evenodd;stroke:#000000;stroke-width:2.0px;stroke-linecap:butt;stroke-linejoin:miter;stroke-opacity:1"/>
<path class="bond-5 atom-5 atom-6" d="M 892.9,98.9 L 900.6,96.5" style="fill:none;fill-rule:evenodd;stroke:#000000;stroke-width:2.0px;stroke-linecap:butt;stroke-linejoin:miter;stroke-opacity:1"/>
<path class="bond-5 atom-5 atom-6" d="M 900.6,96.5 L 908.4,94.0" style="fill:none;fill-rule:evenodd;stroke:#CCCC00;stroke-width:2.0px;stroke-linecap:butt;stroke-linejoin:miter;stroke-opacity:1"/>
<path class="bond-6 atom-6 atom-7" d="M 910.4,97.1 L 912.2,102.6" style="fill:none;fill-rule:evenodd;stroke:#CCCC00;stroke-width:2.0px;stroke-linecap:butt;stroke-linejoin:miter;stroke-opacity:1"/>
<path class="bond-6 atom-6 atom-7" d="M 912.2,102.6 L 913.9,108.2" style="fill:none;fill-rule:evenodd;stroke:#FF0000;stroke-width:2.0px;stroke-linecap:butt;stroke-linejoin:miter;stroke-opacity:1"/>
<path class="bond-6 atom-6 atom-7" d="M 913.1,96.2 L 914.9,101.8" style="fill:none;fill-rule:evenodd;stroke:#CCCC00;stroke-width:2.0px;stroke-linecap:butt;stroke-linejoin:miter;stroke-opacity:1"/>
<path class="bond-6 atom-6 atom-7" d="M 914.9,101.8 L 916.6,107.3" style="fill:none;fill-rule:evenodd;stroke:#FF0000;stroke-width:2.0px;stroke-linecap:butt;stroke-linejoin:miter;stroke-opacity:1"/>
<path class="bond-7 atom-6 atom-8" d="M 911.0,89.6 L 909.2,84.0" style="fill:none;fill-rule:evenodd;stroke:#CCCC00;stroke-width:2.0px;stroke-linecap:butt;stroke-linejoin:miter;stroke-opacity:1"/>
<path class="bond-7 atom-6 atom-8" d="M 909.2,84.0 L 907.4,78.4" style="fill:none;fill-rule:evenodd;stroke:#FF0000;stroke-width:2.0px;stroke-linecap:butt;stroke-linejoin:miter;stroke-opacity:1"/>
<path class="bond-7 atom-6 atom-8" d="M 908.3,90.4 L 906.5,84.9" style="fill:none;fill-rule:evenodd;stroke:#CCCC00;stroke-width:2.0px;stroke-linecap:butt;stroke-linejoin:miter;stroke-opacity:1"/>
<path class="bond-7 atom-6 atom-8" d="M 906.5,84.9 L 904.8,79.3" style="fill:none;fill-rule:evenodd;stroke:#FF0000;stroke-width:2.0px;stroke-linecap:butt;stroke-linejoin:miter;stroke-opacity:1"/>
<path class="bond-8 atom-6 atom-9" d="M 913.0,92.5 L 919.4,90.5" style="fill:none;fill-rule:evenodd;stroke:#CCCC00;stroke-width:2.0px;stroke-linecap:butt;stroke-linejoin:miter;stroke-opacity:1"/>
<path class="bond-8 atom-6 atom-9" d="M 919.4,90.5 L 925.9,88.5" style="fill:none;fill-rule:evenodd;stroke:#0000FF;stroke-width:2.0px;stroke-linecap:butt;stroke-linejoin:miter;stroke-opacity:1"/>
<path class="bond-9 atom-9 atom-10" d="M 929.2,84.4 L 930.8,76.9" style="fill:none;fill-rule:evenodd;stroke:#0000FF;stroke-width:2.0px;stroke-linecap:butt;stroke-linejoin:miter;stroke-opacity:1"/>
<path class="bond-9 atom-9 atom-10" d="M 930.8,76.9 L 932.5,69.4" style="fill:none;fill-rule:evenodd;stroke:#000000;stroke-width:2.0px;stroke-linecap:butt;stroke-linejoin:miter;stroke-opacity:1"/>
<path class="bond-10 atom-9 atom-11" d="M 931.1,90.0 L 935.5,94.1" style="fill:none;fill-rule:evenodd;stroke:#0000FF;stroke-width:2.0px;stroke-linecap:butt;stroke-linejoin:miter;stroke-opacity:1"/>
<path class="bond-10 atom-9 atom-11" d="M 935.5,94.1 L 939.9,98.1" style="fill:none;fill-rule:evenodd;stroke:#CCCC00;stroke-width:2.0px;stroke-linecap:butt;stroke-linejoin:miter;stroke-opacity:1"/>
<path class="bond-11 atom-11 atom-12" d="M 945.6,98.6 L 949.2,94.7" style="fill:none;fill-rule:evenodd;stroke:#CCCC00;stroke-width:2.0px;stroke-linecap:butt;stroke-linejoin:miter;stroke-opacity:1"/>
<path class="bond-11 atom-11 atom-12" d="M 949.2,94.7 L 952.8,90.7" style="fill:none;fill-rule:evenodd;stroke:#FF0000;stroke-width:2.0px;stroke-linecap:butt;stroke-linejoin:miter;stroke-opacity:1"/>
<path class="bond-11 atom-11 atom-12" d="M 943.5,96.7 L 947.2,92.8" style="fill:none;fill-rule:evenodd;stroke:#CCCC00;stroke-width:2.0px;stroke-linecap:butt;stroke-linejoin:miter;stroke-opacity:1"/>
<path class="bond-11 atom-11 atom-12" d="M 947.2,92.8 L 950.8,88.8" style="fill:none;fill-rule:evenodd;stroke:#FF0000;stroke-width:2.0px;stroke-linecap:butt;stroke-linejoin:miter;stroke-opacity:1"/>
<path class="bond-12 atom-11 atom-13" d="M 939.6,103.2 L 936.1,106.9" style="fill:none;fill-rule:evenodd;stroke:#CCCC00;stroke-width:2.0px;stroke-linecap:butt;stroke-linejoin:miter;stroke-opacity:1"/>
<path class="bond-12 atom-11 atom-13" d="M 936.1,106.9 L 932.7,110.7" style="fill:none;fill-rule:evenodd;stroke:#FF0000;stroke-width:2.0px;stroke-linecap:butt;stroke-linejoin:miter;stroke-opacity:1"/>
<path class="bond-13 atom-11 atom-14" d="M 944.6,102.3 L 949.0,106.4" style="fill:none;fill-rule:evenodd;stroke:#CCCC00;stroke-width:2.0px;stroke-linecap:butt;stroke-linejoin:miter;stroke-opacity:1"/>
<path class="bond-13 atom-11 atom-14" d="M 949.0,106.4 L 953.4,110.4" style="fill:none;fill-rule:evenodd;stroke:#0000FF;stroke-width:2.0px;stroke-linecap:butt;stroke-linejoin:miter;stroke-opacity:1"/>
<path class="bond-14 atom-14 atom-15" d="M 958.7,113.4 L 966.5,115.1" style="fill:none;fill-rule:evenodd;stroke:#0000FF;stroke-width:2.0px;stroke-linecap:butt;stroke-linejoin:miter;stroke-opacity:1"/>
<path class="bond-14 atom-14 atom-15" d="M 966.5,115.1 L 974.3,116.8" style="fill:none;fill-rule:evenodd;stroke:#000000;stroke-width:2.0px;stroke-linecap:butt;stroke-linejoin:miter;stroke-opacity:1"/>
<path class="bond-15 atom-15 atom-16" d="M 974.3,116.8 L 961.7,130.6" style="fill:none;fill-rule:evenodd;stroke:#000000;stroke-width:2.0px;stroke-linecap:butt;stroke-linejoin:miter;stroke-opacity:1"/>
<path class="bond-16 atom-5 atom-17" d="M 892.9,98.9 L 888.9,117.1" style="fill:none;fill-rule:evenodd;stroke:#000000;stroke-width:2.0px;stroke-linecap:butt;stroke-linejoin:miter;stroke-opacity:1"/>
<path class="bond-17 atom-17 atom-18" d="M 888.9,117.1 L 871.1,122.8" style="fill:none;fill-rule:evenodd;stroke:#000000;stroke-width:2.0px;stroke-linecap:butt;stroke-linejoin:miter;stroke-opacity:1"/>
<path class="bond-17 atom-17 atom-18" d="M 886.5,115.0 L 871.8,119.6" style="fill:none;fill-rule:evenodd;stroke:#000000;stroke-width:2.0px;stroke-linecap:butt;stroke-linejoin:miter;stroke-opacity:1"/>
<path class="bond-18 atom-18 atom-2" d="M 871.1,122.8 L 857.3,110.2" style="fill:none;fill-rule:evenodd;stroke:#000000;stroke-width:2.0px;stroke-linecap:butt;stroke-linejoin:miter;stroke-opacity:1"/>
<path class="bond-19 atom-16 atom-14" d="M 961.7,130.6 L 959.4,123.3" style="fill:none;fill-rule:evenodd;stroke:#000000;stroke-width:2.0px;stroke-linecap:butt;stroke-linejoin:miter;stroke-opacity:1"/>
<path class="bond-19 atom-16 atom-14" d="M 959.4,123.3 L 957.1,116.1" style="fill:none;fill-rule:evenodd;stroke:#0000FF;stroke-width:2.0px;stroke-linecap:butt;stroke-linejoin:miter;stroke-opacity:1"/>
<path d="M 838.8,115.2 L 839.5,115.8 L 840.4,115.5" style="fill:none;stroke:#000000;stroke-width:2.0px;stroke-linecap:butt;stroke-linejoin:miter;stroke-opacity:1;"/>
<path d="M 861.1,92.9 L 861.3,92.0 L 862.2,91.7" style="fill:none;stroke:#000000;stroke-width:2.0px;stroke-linecap:butt;stroke-linejoin:miter;stroke-opacity:1;"/>
<path d="M 878.2,86.6 L 879.1,86.3 L 879.8,86.9" style="fill:none;stroke:#000000;stroke-width:2.0px;stroke-linecap:butt;stroke-linejoin:miter;stroke-opacity:1;"/>
<path d="M 973.9,116.7 L 974.3,116.8 L 973.6,117.5" style="fill:none;stroke:#000000;stroke-width:2.0px;stroke-linecap:butt;stroke-linejoin:miter;stroke-opacity:1;"/>
<path d="M 962.3,129.9 L 961.7,130.6 L 961.6,130.2" style="fill:none;stroke:#000000;stroke-width:2.0px;stroke-linecap:butt;stroke-linejoin:miter;stroke-opacity:1;"/>
<path d="M 889.1,116.2 L 888.9,117.1 L 888.0,117.4" style="fill:none;stroke:#000000;stroke-width:2.0px;stroke-linecap:butt;stroke-linejoin:miter;stroke-opacity:1;"/>
<path d="M 872.0,122.5 L 871.1,122.8 L 870.4,122.1" style="fill:none;stroke:#000000;stroke-width:2.0px;stroke-linecap:butt;stroke-linejoin:miter;stroke-opacity:1;"/>
<path class="atom-6" d="M 909.2 95.1 Q 909.3 95.1, 909.5 95.2 Q 909.7 95.3, 910.0 95.4 Q 910.3 95.4, 910.6 95.4 Q 911.1 95.4, 911.3 95.2 Q 911.6 95.0, 911.6 94.5 Q 911.6 94.2, 911.5 94.1 Q 911.3 93.9, 911.1 93.8 Q 910.9 93.7, 910.5 93.6 Q 910.1 93.4, 909.8 93.3 Q 909.5 93.2, 909.3 92.9 Q 909.1 92.6, 909.1 92.1 Q 909.1 91.5, 909.5 91.0 Q 910.0 90.6, 910.9 90.6 Q 911.5 90.6, 912.2 90.9 L 912.0 91.5 Q 911.4 91.2, 910.9 91.2 Q 910.4 91.2, 910.1 91.5 Q 909.8 91.7, 909.8 92.0 Q 909.8 92.3, 910.0 92.5 Q 910.1 92.7, 910.3 92.8 Q 910.6 92.9, 910.9 93.0 Q 911.4 93.1, 911.7 93.3 Q 912.0 93.4, 912.2 93.7 Q 912.4 94.0, 912.4 94.5 Q 912.4 95.3, 911.9 95.7 Q 911.4 96.0, 910.6 96.0 Q 910.1 96.0, 909.8 95.9 Q 909.4 95.8, 909.0 95.7 L 909.2 95.1 " fill="#CCCC00"/>
<path class="atom-7" d="M 913.9 111.1 Q 913.9 109.8, 914.5 109.1 Q 915.2 108.4, 916.3 108.4 Q 917.5 108.4, 918.1 109.1 Q 918.8 109.8, 918.8 111.1 Q 918.8 112.4, 918.1 113.1 Q 917.5 113.8, 916.3 113.8 Q 915.2 113.8, 914.5 113.1 Q 913.9 112.4, 913.9 111.1 M 916.3 113.2 Q 917.1 113.2, 917.6 112.7 Q 918.0 112.1, 918.0 111.1 Q 918.0 110.0, 917.6 109.5 Q 917.1 109.0, 916.3 109.0 Q 915.5 109.0, 915.1 109.5 Q 914.6 110.0, 914.6 111.1 Q 914.6 112.1, 915.1 112.7 Q 915.5 113.2, 916.3 113.2 " fill="#FF0000"/>
<path class="atom-8" d="M 902.6 75.5 Q 902.6 74.2, 903.2 73.5 Q 903.9 72.8, 905.0 72.8 Q 906.2 72.8, 906.8 73.5 Q 907.5 74.2, 907.5 75.5 Q 907.5 76.8, 906.8 77.5 Q 906.2 78.2, 905.0 78.2 Q 903.9 78.2, 903.2 77.5 Q 902.6 76.8, 902.6 75.5 M 905.0 77.6 Q 905.9 77.6, 906.3 77.1 Q 906.7 76.6, 906.7 75.5 Q 906.7 74.5, 906.3 73.9 Q 905.9 73.4, 905.0 73.4 Q 904.2 73.4, 903.8 73.9 Q 903.4 74.4, 903.4 75.5 Q 903.4 76.6, 903.8 77.1 Q 904.2 77.6, 905.0 77.6 " fill="#FF0000"/>
<path class="atom-9" d="M 927.3 85.0 L 929.0 87.8 Q 929.2 88.1, 929.5 88.6 Q 929.8 89.1, 929.8 89.1 L 929.8 85.0 L 930.5 85.0 L 930.5 90.3 L 929.8 90.3 L 927.9 87.2 Q 927.7 86.9, 927.5 86.4 Q 927.2 86.0, 927.2 85.9 L 927.2 90.3 L 926.5 90.3 L 926.5 85.0 L 927.3 85.0 " fill="#0000FF"/>
<path class="atom-11" d="M 940.8 102.0 Q 940.8 102.1, 941.1 102.2 Q 941.3 102.3, 941.6 102.3 Q 941.9 102.4, 942.1 102.4 Q 942.6 102.4, 942.9 102.2 Q 943.2 101.9, 943.2 101.5 Q 943.2 101.2, 943.1 101.0 Q 942.9 100.8, 942.7 100.7 Q 942.5 100.6, 942.1 100.5 Q 941.6 100.4, 941.3 100.2 Q 941.1 100.1, 940.9 99.8 Q 940.7 99.5, 940.7 99.1 Q 940.7 98.4, 941.1 98.0 Q 941.6 97.6, 942.5 97.6 Q 943.1 97.6, 943.8 97.9 L 943.6 98.4 Q 943.0 98.2, 942.5 98.2 Q 942.0 98.2, 941.7 98.4 Q 941.4 98.6, 941.4 99.0 Q 941.4 99.3, 941.6 99.4 Q 941.7 99.6, 941.9 99.7 Q 942.1 99.8, 942.5 99.9 Q 943.0 100.1, 943.3 100.2 Q 943.5 100.4, 943.7 100.7 Q 944.0 101.0, 944.0 101.5 Q 944.0 102.2, 943.5 102.6 Q 943.0 103.0, 942.2 103.0 Q 941.7 103.0, 941.3 102.9 Q 941.0 102.8, 940.6 102.6 L 940.8 102.0 " fill="#CCCC00"/>
<path class="atom-11" d="M 940.2 103.5 L 940.9 103.5 L 940.9 105.8 L 943.6 105.8 L 943.6 103.5 L 944.3 103.5 L 944.3 108.8 L 943.6 108.8 L 943.6 106.4 L 940.9 106.4 L 940.9 108.8 L 940.2 108.8 L 940.2 103.5 " fill="#CCCC00"/>
<path class="atom-12" d="M 952.4 86.5 Q 952.4 85.2, 953.0 84.5 Q 953.7 83.8, 954.8 83.8 Q 956.0 83.8, 956.6 84.5 Q 957.3 85.2, 957.3 86.5 Q 957.3 87.7, 956.6 88.5 Q 956.0 89.2, 954.8 89.2 Q 953.7 89.2, 953.0 88.5 Q 952.4 87.7, 952.4 86.5 M 954.8 88.6 Q 955.7 88.6, 956.1 88.1 Q 956.5 87.5, 956.5 86.5 Q 956.5 85.4, 956.1 84.9 Q 955.7 84.4, 954.8 84.4 Q 954.0 84.4, 953.6 84.9 Q 953.2 85.4, 953.2 86.5 Q 953.2 87.5, 953.6 88.1 Q 954.0 88.6, 954.8 88.6 " fill="#FF0000"/>
<path class="atom-13" d="M 922.0 111.4 L 922.7 111.4 L 922.7 113.6 L 925.4 113.6 L 925.4 111.4 L 926.2 111.4 L 926.2 116.7 L 925.4 116.7 L 925.4 114.2 L 922.7 114.2 L 922.7 116.7 L 922.0 116.7 L 922.0 111.4 " fill="#FF0000"/>
<path class="atom-13" d="M 927.2 114.0 Q 927.2 112.7, 927.9 112.0 Q 928.5 111.3, 929.7 111.3 Q 930.8 111.3, 931.5 112.0 Q 932.1 112.7, 932.1 114.0 Q 932.1 115.3, 931.5 116.0 Q 930.8 116.8, 929.7 116.8 Q 928.5 116.8, 927.9 116.0 Q 927.2 115.3, 927.2 114.0 M 929.7 116.2 Q 930.5 116.2, 930.9 115.6 Q 931.3 115.1, 931.3 114.0 Q 931.3 113.0, 930.9 112.5 Q 930.5 111.9, 929.7 111.9 Q 928.9 111.9, 928.4 112.4 Q 928.0 113.0, 928.0 114.0 Q 928.0 115.1, 928.4 115.6 Q 928.9 116.2, 929.7 116.2 " fill="#FF0000"/>
<path class="atom-14" d="M 954.9 110.2 L 956.6 113.0 Q 956.8 113.2, 957.1 113.7 Q 957.3 114.2, 957.3 114.3 L 957.3 110.2 L 958.0 110.2 L 958.0 115.5 L 957.3 115.5 L 955.5 112.4 Q 955.2 112.0, 955.0 111.6 Q 954.8 111.2, 954.7 111.1 L 954.7 115.5 L 954.0 115.5 L 954.0 110.2 L 954.9 110.2 " fill="#0000FF"/>
<path class="bond-0 atom-0 atom-1" d="M 1141.8,133.3 L 1127.4,121.5" style="fill:none;fill-rule:evenodd;stroke:#000000;stroke-width:2.0px;stroke-linecap:butt;stroke-linejoin:miter;stroke-opacity:1"/>
<path class="bond-1 atom-1 atom-2" d="M 1127.4,121.5 L 1130.5,103.1" style="fill:none;fill-rule:evenodd;stroke:#000000;stroke-width:2.0px;stroke-linecap:butt;stroke-linejoin:miter;stroke-opacity:1"/>
<path class="bond-2 atom-2 atom-3" d="M 1130.5,103.1 L 1148.0,96.5" style="fill:none;fill-rule:evenodd;stroke:#000000;stroke-width:2.0px;stroke-linecap:butt;stroke-linejoin:miter;stroke-opacity:1"/>
<path class="bond-3 atom-3 atom-4" d="M 1148.0,96.5 L 1151.1,78.1" style="fill:none;fill-rule:evenodd;stroke:#000000;stroke-width:2.0px;stroke-linecap:butt;stroke-linejoin:miter;stroke-opacity:1"/>
<path class="bond-4 atom-4 atom-5" d="M 1152.6,77.6 L 1146.6,72.6" style="fill:none;fill-rule:evenodd;stroke:#000000;stroke-width:2.0px;stroke-linecap:butt;stroke-linejoin:miter;stroke-opacity:1"/>
<path class="bond-4 atom-4 atom-5" d="M 1146.6,72.6 L 1140.6,67.7" style="fill:none;fill-rule:evenodd;stroke:#FF0000;stroke-width:2.0px;stroke-linecap:butt;stroke-linejoin:miter;stroke-opacity:1"/>
<path class="bond-4 atom-4 atom-5" d="M 1150.8,79.7 L 1144.8,74.8" style="fill:none;fill-rule:evenodd;stroke:#000000;stroke-width:2.0px;stroke-linecap:butt;stroke-linejoin:miter;stroke-opacity:1"/>
<path class="bond-4 atom-4 atom-5" d="M 1144.8,74.8 L 1138.8,69.8" style="fill:none;fill-rule:evenodd;stroke:#FF0000;stroke-width:2.0px;stroke-linecap:butt;stroke-linejoin:miter;stroke-opacity:1"/>
<path class="bond-5 atom-4 atom-6" d="M 1151.1,78.1 L 1158.3,75.4" style="fill:none;fill-rule:evenodd;stroke:#000000;stroke-width:2.0px;stroke-linecap:butt;stroke-linejoin:miter;stroke-opacity:1"/>
<path class="bond-5 atom-4 atom-6" d="M 1158.3,75.4 L 1165.5,72.7" style="fill:none;fill-rule:evenodd;stroke:#FF0000;stroke-width:2.0px;stroke-linecap:butt;stroke-linejoin:miter;stroke-opacity:1"/>
<path class="bond-6 atom-1 atom-7" d="M 1127.4,121.5 L 1119.9,124.2" style="fill:none;fill-rule:evenodd;stroke:#000000;stroke-width:2.0px;stroke-linecap:butt;stroke-linejoin:miter;stroke-opacity:1"/>
<path class="bond-6 atom-1 atom-7" d="M 1119.9,124.2 L 1112.5,127.0" style="fill:none;fill-rule:evenodd;stroke:#0000FF;stroke-width:2.0px;stroke-linecap:butt;stroke-linejoin:miter;stroke-opacity:1"/>
<path class="bond-7 atom-7 atom-8" d="M 1107.3,125.8 L 1102.5,121.9" style="fill:none;fill-rule:evenodd;stroke:#0000FF;stroke-width:2.0px;stroke-linecap:butt;stroke-linejoin:miter;stroke-opacity:1"/>
<path class="bond-7 atom-7 atom-8" d="M 1102.5,121.9 L 1097.8,118.0" style="fill:none;fill-rule:evenodd;stroke:#CCCC00;stroke-width:2.0px;stroke-linecap:butt;stroke-linejoin:miter;stroke-opacity:1"/>
<path class="bond-8 atom-8 atom-9" d="M 1092.1,118.0 L 1088.7,122.1" style="fill:none;fill-rule:evenodd;stroke:#CCCC00;stroke-width:2.0px;stroke-linecap:butt;stroke-linejoin:miter;stroke-opacity:1"/>
<path class="bond-8 atom-8 atom-9" d="M 1088.7,122.1 L 1085.2,126.3" style="fill:none;fill-rule:evenodd;stroke:#FF0000;stroke-width:2.0px;stroke-linecap:butt;stroke-linejoin:miter;stroke-opacity:1"/>
<path class="bond-8 atom-8 atom-9" d="M 1094.3,119.8 L 1090.8,123.9" style="fill:none;fill-rule:evenodd;stroke:#CCCC00;stroke-width:2.0px;stroke-linecap:butt;stroke-linejoin:miter;stroke-opacity:1"/>
<path class="bond-8 atom-8 atom-9" d="M 1090.8,123.9 L 1087.4,128.1" style="fill:none;fill-rule:evenodd;stroke:#FF0000;stroke-width:2.0px;stroke-linecap:butt;stroke-linejoin:miter;stroke-opacity:1"/>
<path class="bond-9 atom-8 atom-10" d="M 1098.9,114.2 L 1102.3,110.1" style="fill:none;fill-rule:evenodd;stroke:#CCCC00;stroke-width:2.0px;stroke-linecap:butt;stroke-linejoin:miter;stroke-opacity:1"/>
<path class="bond-9 atom-8 atom-10" d="M 1102.3,110.1 L 1105.7,106.0" style="fill:none;fill-rule:evenodd;stroke:#FF0000;stroke-width:2.0px;stroke-linecap:butt;stroke-linejoin:miter;stroke-opacity:1"/>
<path class="bond-9 atom-8 atom-10" d="M 1096.7,112.4 L 1100.1,108.3" style="fill:none;fill-rule:evenodd;stroke:#CCCC00;stroke-width:2.0px;stroke-linecap:butt;stroke-linejoin:miter;stroke-opacity:1"/>
<path class="bond-9 atom-8 atom-10" d="M 1100.1,108.3 L 1103.5,104.2" style="fill:none;fill-rule:evenodd;stroke:#FF0000;stroke-width:2.0px;stroke-linecap:butt;stroke-linejoin:miter;stroke-opacity:1"/>
<path class="bond-10 atom-8 atom-11" d="M 1093.2,114.2 L 1087.1,109.2" style="fill:none;fill-rule:evenodd;stroke:#CCCC00;stroke-width:2.0px;stroke-linecap:butt;stroke-linejoin:miter;stroke-opacity:1"/>
<path class="bond-10 atom-8 atom-11" d="M 1087.1,109.2 L 1081.1,104.2" style="fill:none;fill-rule:evenodd;stroke:#000000;stroke-width:2.0px;stroke-linecap:butt;stroke-linejoin:miter;stroke-opacity:1"/>
<path class="bond-11 atom-11 atom-12" d="M 1081.1,104.2 L 1082.3,85.6" style="fill:none;fill-rule:evenodd;stroke:#000000;stroke-width:2.0px;stroke-linecap:butt;stroke-linejoin:miter;stroke-opacity:1"/>
<path class="bond-11 atom-11 atom-12" d="M 1078.4,102.0 L 1079.3,87.4" style="fill:none;fill-rule:evenodd;stroke:#000000;stroke-width:2.0px;stroke-linecap:butt;stroke-linejoin:miter;stroke-opacity:1"/>
<path class="bond-12 atom-12 atom-13" d="M 1082.3,85.6 L 1064.9,78.7" style="fill:none;fill-rule:evenodd;stroke:#000000;stroke-width:2.0px;stroke-linecap:butt;stroke-linejoin:miter;stroke-opacity:1"/>
<path class="bond-13 atom-13 atom-14" d="M 1064.9,78.7 L 1053.0,93.1" style="fill:none;fill-rule:evenodd;stroke:#000000;stroke-width:2.0px;stroke-linecap:butt;stroke-linejoin:miter;stroke-opacity:1"/>
<path class="bond-13 atom-13 atom-14" d="M 1065.8,82.1 L 1056.5,93.3" style="fill:none;fill-rule:evenodd;stroke:#000000;stroke-width:2.0px;stroke-linecap:butt;stroke-linejoin:miter;stroke-opacity:1"/>
<path class="bond-14 atom-14 atom-15" d="M 1053.0,93.1 L 1034.4,91.9" style="fill:none;fill-rule:evenodd;stroke:#000000;stroke-width:2.0px;stroke-linecap:butt;stroke-linejoin:miter;stroke-opacity:1"/>
<path class="bond-15 atom-15 atom-16" d="M 1034.4,91.9 L 1026.1,75.2" style="fill:none;fill-rule:evenodd;stroke:#000000;stroke-width:2.0px;stroke-linecap:butt;stroke-linejoin:miter;stroke-opacity:1"/>
<path class="bond-16 atom-15 atom-17" d="M 1034.4,91.9 L 1024.1,107.5" style="fill:none;fill-rule:evenodd;stroke:#000000;stroke-width:2.0px;stroke-linecap:butt;stroke-linejoin:miter;stroke-opacity:1"/>
<path class="bond-17 atom-14 atom-18" d="M 1053.0,93.1 L 1057.0,99.4" style="fill:none;fill-rule:evenodd;stroke:#000000;stroke-width:2.0px;stroke-linecap:butt;stroke-linejoin:miter;stroke-opacity:1"/>
<path class="bond-17 atom-14 atom-18" d="M 1057.0,99.4 L 1061.0,105.6" style="fill:none;fill-rule:evenodd;stroke:#CCCC00;stroke-width:2.0px;stroke-linecap:butt;stroke-linejoin:miter;stroke-opacity:1"/>
<path class="bond-18 atom-18 atom-11" d="M 1065.3,108.3 L 1073.2,106.2" style="fill:none;fill-rule:evenodd;stroke:#CCCC00;stroke-width:2.0px;stroke-linecap:butt;stroke-linejoin:miter;stroke-opacity:1"/>
<path class="bond-18 atom-18 atom-11" d="M 1073.2,106.2 L 1081.1,104.2" style="fill:none;fill-rule:evenodd;stroke:#000000;stroke-width:2.0px;stroke-linecap:butt;stroke-linejoin:miter;stroke-opacity:1"/>
<path d="M 1130.3,104.0 L 1130.5,103.1 L 1131.3,102.7" style="fill:none;stroke:#000000;stroke-width:2.0px;stroke-linecap:butt;stroke-linejoin:miter;stroke-opacity:1;"/>
<path d="M 1147.1,96.9 L 1148.0,96.5 L 1148.1,95.6" style="fill:none;stroke:#000000;stroke-width:2.0px;stroke-linecap:butt;stroke-linejoin:miter;stroke-opacity:1;"/>
<path d="M 1150.9,79.0 L 1151.1,78.1 L 1151.4,78.0" style="fill:none;stroke:#000000;stroke-width:2.0px;stroke-linecap:butt;stroke-linejoin:miter;stroke-opacity:1;"/>
<path d="M 1082.2,86.5 L 1082.3,85.6 L 1081.4,85.2" style="fill:none;stroke:#000000;stroke-width:2.0px;stroke-linecap:butt;stroke-linejoin:miter;stroke-opacity:1;"/>
<path d="M 1065.8,79.1 L 1064.9,78.7 L 1064.3,79.4" style="fill:none;stroke:#000000;stroke-width:2.0px;stroke-linecap:butt;stroke-linejoin:miter;stroke-opacity:1;"/>
<path class="atom-5" d="M 1134.2 66.3 Q 1134.2 65.0, 1134.9 64.3 Q 1135.5 63.6, 1136.7 63.6 Q 1137.8 63.6, 1138.5 64.3 Q 1139.1 65.0, 1139.1 66.3 Q 1139.1 67.5, 1138.5 68.3 Q 1137.8 69.0, 1136.7 69.0 Q 1135.5 69.0, 1134.9 68.3 Q 1134.2 67.5, 1134.2 66.3 M 1136.7 68.4 Q 1137.5 68.4, 1137.9 67.9 Q 1138.3 67.3, 1138.3 66.3 Q 1138.3 65.2, 1137.9 64.7 Q 1137.5 64.2, 1136.7 64.2 Q 1135.9 64.2, 1135.4 64.7 Q 1135.0 65.2, 1135.0 66.3 Q 1135.0 67.3, 1135.4 67.9 Q 1135.9 68.4, 1136.7 68.4 " fill="#FF0000"/>
<path class="atom-6" d="M 1166.1 71.6 Q 1166.1 70.4, 1166.7 69.6 Q 1167.4 68.9, 1168.5 68.9 Q 1169.7 68.9, 1170.3 69.6 Q 1171.0 70.4, 1171.0 71.6 Q 1171.0 72.9, 1170.3 73.6 Q 1169.7 74.4, 1168.5 74.4 Q 1167.4 74.4, 1166.7 73.6 Q 1166.1 72.9, 1166.1 71.6 M 1168.5 73.8 Q 1169.4 73.8, 1169.8 73.2 Q 1170.2 72.7, 1170.2 71.6 Q 1170.2 70.6, 1169.8 70.1 Q 1169.4 69.5, 1168.5 69.5 Q 1167.7 69.5, 1167.3 70.1 Q 1166.9 70.6, 1166.9 71.6 Q 1166.9 72.7, 1167.3 73.2 Q 1167.7 73.8, 1168.5 73.8 " fill="#FF0000"/>
<path class="atom-6" d="M 1171.8 69.0 L 1172.5 69.0 L 1172.5 71.2 L 1175.2 71.2 L 1175.2 69.0 L 1175.9 69.0 L 1175.9 74.3 L 1175.2 74.3 L 1175.2 71.8 L 1172.5 71.8 L 1172.5 74.3 L 1171.8 74.3 L 1171.8 69.0 " fill="#FF0000"/>
<path class="atom-7" d="M 1108.7 125.3 L 1110.4 128.1 Q 1110.6 128.4, 1110.9 128.9 Q 1111.2 129.4, 1111.2 129.4 L 1111.2 125.3 L 1111.9 125.3 L 1111.9 130.6 L 1111.2 130.6 L 1109.3 127.6 Q 1109.1 127.2, 1108.9 126.8 Q 1108.6 126.4, 1108.6 126.3 L 1108.6 130.6 L 1107.9 130.6 L 1107.9 125.3 L 1108.7 125.3 " fill="#0000FF"/>
<path class="atom-7" d="M 1107.8 131.1 L 1108.5 131.1 L 1108.5 133.4 L 1111.2 133.4 L 1111.2 131.1 L 1112.0 131.1 L 1112.0 136.4 L 1111.2 136.4 L 1111.2 134.0 L 1108.5 134.0 L 1108.5 136.4 L 1107.8 136.4 L 1107.8 131.1 " fill="#0000FF"/>
<path class="atom-8" d="M 1094.0 117.9 Q 1094.1 117.9, 1094.3 118.0 Q 1094.6 118.1, 1094.8 118.2 Q 1095.1 118.3, 1095.4 118.3 Q 1095.9 118.3, 1096.2 118.0 Q 1096.4 117.8, 1096.4 117.4 Q 1096.4 117.1, 1096.3 116.9 Q 1096.2 116.7, 1095.9 116.6 Q 1095.7 116.5, 1095.3 116.4 Q 1094.9 116.3, 1094.6 116.1 Q 1094.3 116.0, 1094.1 115.7 Q 1093.9 115.4, 1093.9 114.9 Q 1093.9 114.3, 1094.4 113.9 Q 1094.8 113.5, 1095.7 113.5 Q 1096.3 113.5, 1097.0 113.7 L 1096.8 114.3 Q 1096.2 114.1, 1095.7 114.1 Q 1095.2 114.1, 1094.9 114.3 Q 1094.6 114.5, 1094.7 114.9 Q 1094.7 115.1, 1094.8 115.3 Q 1094.9 115.5, 1095.2 115.6 Q 1095.4 115.7, 1095.7 115.8 Q 1096.2 115.9, 1096.5 116.1 Q 1096.8 116.2, 1097.0 116.5 Q 1097.2 116.8, 1097.2 117.4 Q 1097.2 118.1, 1096.7 118.5 Q 1096.2 118.9, 1095.4 118.9 Q 1094.9 118.9, 1094.6 118.8 Q 1094.2 118.7, 1093.8 118.5 L 1094.0 117.9 " fill="#CCCC00"/>
<path class="atom-9" d="M 1081.2 130.5 Q 1081.2 129.2, 1081.8 128.5 Q 1082.4 127.8, 1083.6 127.8 Q 1084.8 127.8, 1085.4 128.5 Q 1086.0 129.2, 1086.0 130.5 Q 1086.0 131.8, 1085.4 132.5 Q 1084.8 133.2, 1083.6 133.2 Q 1082.4 133.2, 1081.8 132.5 Q 1081.2 131.8, 1081.2 130.5 M 1083.6 132.6 Q 1084.4 132.6, 1084.8 132.1 Q 1085.3 131.6, 1085.3 130.5 Q 1085.3 129.5, 1084.8 128.9 Q 1084.4 128.4, 1083.6 128.4 Q 1082.8 128.4, 1082.4 128.9 Q 1081.9 129.5, 1081.9 130.5 Q 1081.9 131.6, 1082.4 132.1 Q 1082.8 132.6, 1083.6 132.6 " fill="#FF0000"/>
<path class="atom-10" d="M 1105.0 101.7 Q 1105.0 100.4, 1105.6 99.7 Q 1106.2 99.0, 1107.4 99.0 Q 1108.6 99.0, 1109.2 99.7 Q 1109.8 100.4, 1109.8 101.7 Q 1109.8 103.0, 1109.2 103.7 Q 1108.5 104.5, 1107.4 104.5 Q 1106.2 104.5, 1105.6 103.7 Q 1105.0 103.0, 1105.0 101.7 M 1107.4 103.9 Q 1108.2 103.9, 1108.6 103.3 Q 1109.1 102.8, 1109.1 101.7 Q 1109.1 100.7, 1108.6 100.2 Q 1108.2 99.6, 1107.4 99.6 Q 1106.6 99.6, 1106.1 100.1 Q 1105.7 100.7, 1105.7 101.7 Q 1105.7 102.8, 1106.1 103.3 Q 1106.6 103.9, 1107.4 103.9 " fill="#FF0000"/>
<path class="atom-18" d="M 1061.5 110.7 Q 1061.6 110.7, 1061.8 110.8 Q 1062.1 110.9, 1062.4 111.0 Q 1062.6 111.0, 1062.9 111.0 Q 1063.4 111.0, 1063.7 110.8 Q 1064.0 110.5, 1064.0 110.1 Q 1064.0 109.8, 1063.8 109.7 Q 1063.7 109.5, 1063.5 109.4 Q 1063.2 109.3, 1062.9 109.2 Q 1062.4 109.0, 1062.1 108.9 Q 1061.8 108.8, 1061.6 108.5 Q 1061.4 108.2, 1061.4 107.7 Q 1061.4 107.0, 1061.9 106.6 Q 1062.3 106.2, 1063.2 106.2 Q 1063.9 106.2, 1064.5 106.5 L 1064.4 107.1 Q 1063.7 106.8, 1063.3 106.8 Q 1062.7 106.8, 1062.5 107.0 Q 1062.2 107.3, 1062.2 107.6 Q 1062.2 107.9, 1062.3 108.1 Q 1062.5 108.2, 1062.7 108.3 Q 1062.9 108.4, 1063.3 108.6 Q 1063.7 108.7, 1064.0 108.9 Q 1064.3 109.0, 1064.5 109.3 Q 1064.7 109.6, 1064.7 110.1 Q 1064.7 110.9, 1064.2 111.2 Q 1063.7 111.6, 1062.9 111.6 Q 1062.5 111.6, 1062.1 111.5 Q 1061.7 111.4, 1061.3 111.3 L 1061.5 110.7 " fill="#CCCC00"/>
<path class="bond-0 atom-0 atom-1" d="M 1369.6,105.6 L 1366.1,99.0" style="fill:none;fill-rule:evenodd;stroke:#000000;stroke-width:2.0px;stroke-linecap:butt;stroke-linejoin:miter;stroke-opacity:1"/>
<path class="bond-0 atom-0 atom-1" d="M 1366.1,99.0 L 1362.7,92.4" style="fill:none;fill-rule:evenodd;stroke:#FF0000;stroke-width:2.0px;stroke-linecap:butt;stroke-linejoin:miter;stroke-opacity:1"/>
<path class="bond-1 atom-1 atom-2" d="M 1357.9,88.9 L 1350.1,88.6" style="fill:none;fill-rule:evenodd;stroke:#FF0000;stroke-width:2.0px;stroke-linecap:butt;stroke-linejoin:miter;stroke-opacity:1"/>
<path class="bond-1 atom-1 atom-2" d="M 1350.1,88.6 L 1342.3,88.2" style="fill:none;fill-rule:evenodd;stroke:#000000;stroke-width:2.0px;stroke-linecap:butt;stroke-linejoin:miter;stroke-opacity:1"/>
<path class="bond-2 atom-2 atom-3" d="M 1342.3,88.2 L 1332.3,103.9" style="fill:none;fill-rule:evenodd;stroke:#000000;stroke-width:2.0px;stroke-linecap:butt;stroke-linejoin:miter;stroke-opacity:1"/>
<path class="bond-2 atom-2 atom-3" d="M 1339.1,88.1 L 1330.8,101.1" style="fill:none;fill-rule:evenodd;stroke:#000000;stroke-width:2.0px;stroke-linecap:butt;stroke-linejoin:miter;stroke-opacity:1"/>
<path class="bond-3 atom-3 atom-4" d="M 1332.3,103.9 L 1313.6,103.1" style="fill:none;fill-rule:evenodd;stroke:#000000;stroke-width:2.0px;stroke-linecap:butt;stroke-linejoin:miter;stroke-opacity:1"/>
<path class="bond-4 atom-4 atom-5" d="M 1313.6,103.1 L 1305.0,86.5" style="fill:none;fill-rule:evenodd;stroke:#000000;stroke-width:2.0px;stroke-linecap:butt;stroke-linejoin:miter;stroke-opacity:1"/>
<path class="bond-4 atom-4 atom-5" d="M 1315.4,100.4 L 1308.3,86.7" style="fill:none;fill-rule:evenodd;stroke:#000000;stroke-width:2.0px;stroke-linecap:butt;stroke-linejoin:miter;stroke-opacity:1"/>
<path class="bond-5 atom-5 atom-6" d="M 1305.0,86.5 L 1296.9,86.2" style="fill:none;fill-rule:evenodd;stroke:#000000;stroke-width:2.0px;stroke-linecap:butt;stroke-linejoin:miter;stroke-opacity:1"/>
<path class="bond-5 atom-5 atom-6" d="M 1296.9,86.2 L 1288.7,85.8" style="fill:none;fill-rule:evenodd;stroke:#CCCC00;stroke-width:2.0px;stroke-linecap:butt;stroke-linejoin:miter;stroke-opacity:1"/>
<path class="bond-6 atom-6 atom-7" d="M 1287.9,82.5 L 1288.2,76.5" style="fill:none;fill-rule:evenodd;stroke:#CCCC00;stroke-width:2.0px;stroke-linecap:butt;stroke-linejoin:miter;stroke-opacity:1"/>
<path class="bond-6 atom-6 atom-7" d="M 1288.2,76.5 L 1288.5,70.5" style="fill:none;fill-rule:evenodd;stroke:#FF0000;stroke-width:2.0px;stroke-linecap:butt;stroke-linejoin:miter;stroke-opacity:1"/>
<path class="bond-6 atom-6 atom-7" d="M 1285.1,82.4 L 1285.4,76.4" style="fill:none;fill-rule:evenodd;stroke:#CCCC00;stroke-width:2.0px;stroke-linecap:butt;stroke-linejoin:miter;stroke-opacity:1"/>
<path class="bond-6 atom-6 atom-7" d="M 1285.4,76.4 L 1285.7,70.4" style="fill:none;fill-rule:evenodd;stroke:#FF0000;stroke-width:2.0px;stroke-linecap:butt;stroke-linejoin:miter;stroke-opacity:1"/>
<path class="bond-7 atom-6 atom-8" d="M 1284.8,89.0 L 1284.6,95.0" style="fill:none;fill-rule:evenodd;stroke:#CCCC00;stroke-width:2.0px;stroke-linecap:butt;stroke-linejoin:miter;stroke-opacity:1"/>
<path class="bond-7 atom-6 atom-8" d="M 1284.6,95.0 L 1284.3,101.0" style="fill:none;fill-rule:evenodd;stroke:#FF0000;stroke-width:2.0px;stroke-linecap:butt;stroke-linejoin:miter;stroke-opacity:1"/>
<path class="bond-7 atom-6 atom-8" d="M 1287.6,89.1 L 1287.4,95.1" style="fill:none;fill-rule:evenodd;stroke:#CCCC00;stroke-width:2.0px;stroke-linecap:butt;stroke-linejoin:miter;stroke-opacity:1"/>
<path class="bond-7 atom-6 atom-8" d="M 1287.4,95.1 L 1287.1,101.1" style="fill:none;fill-rule:evenodd;stroke:#FF0000;stroke-width:2.0px;stroke-linecap:butt;stroke-linejoin:miter;stroke-opacity:1"/>
<path class="bond-8 atom-6 atom-9" d="M 1284.1,85.6 L 1277.2,85.3" style="fill:none;fill-rule:evenodd;stroke:#CCCC00;stroke-width:2.0px;stroke-linecap:butt;stroke-linejoin:miter;stroke-opacity:1"/>
<path class="bond-8 atom-6 atom-9" d="M 1277.2,85.3 L 1270.4,85.0" style="fill:none;fill-rule:evenodd;stroke:#0000FF;stroke-width:2.0px;stroke-linecap:butt;stroke-linejoin:miter;stroke-opacity:1"/>
<path class="bond-9 atom-9 atom-10" d="M 1266.0,81.6 L 1262.6,74.9" style="fill:none;fill-rule:evenodd;stroke:#0000FF;stroke-width:2.0px;stroke-linecap:butt;stroke-linejoin:miter;stroke-opacity:1"/>
<path class="bond-9 atom-9 atom-10" d="M 1262.6,74.9 L 1259.1,68.3" style="fill:none;fill-rule:evenodd;stroke:#000000;stroke-width:2.0px;stroke-linecap:butt;stroke-linejoin:miter;stroke-opacity:1"/>
<path class="bond-10 atom-10 atom-11" d="M 1259.1,68.3 L 1251.0,67.9" style="fill:none;fill-rule:evenodd;stroke:#000000;stroke-width:2.0px;stroke-linecap:butt;stroke-linejoin:miter;stroke-opacity:1"/>
<path class="bond-10 atom-10 atom-11" d="M 1251.0,67.9 L 1242.8,67.5" style="fill:none;fill-rule:evenodd;stroke:#CCCC00;stroke-width:2.0px;stroke-linecap:butt;stroke-linejoin:miter;stroke-opacity:1"/>
<path class="bond-11 atom-11 atom-12" d="M 1238.3,70.8 L 1234.4,77.0" style="fill:none;fill-rule:evenodd;stroke:#CCCC00;stroke-width:2.0px;stroke-linecap:butt;stroke-linejoin:miter;stroke-opacity:1"/>
<path class="bond-11 atom-11 atom-12" d="M 1234.4,77.0 L 1230.4,83.2" style="fill:none;fill-rule:evenodd;stroke:#000000;stroke-width:2.0px;stroke-linecap:butt;stroke-linejoin:miter;stroke-opacity:1"/>
<path class="bond-12 atom-12 atom-13" d="M 1230.4,83.2 L 1233.9,89.8" style="fill:none;fill-rule:evenodd;stroke:#000000;stroke-width:2.0px;stroke-linecap:butt;stroke-linejoin:miter;stroke-opacity:1"/>
<path class="bond-12 atom-12 atom-13" d="M 1233.9,89.8 L 1237.3,96.5" style="fill:none;fill-rule:evenodd;stroke:#0000FF;stroke-width:2.0px;stroke-linecap:butt;stroke-linejoin:miter;stroke-opacity:1"/>
<path class="bond-13 atom-13 atom-14" d="M 1241.7,99.9 L 1249.7,100.2" style="fill:none;fill-rule:evenodd;stroke:#0000FF;stroke-width:2.0px;stroke-linecap:butt;stroke-linejoin:miter;stroke-opacity:1"/>
<path class="bond-13 atom-13 atom-14" d="M 1249.7,100.2 L 1257.7,100.6" style="fill:none;fill-rule:evenodd;stroke:#000000;stroke-width:2.0px;stroke-linecap:butt;stroke-linejoin:miter;stroke-opacity:1"/>
<path class="bond-13 atom-13 atom-14" d="M 1241.8,97.1 L 1249.0,97.4" style="fill:none;fill-rule:evenodd;stroke:#0000FF;stroke-width:2.0px;stroke-linecap:butt;stroke-linejoin:miter;stroke-opacity:1"/>
<path class="bond-13 atom-13 atom-14" d="M 1249.0,97.4 L 1256.2,97.7" style="fill:none;fill-rule:evenodd;stroke:#000000;stroke-width:2.0px;stroke-linecap:butt;stroke-linejoin:miter;stroke-opacity:1"/>
<path class="bond-14 atom-14 atom-15" d="M 1257.7,100.6 L 1266.3,117.1" style="fill:none;fill-rule:evenodd;stroke:#000000;stroke-width:2.0px;stroke-linecap:butt;stroke-linejoin:miter;stroke-opacity:1"/>
<path class="bond-15 atom-15 atom-16" d="M 1266.3,117.1 L 1262.3,123.4" style="fill:none;fill-rule:evenodd;stroke:#000000;stroke-width:2.0px;stroke-linecap:butt;stroke-linejoin:miter;stroke-opacity:1"/>
<path class="bond-15 atom-15 atom-16" d="M 1262.3,123.4 L 1258.3,129.6" style="fill:none;fill-rule:evenodd;stroke:#FF0000;stroke-width:2.0px;stroke-linecap:butt;stroke-linejoin:miter;stroke-opacity:1"/>
<path class="bond-16 atom-5 atom-17" d="M 1305.0,86.5 L 1315.1,70.8" style="fill:none;fill-rule:evenodd;stroke:#000000;stroke-width:2.0px;stroke-linecap:butt;stroke-linejoin:miter;stroke-opacity:1"/>
<path class="bond-17 atom-17 atom-18" d="M 1315.1,70.8 L 1333.7,71.6" style="fill:none;fill-rule:evenodd;stroke:#000000;stroke-width:2.0px;stroke-linecap:butt;stroke-linejoin:miter;stroke-opacity:1"/>
<path class="bond-17 atom-17 atom-18" d="M 1316.6,73.7 L 1332.0,74.4" style="fill:none;fill-rule:evenodd;stroke:#000000;stroke-width:2.0px;stroke-linecap:butt;stroke-linejoin:miter;stroke-opacity:1"/>
<path class="bond-18 atom-18 atom-2" d="M 1333.7,71.6 L 1342.3,88.2" style="fill:none;fill-rule:evenodd;stroke:#000000;stroke-width:2.0px;stroke-linecap:butt;stroke-linejoin:miter;stroke-opacity:1"/>
<path class="bond-19 atom-14 atom-9" d="M 1257.7,100.6 L 1261.7,94.3" style="fill:none;fill-rule:evenodd;stroke:#000000;stroke-width:2.0px;stroke-linecap:butt;stroke-linejoin:miter;stroke-opacity:1"/>
<path class="bond-19 atom-14 atom-9" d="M 1261.7,94.3 L 1265.7,88.1" style="fill:none;fill-rule:evenodd;stroke:#0000FF;stroke-width:2.0px;stroke-linecap:butt;stroke-linejoin:miter;stroke-opacity:1"/>
<path d="M 1332.8,103.2 L 1332.3,103.9 L 1331.3,103.9" style="fill:none;stroke:#000000;stroke-width:2.0px;stroke-linecap:butt;stroke-linejoin:miter;stroke-opacity:1;"/>
<path d="M 1314.6,103.1 L 1313.6,103.1 L 1313.2,102.3" style="fill:none;stroke:#000000;stroke-width:2.0px;stroke-linecap:butt;stroke-linejoin:miter;stroke-opacity:1;"/>
<path d="M 1259.3,68.6 L 1259.1,68.3 L 1258.7,68.3" style="fill:none;stroke:#000000;stroke-width:2.0px;stroke-linecap:butt;stroke-linejoin:miter;stroke-opacity:1;"/>
<path d="M 1230.6,82.9 L 1230.4,83.2 L 1230.6,83.5" style="fill:none;stroke:#000000;stroke-width:2.0px;stroke-linecap:butt;stroke-linejoin:miter;stroke-opacity:1;"/>
<path d="M 1265.8,116.3 L 1266.3,117.1 L 1266.1,117.5" style="fill:none;stroke:#000000;stroke-width:2.0px;stroke-linecap:butt;stroke-linejoin:miter;stroke-opacity:1;"/>
<path d="M 1314.6,71.6 L 1315.1,70.8 L 1316.0,70.8" style="fill:none;stroke:#000000;stroke-width:2.0px;stroke-linecap:butt;stroke-linejoin:miter;stroke-opacity:1;"/>
<path d="M 1332.8,71.6 L 1333.7,71.6 L 1334.2,72.5" style="fill:none;stroke:#000000;stroke-width:2.0px;stroke-linecap:butt;stroke-linejoin:miter;stroke-opacity:1;"/>
<path class="atom-1" d="M 1358.5 89.1 Q 1358.5 87.8, 1359.2 87.1 Q 1359.8 86.4, 1361.0 86.4 Q 1362.1 86.4, 1362.8 87.1 Q 1363.4 87.8, 1363.4 89.1 Q 1363.4 90.4, 1362.8 91.1 Q 1362.1 91.8, 1361.0 91.8 Q 1359.8 91.8, 1359.2 91.1 Q 1358.5 90.4, 1358.5 89.1 M 1361.0 91.2 Q 1361.8 91.2, 1362.2 90.7 Q 1362.6 90.1, 1362.6 89.1 Q 1362.6 88.0, 1362.2 87.5 Q 1361.8 87.0, 1361.0 87.0 Q 1360.2 87.0, 1359.7 87.5 Q 1359.3 88.0, 1359.3 89.1 Q 1359.3 90.1, 1359.7 90.7 Q 1360.2 91.2, 1361.0 91.2 " fill="#FF0000"/>
<path class="atom-6" d="M 1284.9 87.5 Q 1284.9 87.5, 1285.2 87.6 Q 1285.4 87.7, 1285.7 87.8 Q 1286.0 87.9, 1286.3 87.9 Q 1286.8 87.9, 1287.0 87.6 Q 1287.3 87.4, 1287.3 87.0 Q 1287.3 86.7, 1287.2 86.5 Q 1287.0 86.3, 1286.8 86.2 Q 1286.6 86.1, 1286.2 86.0 Q 1285.8 85.9, 1285.5 85.7 Q 1285.2 85.6, 1285.0 85.3 Q 1284.8 85.0, 1284.8 84.5 Q 1284.8 83.9, 1285.2 83.5 Q 1285.7 83.1, 1286.6 83.1 Q 1287.2 83.1, 1287.9 83.3 L 1287.7 83.9 Q 1287.1 83.7, 1286.6 83.7 Q 1286.1 83.7, 1285.8 83.9 Q 1285.5 84.1, 1285.5 84.5 Q 1285.5 84.7, 1285.7 84.9 Q 1285.8 85.1, 1286.0 85.2 Q 1286.3 85.3, 1286.6 85.4 Q 1287.1 85.5, 1287.4 85.7 Q 1287.7 85.8, 1287.9 86.1 Q 1288.1 86.4, 1288.1 87.0 Q 1288.1 87.7, 1287.6 88.1 Q 1287.1 88.5, 1286.3 88.5 Q 1285.8 88.5, 1285.5 88.4 Q 1285.1 88.3, 1284.7 88.1 L 1284.9 87.5 " fill="#CCCC00"/>
<path class="atom-7" d="M 1284.8 67.1 Q 1284.8 65.8, 1285.4 65.1 Q 1286.0 64.4, 1287.2 64.4 Q 1288.4 64.4, 1289.0 65.1 Q 1289.6 65.8, 1289.6 67.1 Q 1289.6 68.3, 1289.0 69.1 Q 1288.4 69.8, 1287.2 69.8 Q 1286.1 69.8, 1285.4 69.1 Q 1284.8 68.4, 1284.8 67.1 M 1287.2 69.2 Q 1288.0 69.2, 1288.5 68.7 Q 1288.9 68.1, 1288.9 67.1 Q 1288.9 66.0, 1288.5 65.5 Q 1288.0 65.0, 1287.2 65.0 Q 1286.4 65.0, 1286.0 65.5 Q 1285.5 66.0, 1285.5 67.1 Q 1285.5 68.1, 1286.0 68.7 Q 1286.4 69.2, 1287.2 69.2 " fill="#FF0000"/>
<path class="atom-8" d="M 1283.1 104.4 Q 1283.1 103.1, 1283.7 102.4 Q 1284.4 101.7, 1285.5 101.7 Q 1286.7 101.7, 1287.3 102.4 Q 1288.0 103.1, 1288.0 104.4 Q 1288.0 105.6, 1287.3 106.4 Q 1286.7 107.1, 1285.5 107.1 Q 1284.4 107.1, 1283.7 106.4 Q 1283.1 105.6, 1283.1 104.4 M 1285.5 106.5 Q 1286.3 106.5, 1286.8 106.0 Q 1287.2 105.4, 1287.2 104.4 Q 1287.2 103.3, 1286.8 102.8 Q 1286.3 102.3, 1285.5 102.3 Q 1284.7 102.3, 1284.3 102.8 Q 1283.9 103.3, 1283.9 104.4 Q 1283.9 105.4, 1284.3 106.0 Q 1284.7 106.5, 1285.5 106.5 " fill="#FF0000"/>
<path class="atom-9" d="M 1266.6 82.2 L 1268.3 85.0 Q 1268.5 85.3, 1268.7 85.8 Q 1269.0 86.3, 1269.0 86.3 L 1269.0 82.2 L 1269.7 82.2 L 1269.7 87.5 L 1269.0 87.5 L 1267.2 84.4 Q 1266.9 84.1, 1266.7 83.7 Q 1266.5 83.3, 1266.4 83.1 L 1266.4 87.5 L 1265.7 87.5 L 1265.7 82.2 L 1266.6 82.2 " fill="#0000FF"/>
<path class="atom-11" d="M 1239.0 69.3 Q 1239.1 69.3, 1239.3 69.4 Q 1239.6 69.5, 1239.8 69.6 Q 1240.1 69.6, 1240.4 69.6 Q 1240.9 69.6, 1241.2 69.4 Q 1241.4 69.1, 1241.4 68.7 Q 1241.4 68.4, 1241.3 68.2 Q 1241.2 68.1, 1240.9 68.0 Q 1240.7 67.9, 1240.3 67.7 Q 1239.9 67.6, 1239.6 67.5 Q 1239.3 67.3, 1239.1 67.0 Q 1238.9 66.8, 1238.9 66.3 Q 1238.9 65.6, 1239.4 65.2 Q 1239.8 64.8, 1240.7 64.8 Q 1241.3 64.8, 1242.0 65.1 L 1241.8 65.7 Q 1241.2 65.4, 1240.7 65.4 Q 1240.2 65.4, 1239.9 65.6 Q 1239.6 65.8, 1239.7 66.2 Q 1239.7 66.5, 1239.8 66.7 Q 1239.9 66.8, 1240.2 66.9 Q 1240.4 67.0, 1240.7 67.1 Q 1241.2 67.3, 1241.5 67.4 Q 1241.8 67.6, 1242.0 67.9 Q 1242.2 68.2, 1242.2 68.7 Q 1242.2 69.4, 1241.7 69.8 Q 1241.2 70.2, 1240.4 70.2 Q 1239.9 70.2, 1239.6 70.1 Q 1239.2 70.0, 1238.8 69.8 L 1239.0 69.3 " fill="#CCCC00"/>
<path class="atom-13" d="M 1237.9 97.1 L 1239.6 99.9 Q 1239.8 100.2, 1240.0 100.7 Q 1240.3 101.2, 1240.3 101.2 L 1240.3 97.1 L 1241.0 97.1 L 1241.0 102.4 L 1240.3 102.4 L 1238.5 99.3 Q 1238.2 99.0, 1238.0 98.5 Q 1237.8 98.1, 1237.7 98.0 L 1237.7 102.4 L 1237.0 102.4 L 1237.0 97.1 L 1237.9 97.1 " fill="#0000FF"/>
<path class="atom-16" d="M 1248.6 130.3 L 1249.3 130.3 L 1249.3 132.5 L 1252.0 132.5 L 1252.0 130.3 L 1252.7 130.3 L 1252.7 135.5 L 1252.0 135.5 L 1252.0 133.1 L 1249.3 133.1 L 1249.3 135.5 L 1248.6 135.5 L 1248.6 130.3 " fill="#FF0000"/>
<path class="atom-16" d="M 1253.8 132.9 Q 1253.8 131.6, 1254.4 130.9 Q 1255.1 130.2, 1256.2 130.2 Q 1257.4 130.2, 1258.0 130.9 Q 1258.6 131.6, 1258.6 132.9 Q 1258.6 134.2, 1258.0 134.9 Q 1257.4 135.6, 1256.2 135.6 Q 1255.1 135.6, 1254.4 134.9 Q 1253.8 134.2, 1253.8 132.9 M 1256.2 135.0 Q 1257.0 135.0, 1257.5 134.5 Q 1257.9 133.9, 1257.9 132.9 Q 1257.9 131.8, 1257.5 131.3 Q 1257.0 130.8, 1256.2 130.8 Q 1255.4 130.8, 1255.0 131.3 Q 1254.5 131.8, 1254.5 132.9 Q 1254.5 134.0, 1255.0 134.5 Q 1255.4 135.0, 1256.2 135.0 " fill="#FF0000"/>
</svg>